<?xml version="1.0" encoding="iso-8859-1"?>
<!-- Generator: Adobe Illustrator 17.1.0, SVG Export Plug-In . SVG Version: 6.00 Build 0)  -->
<!DOCTYPE svg PUBLIC "-//W3C//DTD SVG 1.1//EN" "http://www.w3.org/Graphics/SVG/1.1/DTD/svg11.dtd">
<svg version="1.1" id="Capa_1" xmlns="http://www.w3.org/2000/svg" xmlns:xlink="http://www.w3.org/1999/xlink" x="0px" y="0px"
	 viewBox="0 0 373.557 373.557" style="enable-background:new 0 0 373.557 373.557;" xml:space="preserve">
<g>
	<path d="M317.612,23.392h-70V7.5c0-4.142-3.357-7.5-7.5-7.5H133.445c-4.142,0-7.5,3.358-7.5,7.5v52.613c0,4.142,3.358,7.5,7.5,7.5
		h106.667c4.143,0,7.5-3.358,7.5-7.5V38.392h62.5v320.165H63.445V38.392h30.333c4.142,0,7.5-3.358,7.5-7.5s-3.358-7.5-7.5-7.5
		H55.945c-4.142,0-7.5,3.358-7.5,7.5v335.165c0,4.142,3.358,7.5,7.5,7.5h261.667c4.143,0,7.5-3.358,7.5-7.5V30.892
		C325.112,26.75,321.754,23.392,317.612,23.392z M232.612,52.613h-91.667V15h91.667V52.613z"/>
	<path d="M140.945,100.113c0-4.142-3.358-7.5-7.5-7.5h-43.75c-4.142,0-7.5,3.358-7.5,7.5v43.75c0,4.142,3.358,7.5,7.5,7.5h43.75
		c4.142,0,7.5-3.358,7.5-7.5V100.113z M125.945,136.363h-28.75v-28.75h28.75V136.363z"/>
	<path d="M163.445,129.488h107.5c4.143,0,7.5-3.358,7.5-7.5s-3.357-7.5-7.5-7.5h-107.5c-4.142,0-7.5,3.358-7.5,7.5
		S159.303,129.488,163.445,129.488z"/>
	<path d="M140.945,183.446c0-4.142-3.358-7.5-7.5-7.5h-43.75c-4.142,0-7.5,3.358-7.5,7.5v43.75c0,4.142,3.358,7.5,7.5,7.5h43.75
		c4.142,0,7.5-3.358,7.5-7.5V183.446z M125.945,219.696h-28.75v-28.75h28.75V219.696z"/>
	<path d="M163.445,212.821h107.5c4.143,0,7.5-3.358,7.5-7.5s-3.357-7.5-7.5-7.5h-107.5c-4.142,0-7.5,3.358-7.5,7.5
		S159.303,212.821,163.445,212.821z"/>
	<path d="M133.445,274.28c4.142,0,7.5-3.358,7.5-7.5s-3.358-7.5-7.5-7.5h-43.75c-4.142,0-7.5,3.358-7.5,7.5v43.75
		c0,4.142,3.358,7.5,7.5,7.5h43.75c4.142,0,7.5-3.358,7.5-7.5s-3.358-7.5-7.5-7.5h-36.25v-28.75H133.445z"/>
	<path d="M163.445,296.155h107.5c4.143,0,7.5-3.358,7.5-7.5s-3.357-7.5-7.5-7.5h-107.5c-4.142,0-7.5,3.358-7.5,7.5
		S159.303,296.155,163.445,296.155z"/>
</g>
<g>
</g>
<g>
</g>
<g>
</g>
<g>
</g>
<g>
</g>
<g>
</g>
<g>
</g>
<g>
</g>
<g>
</g>
<g>
</g>
<g>
</g>
<g>
</g>
<g>
</g>
<g>
</g>
<g>
</g>
</svg>
