<?xml version="1.0" encoding="iso-8859-1"?>
<!-- Generator: Adobe Illustrator 19.0.0, SVG Export Plug-In . SVG Version: 6.00 Build 0)  -->
<svg version="1.1" id="Layer_1" xmlns="http://www.w3.org/2000/svg" xmlns:xlink="http://www.w3.org/1999/xlink" x="0px" y="0px"
	 viewBox="0 0 502 502" style="enable-background:new 0 0 502 502;" xml:space="preserve">
<g>
	<g>
		<g>
			<path d="M47,108.5h161c5.523,0,10-4.477,10-10s-4.477-10-10-10H47c-5.523,0-10,4.477-10,10S41.477,108.5,47,108.5z"/>
			<path d="M244,108.5h19c5.523,0,10-4.477,10-10s-4.477-10-10-10h-19c-5.523,0-10,4.477-10,10S238.477,108.5,244,108.5z"/>
			<path d="M492,54H10C4.477,54,0,58.477,0,64v318c0,5.523,4.477,10,10,10h180v36h-34c-5.523,0-10,4.477-10,10s4.477,10,10,10h190
				c5.523,0,10-4.477,10-10s-4.477-10-10-10h-34v-36h180c5.523,0,10-4.477,10-10V64C502,58.477,497.523,54,492,54z M292,428h-82v-36
				h82V428z M482,372H20V74h462V372z"/>
		</g>
	</g>
</g>
<g>
</g>
<g>
</g>
<g>
</g>
<g>
</g>
<g>
</g>
<g>
</g>
<g>
</g>
<g>
</g>
<g>
</g>
<g>
</g>
<g>
</g>
<g>
</g>
<g>
</g>
<g>
</g>
<g>
</g>
</svg>
