<svg xmlns="http://www.w3.org/2000/svg" viewBox="0 0 64 64" width="64" height="64">
	<style>
		tspan { white-space:pre }
		.shp0 { fill: #f8f8f8 } 
	</style>
	<g id="Graphic-design_2_">
		<path id="Layer" fill-rule="evenodd" class="shp0" d="M57.49 9.03C57.95 9.34 58.06 9.97 57.74 10.42L34.73 43.48C34.64 43.61 34.52 43.71 34.39 43.79L25.13 48.83C24.98 48.91 24.82 48.95 24.65 48.95C24.45 48.95 24.25 48.89 24.08 48.77C23.77 48.56 23.61 48.19 23.67 47.81L25.18 37.38C25.21 37.23 25.26 37.08 25.35 36.95L48.37 3.89C48.52 3.67 48.75 3.52 49.01 3.48C49.27 3.43 49.54 3.49 49.76 3.64L57.49 9.03ZM55.53 10.1L49.44 5.85L27.13 37.9L25.93 46.12L33.22 42.15L55.53 10.1Z" />
		<path id="Layer" class="shp0" d="M56.22 23.62C55.67 23.62 55.22 24.07 55.22 24.62L55.22 58.12C55.22 60.26 53.48 62 51.33 62L9.19 62C7.04 62 5.3 60.26 5.3 58.12L5.3 15.97C5.3 13.83 7.04 12.09 9.19 12.09L34.03 12.09C34.58 12.09 35.03 11.64 35.03 11.09C35.03 10.54 34.58 10.09 34.03 10.09L9.19 10.09C5.94 10.09 3.31 12.73 3.31 15.97L3.31 58.12C3.31 61.36 5.94 64 9.19 64L51.33 64C54.58 64 57.22 61.36 57.22 58.12L57.22 24.62C57.22 24.07 56.77 23.62 56.22 23.62Z" />
		<path id="Layer" class="shp0" d="M60.25 5.51L52.24 0.17C51.78 -0.14 51.16 -0.01 50.86 0.44C50.55 0.9 50.67 1.52 51.13 1.83L59.14 7.17C59.31 7.28 59.5 7.34 59.69 7.34C60.02 7.34 60.33 7.18 60.53 6.89C60.83 6.43 60.71 5.81 60.25 5.51Z" />
	</g>
	<g id="Layer">
	</g>
	<g id="Layer">
	</g>
	<g id="Layer">
	</g>
	<g id="Layer">
	</g>
	<g id="Layer">
	</g>
	<g id="Layer">
	</g>
	<g id="Layer">
	</g>
	<g id="Layer">
	</g>
	<g id="Layer">
	</g>
	<g id="Layer">
	</g>
	<g id="Layer">
	</g>
	<g id="Layer">
	</g>
	<g id="Layer">
	</g>
	<g id="Layer">
	</g>
	<g id="Layer">
	</g>
</svg>