<?xml version="1.0" encoding="iso-8859-1"?>
<!-- Generator: Adobe Illustrator 19.0.0, SVG Export Plug-In . SVG Version: 6.00 Build 0)  -->
<svg version="1.1" id="Layer_1" xmlns="http://www.w3.org/2000/svg" xmlns:xlink="http://www.w3.org/1999/xlink" x="0px" y="0px"
	 viewBox="0 0 421.481 421.481" style="enable-background:new 0 0 421.481 421.481;" xml:space="preserve">
<g>
	<g>
		<g>
			<path d="M335.741,175h-18.473v-68.472c0-28.455-11.079-55.205-31.195-75.321C265.958,11.083,239.205,0,210.741,0
				C152,0,104.211,47.788,104.211,106.528V175H85.741c-4.143,0-7.5,3.358-7.5,7.5v231.481c0,4.142,3.357,7.5,7.5,7.5h250
				c4.143,0,7.5-3.358,7.5-7.5V182.5C343.241,178.358,339.883,175,335.741,175z M210.74,15c24.456,0,47.441,9.522,64.724,26.813
				c17.285,17.284,26.804,40.267,26.804,64.715V175h-20.185v-68.472c0-19.06-7.424-36.975-20.896-50.438
				c-13.46-13.48-31.375-20.905-50.446-20.905c-39.339,0-71.343,32.004-71.343,71.343V175h-20.186c0,0,0-68.472,0-68.472
				C119.211,56.059,160.272,15,210.74,15z M267.084,106.528V175h-0.001H154.398v-68.472c0-31.067,25.275-56.343,56.343-56.343
				c15.061,0,29.206,5.861,39.837,16.509C261.223,77.33,267.084,91.476,267.084,106.528z M328.241,406.481h-235V190h235V406.481z"/>
			<path d="M309.741,396.741c4.143,0,7.5-3.358,7.5-7.5v-160.6c0-4.142-3.357-7.5-7.5-7.5s-7.5,3.358-7.5,7.5v160.6
				C302.241,393.383,305.598,396.741,309.741,396.741z"/>
			<path d="M302.813,210.11c0.094,0.222,0.049,0.115,0.002,0.005c2.021,4.77,8.537,6.225,12.228,2.425
				c2.895-2.816,2.895-7.784,0-10.6c-2.465-2.539-6.556-2.861-9.47-0.93c-2.924,1.938-4.124,5.85-2.763,9.093
				C302.764,209.993,302.72,209.89,302.813,210.11z"/>
			<path d="M193.811,345.109c1.411,1.419,3.327,2.212,5.318,2.212c0.13,0,0.262-0.003,0.393-0.01
				c2.131-0.112,4.112-1.125,5.45-2.787l60.263-74.866c2.597-3.227,2.087-7.948-1.14-10.545c-3.228-2.598-7.947-2.086-10.546,1.139
				l-55.009,68.339l-31.134-31.312c-2.92-2.937-7.669-2.951-10.606-0.03c-2.938,2.92-2.951,7.669-0.03,10.606L193.811,345.109z"/>
		</g>
	</g>
</g>
<g>
</g>
<g>
</g>
<g>
</g>
<g>
</g>
<g>
</g>
<g>
</g>
<g>
</g>
<g>
</g>
<g>
</g>
<g>
</g>
<g>
</g>
<g>
</g>
<g>
</g>
<g>
</g>
<g>
</g>
</svg>
