<?xml version="1.0" encoding="iso-8859-1"?>
<!-- Generator: Adobe Illustrator 19.0.0, SVG Export Plug-In . SVG Version: 6.00 Build 0)  -->
<svg version="1.1" id="Layer_1" xmlns="http://www.w3.org/2000/svg" xmlns:xlink="http://www.w3.org/1999/xlink" x="0px" y="0px"
	 viewBox="0 0 191.102 191.102" style="enable-background:new 0 0 191.102 191.102;" xml:space="preserve">
<g>
	<g>
		<g>
			<path d="M151.134,0H39.968C26.551,0,15.636,10.914,15.636,24.33v142.441c0,13.417,10.916,24.331,24.332,24.331h111.166
				c13.417,0,24.332-10.914,24.332-24.33V24.33C175.466,10.914,164.55,0,151.134,0z M168.517,118.135h-17.305v6.949h17.305v41.687
				c0,9.584-7.797,17.382-17.383,17.382H39.968c-9.586,0-17.383-7.797-17.383-17.381v-41.687h10.491v-6.949H22.585V24.33
				c0-9.584,7.797-17.381,17.383-17.381h111.166c9.586,0,17.383,7.797,17.383,17.381V118.135z"/>
			<rect x="40.025" y="118.136" width="20.847" height="6.949"/>
			<rect x="67.822" y="118.136" width="20.847" height="6.949"/>
			<rect x="95.619" y="118.136" width="20.847" height="6.949"/>
			<rect x="123.415" y="118.136" width="20.847" height="6.949"/>
			<path d="M85.127,48.644V20.847c0-1.919-1.554-3.475-3.475-3.475H36.483c-1.92,0-3.475,1.556-3.475,3.475v27.797
				c0,1.919,1.554,3.475,3.475,3.475h45.169C83.573,52.119,85.127,50.563,85.127,48.644z M78.178,45.169h-38.22V24.322h38.22V45.169
				z"/>
			<rect x="39.958" y="69.492" width="69.583" height="6.949"/>
			<rect x="39.958" y="83.39" width="52.119" height="6.949"/>
			<rect x="39.958" y="156.356" width="21.275" height="6.949"/>
			<rect x="39.958" y="142.458" width="38.22" height="6.949"/>
		</g>
	</g>
</g>
<g>
</g>
<g>
</g>
<g>
</g>
<g>
</g>
<g>
</g>
<g>
</g>
<g>
</g>
<g>
</g>
<g>
</g>
<g>
</g>
<g>
</g>
<g>
</g>
<g>
</g>
<g>
</g>
<g>
</g>
</svg>
