<svg xmlns="http://www.w3.org/2000/svg" viewBox="0 0 61 61" width="61" height="61">
	<style>
		tspan { white-space:pre }
		.shp0 { fill: #f8f8f8 } 
	</style>
	<path id="Layer" fill-rule="evenodd" class="shp0" d="M55.5 12.67C55.5 13.22 55.05 13.67 54.5 13.67L52.46 13.67L52.46 54.17C52.46 57.47 49.77 60.17 46.46 60.17L13.71 60.17C10.4 60.17 7.71 57.47 7.71 54.17L7.71 13.67L5.67 13.67C5.12 13.67 4.67 13.22 4.67 12.67C4.67 12.11 5.12 11.67 5.67 11.67L20.29 11.67L20.29 3.91C20.29 1.75 22.04 0 24.2 0L35.97 0C38.13 0 39.88 1.75 39.88 3.91L39.88 11.67L54.5 11.67C55.05 11.67 55.5 12.11 55.5 12.67ZM22.29 11.67L37.88 11.67L37.88 3.91C37.88 2.86 37.02 2 35.97 2L24.2 2C23.14 2 22.29 2.86 22.29 3.91L22.29 11.67ZM50.46 13.67L9.71 13.67L9.71 54.17C9.71 56.37 11.5 58.17 13.71 58.17L46.46 58.17C48.66 58.17 50.46 56.37 50.46 54.17L50.46 13.67ZM38.26 46.15L38.26 22.85C38.26 22.3 38.7 21.85 39.26 21.85C39.81 21.85 40.26 22.3 40.26 22.85L40.26 46.15C40.26 46.71 39.81 47.15 39.26 47.15C38.7 47.15 38.26 46.71 38.26 46.15ZM29.08 46.15L29.08 22.85C29.08 22.3 29.53 21.85 30.08 21.85C30.63 21.85 31.08 22.3 31.08 22.85L31.08 46.15C31.08 46.71 30.63 47.15 30.08 47.15C29.53 47.15 29.08 46.71 29.08 46.15ZM19.91 46.15L19.91 22.85C19.91 22.3 20.36 21.85 20.91 21.85C21.46 21.85 21.91 22.3 21.91 22.85L21.91 46.15C21.91 46.71 21.46 47.15 20.91 47.15C20.36 47.15 19.91 46.71 19.91 46.15Z" />
	<g id="Layer">
	</g>
	<g id="Layer">
	</g>
	<g id="Layer">
	</g>
	<g id="Layer">
	</g>
	<g id="Layer">
	</g>
	<g id="Layer">
	</g>
	<g id="Layer">
	</g>
	<g id="Layer">
	</g>
	<g id="Layer">
	</g>
	<g id="Layer">
	</g>
	<g id="Layer">
	</g>
	<g id="Layer">
	</g>
	<g id="Layer">
	</g>
	<g id="Layer">
	</g>
	<g id="Layer">
	</g>
</svg>