<svg xmlns="http://www.w3.org/2000/svg" xmlns:xlink="http://www.w3.org/1999/xlink" xmlns:lucid="lucid" width="760.45" height="800"><g transform="translate(-217.575 -160)" lucid:page-tab-id="0_0"><path d="M284.75 504.75c0 8.15-6.6 14.75-14.75 14.75s-14.75-6.6-14.75-14.75S261.85 490 270 490s14.75 6.6 14.75 14.75z" stroke="#000" stroke-width="2" fill="#fff"/><path d="M240 490h60v118h-60z" fill="none"/><path d="M270 519.5v41.3l30 47.2m-30-47.2L240 608m0-73.75h60" stroke="#000" stroke-width="2" fill="none"/><use xlink:href="#a" transform="matrix(1,0,0,1,160,608) translate(79.57499999999999 14.6)"/><use xlink:href="#b" transform="matrix(1,0,0,1,160,608) translate(124.475 14.6)"/><path d="M380 180h320v760H380z" stroke="#000" stroke-width="2" fill="none"/><use xlink:href="#c" transform="matrix(1,0,0,1,388,188) translate(37.296296296296305 21.333333333333336)"/><use xlink:href="#d" transform="matrix(1,0,0,1,388,188) translate(106.85185185185186 21.333333333333336)"/><use xlink:href="#e" transform="matrix(1,0,0,1,388,188) translate(136.4814814814815 21.333333333333336)"/><path d="M620 300c0 33.14-35.82 60-80 60s-80-26.86-80-60 35.82-60 80-60 80 26.86 80 60z" stroke="#000" stroke-width="2" fill="#fff"/><use xlink:href="#f" transform="matrix(1,0,0,1,460,240) translate(44.53 40.65)"/><use xlink:href="#g" transform="matrix(1,0,0,1,460,240) translate(18.57999999999999 62.25)"/><use xlink:href="#h" transform="matrix(1,0,0,1,460,240) translate(98.43 62.25)"/><use xlink:href="#i" transform="matrix(1,0,0,1,460,240) translate(45.55499999999999 83.85000000000001)"/><path d="M620 440c0 33.14-35.82 60-80 60s-80-26.86-80-60 35.82-60 80-60 80 26.86 80 60z" stroke="#000" stroke-width="2" fill="#fff"/><use xlink:href="#f" transform="matrix(1,0,0,1,460,380) translate(44.53 40.65)"/><use xlink:href="#j" transform="matrix(1,0,0,1,460,380) translate(22.054999999999993 62.25)"/><use xlink:href="#h" transform="matrix(1,0,0,1,460,380) translate(94.95500000000001 62.25)"/><use xlink:href="#i" transform="matrix(1,0,0,1,460,380) translate(45.55499999999999 83.85000000000001)"/><path d="M620 580c0 33.14-35.82 60-80 60s-80-26.86-80-60 35.82-60 80-60 80 26.86 80 60z" stroke="#000" stroke-width="2" fill="#fff"/><use xlink:href="#f" transform="matrix(1,0,0,1,460,520) translate(44.53 40.65)"/><use xlink:href="#k" transform="matrix(1,0,0,1,460,520) translate(44.029999999999994 62.25)"/><use xlink:href="#i" transform="matrix(1,0,0,1,460,520) translate(45.55499999999999 83.85000000000001)"/><path d="M620 720c0 33.14-35.82 60-80 60s-80-26.86-80-60 35.82-60 80-60 80 26.86 80 60z" stroke="#000" stroke-width="2" fill="#fff"/><use xlink:href="#f" transform="matrix(1,0,0,1,460,660) translate(44.529999999999994 27.41)"/><use xlink:href="#l" transform="matrix(1,0,0,1,460,660) translate(42.55499999999999 49.01)"/><use xlink:href="#m" transform="matrix(1,0,0,1,460,660) translate(19.604999999999997 70.61)"/><use xlink:href="#i" transform="matrix(1,0,0,1,460,660) translate(45.555 92.21000000000001)"/><path d="M620 860c0 33.14-35.82 60-80 60s-80-26.86-80-60 35.82-60 80-60 80 26.86 80 60z" stroke="#000" stroke-width="2" fill="#fff"/><use xlink:href="#n" transform="matrix(1,0,0,1,460,800) translate(31.804999999999996 36.9)"/><use xlink:href="#o" transform="matrix(1,0,0,1,460,800) translate(75.35499999999999 36.9)"/><use xlink:href="#p" transform="matrix(1,0,0,1,460,800) translate(14.579999999999993 58.5)"/><use xlink:href="#q" transform="matrix(1,0,0,1,460,800) translate(76.53 58.5)"/><use xlink:href="#r" transform="matrix(1,0,0,1,460,800) translate(25.580000000000002 80.10000000000001)"/><use xlink:href="#s" transform="matrix(1,0,0,1,460,800) translate(60.580000000000005 80.10000000000001)"/><use xlink:href="#t" transform="matrix(1,0,0,1,460,800) translate(100.47999999999999 80.10000000000001)"/><use xlink:href="#u" transform="matrix(1,0,0,1,460,800) translate(119.43 80.10000000000001)"/><use xlink:href="#v" transform="matrix(1,0,0,1,460,800) translate(47.029999999999994 101.70000000000002)"/><path d="M863.75 264.75c0 8.15-6.6 14.75-14.75 14.75s-14.75-6.6-14.75-14.75S840.85 250 849 250s14.75 6.6 14.75 14.75z" stroke="#000" stroke-width="2" fill="#fff"/><path d="M819 250h60v118h-60z" fill="none"/><path d="M849 279.5v41.3l30 47.2m-30-47.2L819 368m0-73.75h60" stroke="#000" stroke-width="2" fill="none"/><use xlink:href="#w" transform="matrix(1,0,0,1,738.9999914200644,368) translate(8.149999999999991 14.6)"/><use xlink:href="#x" transform="matrix(1,0,0,1,738.9999914200644,368) translate(90.95 14.6)"/><use xlink:href="#y" transform="matrix(1,0,0,1,738.9999914200644,368) translate(140.95 14.6)"/><path d="M863.75 424.75c0 8.15-6.6 14.75-14.75 14.75s-14.75-6.6-14.75-14.75S840.85 410 849 410s14.75 6.6 14.75 14.75z" stroke="#000" stroke-width="2" fill="#fff"/><path d="M819 410h60v118h-60z" fill="none"/><path d="M849 439.5v41.3l30 47.2m-30-47.2L819 528m0-73.75h60" stroke="#000" stroke-width="2" fill="none"/><use xlink:href="#z" transform="matrix(1,0,0,1,738.9999914200644,528) translate(11.599999999999994 14.6)"/><use xlink:href="#x" transform="matrix(1,0,0,1,738.9999914200644,528) translate(87.5 14.6)"/><use xlink:href="#y" transform="matrix(1,0,0,1,738.9999914200644,528) translate(137.5 14.6)"/><path d="M622.82 300H720v20h98" fill="none"/><path d="M622.82 300h10.24m10.25 0h20.5m10.25 0h20.5m10.24 0H720v5.3m0 10.23V320h16.03m10.24 0h20.5m10.24 0h20.5m10.25 0H818M640.18 289.82L622.96 300l17.22 10.18" stroke="#000" stroke-width="2" fill="none"/><path d="M822 321h-4.03v-2H822z"/><path d="M622.82 440H720v40h98" fill="none"/><path d="M622.82 440h9.8m9.8 0h19.6m9.8 0h19.6m9.8 0H720v.8m0 9.8v19.6m0 9.8h19.6m9.8 0H769m9.8 0h19.6m9.8 0h9.8M640.18 429.82L622.96 440l17.22 10.18" stroke="#000" stroke-width="2" fill="none"/><path d="M822 481h-4.03v-2H822z"/><path d="M863.75 584.75c0 8.15-6.6 14.75-14.75 14.75s-14.75-6.6-14.75-14.75S840.85 570 849 570s14.75 6.6 14.75 14.75z" stroke="#000" stroke-width="2" fill="#fff"/><path d="M819 570h60v118h-60z" fill="none"/><path d="M849 599.5v41.3l30 47.2m-30-47.2L819 688m0-73.75h60" stroke="#000" stroke-width="2" fill="none"/><g><use xlink:href="#A" transform="matrix(1,0,0,1,738.9999914200644,688) translate(72.55 14.6)"/></g><path d="M622.82 580H720v60h98" fill="none"/><path d="M622.82 580h9.45m9.45 0h18.9m9.45 0h18.9m9.46 0h18.9m2.67 6.78v18.9m0 9.45v18.9m3.5 5.97h18.9m9.44 0h18.9m9.46 0h18.9m9.45 0H818M640.18 569.82L622.96 580l17.22 10.18" stroke="#000" stroke-width="2" fill="none"/><path d="M822 641h-4.03v-2H822z"/><path d="M863.75 744.75c0 8.15-6.6 14.75-14.75 14.75s-14.75-6.6-14.75-14.75S840.85 730 849 730s14.75 6.6 14.75 14.75z" stroke="#000" stroke-width="2" fill="#fff"/><path d="M819 730h60v118h-60z" fill="none"/><path d="M849 759.5v41.3l30 47.2m-30-47.2L819 848m0-73.75h60" stroke="#000" stroke-width="2" fill="none"/><g><use xlink:href="#B" transform="matrix(1,0,0,1,738.9999914200644,848) translate(3.174999999999983 14.4)"/><use xlink:href="#C" transform="matrix(1,0,0,1,738.9999914200644,848) translate(87.02499999999999 14.4)"/><use xlink:href="#D" transform="matrix(1,0,0,1,738.9999914200644,848) translate(85.05 36)"/></g><path d="M622.82 720H720v80h98" fill="none"/><path d="M622.82 720h10.2m10.18 0h20.4m10.18 0h20.38m10.2 0H720v4.74m0 10.2v20.37m0 10.2v20.4m0 10.18V800h16.46m10.2 0h20.38m10.2 0h20.38m10.2 0H818M640.18 709.82L622.96 720l17.22 10.18" stroke="#000" stroke-width="2" fill="none"/><path d="M822 801h-4.03v-2H822z"/><path d="M457.18 860H360V560h-88" fill="none"/><path d="M457.18 860h-10.1m-10.1 0h-20.23m-10.1 0h-20.22m-10.1 0H360v-3.9m0-10.1v-20.22m0-10.1v-20.23m0-10.1v-20.22m0-10.1V734.8m0-10.1v-20.22m0-10.1v-20.22m0-10.1v-20.22m0-10.1V613.5m0-10.1v-20.2m0-10.12V560h-7.14m-10.1 0h-20.22m-10.1 0H292.2m-10.1 0H272M439.82 870.18L457.04 860l-17.22-10.18M272.03 560H268" stroke="#000" stroke-width="2" fill="none"/><defs><path d="M212-179c-10-28-35-45-73-45-59 0-87 40-87 99 0 60 29 101 89 101 43 0 62-24 78-52l27 14C228-24 195 4 139 4 59 4 22-46 18-125c-6-104 99-153 187-111 19 9 31 26 39 46" id="E"/><path d="M185-189c-5-48-123-54-124 2 14 75 158 14 163 119 3 78-121 87-175 55-17-10-28-26-33-46l33-7c5 56 141 63 141-1 0-78-155-14-162-118-5-82 145-84 179-34 5 7 8 16 11 25" id="F"/><path d="M240 0l2-218c-23 76-54 145-80 218h-23L58-218 59 0H30v-248h44l77 211c21-75 51-140 76-211h43V0h-30" id="G"/><g id="a"><use transform="matrix(0.05,0,0,0.05,0,0)" xlink:href="#E"/><use transform="matrix(0.05,0,0,0.05,12.950000000000001,0)" xlink:href="#F"/><use transform="matrix(0.05,0,0,0.05,24.950000000000003,0)" xlink:href="#G"/></g><path d="M33 0v-248h34V0H33" id="H"/><path d="M127-220V0H93v-220H8v-28h204v28h-85" id="I"/><g id="b"><use transform="matrix(0.05,0,0,0.05,0,0)" xlink:href="#H"/><use transform="matrix(0.05,0,0,0.05,5,0)" xlink:href="#I"/></g><path d="M59-47c-2 24 18 29 38 22v24C64 9 27 4 27-40v-127H5v-23h24l9-43h21v43h35v23H59v120" id="J"/><path d="M100-194c62-1 85 37 85 99 1 63-27 99-86 99S16-35 15-95c0-66 28-99 85-99zM99-20c44 1 53-31 53-75 0-43-8-75-51-75s-53 32-53 75 10 74 51 75" id="K"/><path d="M114-163C36-179 61-72 57 0H25l-1-190h30c1 12-1 29 2 39 6-27 23-49 58-41v29" id="L"/><path d="M179-190L93 31C79 59 56 82 12 73V49c39 6 53-20 64-50L1-190h34L92-34l54-156h33" id="M"/><g id="c"><use transform="matrix(0.07407407407407408,0,0,0.07407407407407408,0,0)" xlink:href="#F"/><use transform="matrix(0.07407407407407408,0,0,0.07407407407407408,17.77777777777778,0)" xlink:href="#J"/><use transform="matrix(0.07407407407407408,0,0,0.07407407407407408,25.185185185185187,0)" xlink:href="#K"/><use transform="matrix(0.07407407407407408,0,0,0.07407407407407408,40,0)" xlink:href="#L"/><use transform="matrix(0.07407407407407408,0,0,0.07407407407407408,48.81481481481481,0)" xlink:href="#M"/></g><path d="M27 0v-27h64v-190l-56 39v-29l58-41h29v221h61V0H27" id="N"/><path d="M33-154v-36h34v36H33zM33 0v-36h34V0H33" id="O"/><g id="d"><use transform="matrix(0.07407407407407408,0,0,0.07407407407407408,0,0)" xlink:href="#N"/><use transform="matrix(0.07407407407407408,0,0,0.07407407407407408,14.814814814814817,0)" xlink:href="#O"/></g><path d="M30-248c118-7 216 8 213 122C240-48 200 0 122 0H30v-248zM63-27c89 8 146-16 146-99s-60-101-146-95v194" id="P"/><path d="M141-36C126-15 110 5 73 4 37 3 15-17 15-53c-1-64 63-63 125-63 3-35-9-54-41-54-24 1-41 7-42 31l-33-3c5-37 33-52 76-52 45 0 72 20 72 64v82c-1 20 7 32 28 27v20c-31 9-61-2-59-35zM48-53c0 20 12 33 32 33 41-3 63-29 60-74-43 2-92-5-92 41" id="Q"/><path d="M135-143c-3-34-86-38-87 0 15 53 115 12 119 90S17 21 10-45l28-5c4 36 97 45 98 0-10-56-113-15-118-90-4-57 82-63 122-42 12 7 21 19 24 35" id="R"/><path d="M106-169C34-169 62-67 57 0H25v-261h32l-1 103c12-21 28-36 61-36 89 0 53 116 60 194h-32v-121c2-32-8-49-39-48" id="S"/><path d="M115-194c53 0 69 39 70 98 0 66-23 100-70 100C84 3 66-7 56-30L54 0H23l1-261h32v101c10-23 28-34 59-34zm-8 174c40 0 45-34 45-75 0-40-5-75-45-74-42 0-51 32-51 76 0 43 10 73 51 73" id="T"/><path d="M85-194c31 0 48 13 60 33l-1-100h32l1 261h-30c-2-10 0-23-3-31C134-8 116 4 85 4 32 4 16-35 15-94c0-66 23-100 70-100zm9 24c-40 0-46 34-46 75 0 40 6 74 45 74 42 0 51-32 51-76 0-42-9-74-50-73" id="U"/><g id="e"><use transform="matrix(0.07407407407407408,0,0,0.07407407407407408,0,0)" xlink:href="#P"/><use transform="matrix(0.07407407407407408,0,0,0.07407407407407408,19.185185185185187,0)" xlink:href="#Q"/><use transform="matrix(0.07407407407407408,0,0,0.07407407407407408,34,0)" xlink:href="#R"/><use transform="matrix(0.07407407407407408,0,0,0.07407407407407408,47.33333333333334,0)" xlink:href="#S"/><use transform="matrix(0.07407407407407408,0,0,0.07407407407407408,62.14814814814816,0)" xlink:href="#T"/><use transform="matrix(0.07407407407407408,0,0,0.07407407407407408,76.96296296296296,0)" xlink:href="#K"/><use transform="matrix(0.07407407407407408,0,0,0.07407407407407408,91.77777777777777,0)" xlink:href="#Q"/><use transform="matrix(0.07407407407407408,0,0,0.07407407407407408,106.59259259259257,0)" xlink:href="#L"/><use transform="matrix(0.07407407407407408,0,0,0.07407407407407408,115.40740740740739,0)" xlink:href="#U"/></g><path d="M30-248c87 1 191-15 191 75 0 78-77 80-158 76V0H30v-248zm33 125c57 0 124 11 124-50 0-59-68-47-124-48v98" id="V"/><path d="M115-194c55 1 70 41 70 98S169 2 115 4C84 4 66-9 55-30l1 105H24l-1-265h31l2 30c10-21 28-34 59-34zm-8 174c40 0 45-34 45-75s-6-73-45-74c-42 0-51 32-51 76 0 43 10 73 51 73" id="W"/><path d="M84 4C-5 8 30-112 23-190h32v120c0 31 7 50 39 49 72-2 45-101 50-169h31l1 190h-30c-1-10 1-25-2-33-11 22-28 36-60 37" id="X"/><path d="M24 0v-261h32V0H24" id="Y"/><path d="M100-194c63 0 86 42 84 106H49c0 40 14 67 53 68 26 1 43-12 49-29l28 8c-11 28-37 45-77 45C44 4 14-33 15-96c1-61 26-98 85-98zm52 81c6-60-76-77-97-28-3 7-6 17-6 28h103" id="Z"/><g id="f"><use transform="matrix(0.05,0,0,0.05,0,0)" xlink:href="#V"/><use transform="matrix(0.05,0,0,0.05,12,0)" xlink:href="#K"/><use transform="matrix(0.05,0,0,0.05,22,0)" xlink:href="#W"/><use transform="matrix(0.05,0,0,0.05,32,0)" xlink:href="#X"/><use transform="matrix(0.05,0,0,0.05,42,0)" xlink:href="#Y"/><use transform="matrix(0.05,0,0,0.05,45.95,0)" xlink:href="#Q"/><use transform="matrix(0.05,0,0,0.05,55.95,0)" xlink:href="#J"/><use transform="matrix(0.05,0,0,0.05,60.95,0)" xlink:href="#Z"/></g><path d="M206 0h-36l-40-164L89 0H53L-1-190h32L70-26l43-164h34l41 164 42-164h31" id="aa"/><g id="g"><use transform="matrix(0.05,0,0,0.05,0,0)" xlink:href="#S"/><use transform="matrix(0.05,0,0,0.05,10,0)" xlink:href="#Q"/><use transform="matrix(0.05,0,0,0.05,20,0)" xlink:href="#L"/><use transform="matrix(0.05,0,0,0.05,25.950000000000003,0)" xlink:href="#U"/><use transform="matrix(0.05,0,0,0.05,35.95,0)" xlink:href="#aa"/><use transform="matrix(0.05,0,0,0.05,48.900000000000006,0)" xlink:href="#Q"/><use transform="matrix(0.05,0,0,0.05,58.900000000000006,0)" xlink:href="#L"/><use transform="matrix(0.05,0,0,0.05,64.85000000000001,0)" xlink:href="#Z"/></g><g id="h"><use transform="matrix(0.05,0,0,0.05,0,0)" xlink:href="#Q"/><use transform="matrix(0.05,0,0,0.05,10,0)" xlink:href="#R"/><use transform="matrix(0.05,0,0,0.05,19,0)" xlink:href="#R"/><use transform="matrix(0.05,0,0,0.05,28,0)" xlink:href="#Z"/><use transform="matrix(0.05,0,0,0.05,38,0)" xlink:href="#J"/></g><path d="M24-231v-30h32v30H24zM24 0v-190h32V0H24" id="ab"/><path d="M96-169c-40 0-48 33-48 73s9 75 48 75c24 0 41-14 43-38l32 2c-6 37-31 61-74 61-59 0-76-41-82-99-10-93 101-131 147-64 4 7 5 14 7 22l-32 3c-4-21-16-35-41-35" id="ac"/><g id="i"><use transform="matrix(0.05,0,0,0.05,0,0)" xlink:href="#R"/><use transform="matrix(0.05,0,0,0.05,9,0)" xlink:href="#J"/><use transform="matrix(0.05,0,0,0.05,14,0)" xlink:href="#Q"/><use transform="matrix(0.05,0,0,0.05,24,0)" xlink:href="#J"/><use transform="matrix(0.05,0,0,0.05,29,0)" xlink:href="#ab"/><use transform="matrix(0.05,0,0,0.05,32.95,0)" xlink:href="#R"/><use transform="matrix(0.05,0,0,0.05,41.95,0)" xlink:href="#J"/><use transform="matrix(0.05,0,0,0.05,46.95,0)" xlink:href="#ab"/><use transform="matrix(0.05,0,0,0.05,50.900000000000006,0)" xlink:href="#ac"/><use transform="matrix(0.05,0,0,0.05,59.900000000000006,0)" xlink:href="#R"/></g><path d="M101-234c-31-9-42 10-38 44h38v23H63V0H32v-167H5v-23h27c-7-52 17-82 69-68v24" id="ad"/><g id="j"><use transform="matrix(0.05,0,0,0.05,0,0)" xlink:href="#R"/><use transform="matrix(0.05,0,0,0.05,9,0)" xlink:href="#K"/><use transform="matrix(0.05,0,0,0.05,19,0)" xlink:href="#ad"/><use transform="matrix(0.05,0,0,0.05,24,0)" xlink:href="#J"/><use transform="matrix(0.05,0,0,0.05,29,0)" xlink:href="#aa"/><use transform="matrix(0.05,0,0,0.05,41.95,0)" xlink:href="#Q"/><use transform="matrix(0.05,0,0,0.05,51.95,0)" xlink:href="#L"/><use transform="matrix(0.05,0,0,0.05,57.900000000000006,0)" xlink:href="#Z"/></g><path d="M143 0L79-87 56-68V0H24v-261h32v163l83-92h37l-77 82L181 0h-38" id="ae"/><g id="k"><use transform="matrix(0.05,0,0,0.05,0,0)" xlink:href="#S"/><use transform="matrix(0.05,0,0,0.05,10,0)" xlink:href="#Z"/><use transform="matrix(0.05,0,0,0.05,20,0)" xlink:href="#Y"/><use transform="matrix(0.05,0,0,0.05,23.95,0)" xlink:href="#W"/><use transform="matrix(0.05,0,0,0.05,33.95,0)" xlink:href="#U"/><use transform="matrix(0.05,0,0,0.05,43.95,0)" xlink:href="#Z"/><use transform="matrix(0.05,0,0,0.05,53.95,0)" xlink:href="#R"/><use transform="matrix(0.05,0,0,0.05,62.95,0)" xlink:href="#ae"/></g><path d="M210-169c-67 3-38 105-44 169h-31v-121c0-29-5-50-35-48C34-165 62-65 56 0H25l-1-190h30c1 10-1 24 2 32 10-44 99-50 107 0 11-21 27-35 58-36 85-2 47 119 55 194h-31v-121c0-29-5-49-35-48" id="af"/><g id="l"><use transform="matrix(0.05,0,0,0.05,0,0)" xlink:href="#ac"/><use transform="matrix(0.05,0,0,0.05,9,0)" xlink:href="#K"/><use transform="matrix(0.05,0,0,0.05,19,0)" xlink:href="#af"/><use transform="matrix(0.05,0,0,0.05,33.95,0)" xlink:href="#W"/><use transform="matrix(0.05,0,0,0.05,43.95,0)" xlink:href="#X"/><use transform="matrix(0.05,0,0,0.05,53.95,0)" xlink:href="#J"/><use transform="matrix(0.05,0,0,0.05,58.95,0)" xlink:href="#Z"/><use transform="matrix(0.05,0,0,0.05,68.95,0)" xlink:href="#L"/></g><path d="M117-194c89-4 53 116 60 194h-32v-121c0-31-8-49-39-48C34-167 62-67 57 0H25l-1-190h30c1 10-1 24 2 32 11-22 29-35 61-36" id="ag"/><g id="m"><use transform="matrix(0.05,0,0,0.05,0,0)" xlink:href="#ac"/><use transform="matrix(0.05,0,0,0.05,9,0)" xlink:href="#K"/><use transform="matrix(0.05,0,0,0.05,19,0)" xlink:href="#af"/><use transform="matrix(0.05,0,0,0.05,33.95,0)" xlink:href="#af"/><use transform="matrix(0.05,0,0,0.05,48.900000000000006,0)" xlink:href="#X"/><use transform="matrix(0.05,0,0,0.05,58.900000000000006,0)" xlink:href="#ag"/><use transform="matrix(0.05,0,0,0.05,68.9,0)" xlink:href="#ab"/><use transform="matrix(0.05,0,0,0.05,72.85000000000001,0)" xlink:href="#ac"/><use transform="matrix(0.05,0,0,0.05,81.85000000000001,0)" xlink:href="#Q"/><use transform="matrix(0.05,0,0,0.05,91.85000000000001,0)" xlink:href="#J"/><use transform="matrix(0.05,0,0,0.05,96.85000000000001,0)" xlink:href="#ab"/><use transform="matrix(0.05,0,0,0.05,100.80000000000001,0)" xlink:href="#K"/><use transform="matrix(0.05,0,0,0.05,110.80000000000001,0)" xlink:href="#ag"/></g><path d="M137 0h-34L2-248h35l83 218 83-218h36" id="ah"/><g id="n"><use transform="matrix(0.05,0,0,0.05,0,0)" xlink:href="#ah"/><use transform="matrix(0.05,0,0,0.05,11.65,0)" xlink:href="#ab"/><use transform="matrix(0.05,0,0,0.05,15.600000000000001,0)" xlink:href="#Z"/><use transform="matrix(0.05,0,0,0.05,25.6,0)" xlink:href="#aa"/></g><path d="M108 0H70L1-190h34L89-25l56-165h34" id="ai"/><g id="o"><use transform="matrix(0.05,0,0,0.05,0,0)" xlink:href="#K"/><use transform="matrix(0.05,0,0,0.05,10,0)" xlink:href="#ai"/><use transform="matrix(0.05,0,0,0.05,19,0)" xlink:href="#Z"/><use transform="matrix(0.05,0,0,0.05,29,0)" xlink:href="#L"/><use transform="matrix(0.05,0,0,0.05,34.95,0)" xlink:href="#Q"/><use transform="matrix(0.05,0,0,0.05,44.95,0)" xlink:href="#Y"/><use transform="matrix(0.05,0,0,0.05,48.900000000000006,0)" xlink:href="#Y"/></g><g id="p"><use transform="matrix(0.05,0,0,0.05,0,0)" xlink:href="#R"/><use transform="matrix(0.05,0,0,0.05,9,0)" xlink:href="#M"/><use transform="matrix(0.05,0,0,0.05,18,0)" xlink:href="#R"/><use transform="matrix(0.05,0,0,0.05,27,0)" xlink:href="#J"/><use transform="matrix(0.05,0,0,0.05,32,0)" xlink:href="#Z"/><use transform="matrix(0.05,0,0,0.05,42,0)" xlink:href="#af"/></g><g id="q"><use transform="matrix(0.05,0,0,0.05,0,0)" xlink:href="#R"/><use transform="matrix(0.05,0,0,0.05,9,0)" xlink:href="#J"/><use transform="matrix(0.05,0,0,0.05,14,0)" xlink:href="#Q"/><use transform="matrix(0.05,0,0,0.05,24,0)" xlink:href="#J"/><use transform="matrix(0.05,0,0,0.05,29,0)" xlink:href="#ab"/><use transform="matrix(0.05,0,0,0.05,32.95,0)" xlink:href="#R"/><use transform="matrix(0.05,0,0,0.05,41.95,0)" xlink:href="#J"/><use transform="matrix(0.05,0,0,0.05,46.95,0)" xlink:href="#ab"/><use transform="matrix(0.05,0,0,0.05,50.900000000000006,0)" xlink:href="#ac"/><use transform="matrix(0.05,0,0,0.05,59.900000000000006,0)" xlink:href="#R"/></g><g id="r"><use transform="matrix(0.05,0,0,0.05,0,0)" xlink:href="#Q"/><use transform="matrix(0.05,0,0,0.05,10,0)" xlink:href="#ag"/><use transform="matrix(0.05,0,0,0.05,20,0)" xlink:href="#U"/></g><g id="s"><use transform="matrix(0.05,0,0,0.05,0,0)" xlink:href="#ac"/><use transform="matrix(0.05,0,0,0.05,9,0)" xlink:href="#Y"/><use transform="matrix(0.05,0,0,0.05,12.949999999999998,0)" xlink:href="#ab"/><use transform="matrix(0.05,0,0,0.05,16.9,0)" xlink:href="#ac"/><use transform="matrix(0.05,0,0,0.05,25.899999999999995,0)" xlink:href="#ae"/></g><g id="t"><use transform="matrix(0.05,0,0,0.05,0,0)" xlink:href="#ab"/><use transform="matrix(0.05,0,0,0.05,3.95,0)" xlink:href="#ag"/></g><g id="u"><use transform="matrix(0.05,0,0,0.05,0,0)" xlink:href="#J"/><use transform="matrix(0.05,0,0,0.05,5,0)" xlink:href="#K"/></g><g id="v"><use transform="matrix(0.05,0,0,0.05,0,0)" xlink:href="#R"/><use transform="matrix(0.05,0,0,0.05,9,0)" xlink:href="#M"/><use transform="matrix(0.05,0,0,0.05,18,0)" xlink:href="#R"/><use transform="matrix(0.05,0,0,0.05,27,0)" xlink:href="#J"/><use transform="matrix(0.05,0,0,0.05,32,0)" xlink:href="#Z"/><use transform="matrix(0.05,0,0,0.05,42,0)" xlink:href="#af"/><use transform="matrix(0.05,0,0,0.05,56.95,0)" xlink:href="#R"/></g><path d="M197 0v-115H63V0H30v-248h33v105h134v-105h34V0h-34" id="aj"/><g id="w"><use transform="matrix(0.05,0,0,0.05,0,0)" xlink:href="#aj"/><use transform="matrix(0.05,0,0,0.05,12.950000000000001,0)" xlink:href="#Q"/><use transform="matrix(0.05,0,0,0.05,22.950000000000003,0)" xlink:href="#L"/><use transform="matrix(0.05,0,0,0.05,28.900000000000002,0)" xlink:href="#U"/><use transform="matrix(0.05,0,0,0.05,38.900000000000006,0)" xlink:href="#aa"/><use transform="matrix(0.05,0,0,0.05,51.85,0)" xlink:href="#Q"/><use transform="matrix(0.05,0,0,0.05,61.85,0)" xlink:href="#L"/><use transform="matrix(0.05,0,0,0.05,67.80000000000001,0)" xlink:href="#Z"/></g><path d="M205 0l-28-72H64L36 0H1l101-248h38L239 0h-34zm-38-99l-47-123c-12 45-31 82-46 123h93" id="ak"/><g id="x"><use transform="matrix(0.05,0,0,0.05,0,0)" xlink:href="#ak"/><use transform="matrix(0.05,0,0,0.05,12,0)" xlink:href="#R"/><use transform="matrix(0.05,0,0,0.05,21,0)" xlink:href="#R"/><use transform="matrix(0.05,0,0,0.05,30,0)" xlink:href="#Z"/><use transform="matrix(0.05,0,0,0.05,40,0)" xlink:href="#J"/></g><path d="M177-190C167-65 218 103 67 71c-23-6-38-20-44-43l32-5c15 47 100 32 89-28v-30C133-14 115 1 83 1 29 1 15-40 15-95c0-56 16-97 71-98 29-1 48 16 59 35 1-10 0-23 2-32h30zM94-22c36 0 50-32 50-73 0-42-14-75-50-75-39 0-46 34-46 75s6 73 46 73" id="al"/><g id="y"><use transform="matrix(0.05,0,0,0.05,0,0)" xlink:href="#G"/><use transform="matrix(0.05,0,0,0.05,14.950000000000001,0)" xlink:href="#Q"/><use transform="matrix(0.05,0,0,0.05,24.950000000000003,0)" xlink:href="#ag"/><use transform="matrix(0.05,0,0,0.05,34.95,0)" xlink:href="#Q"/><use transform="matrix(0.05,0,0,0.05,44.95,0)" xlink:href="#al"/><use transform="matrix(0.05,0,0,0.05,54.95,0)" xlink:href="#Z"/><use transform="matrix(0.05,0,0,0.05,64.95,0)" xlink:href="#L"/></g><g id="z"><use transform="matrix(0.05,0,0,0.05,0,0)" xlink:href="#F"/><use transform="matrix(0.05,0,0,0.05,12,0)" xlink:href="#K"/><use transform="matrix(0.05,0,0,0.05,22,0)" xlink:href="#ad"/><use transform="matrix(0.05,0,0,0.05,27,0)" xlink:href="#J"/><use transform="matrix(0.05,0,0,0.05,32,0)" xlink:href="#aa"/><use transform="matrix(0.05,0,0,0.05,44.95,0)" xlink:href="#Q"/><use transform="matrix(0.05,0,0,0.05,54.95,0)" xlink:href="#L"/><use transform="matrix(0.05,0,0,0.05,60.900000000000006,0)" xlink:href="#Z"/></g><g id="A"><use transform="matrix(0.05,0,0,0.05,0,0)" xlink:href="#aj"/><use transform="matrix(0.05,0,0,0.05,12.950000000000001,0)" xlink:href="#Z"/><use transform="matrix(0.05,0,0,0.05,22.950000000000003,0)" xlink:href="#Y"/><use transform="matrix(0.05,0,0,0.05,26.900000000000002,0)" xlink:href="#W"/><use transform="matrix(0.05,0,0,0.05,36.900000000000006,0)" xlink:href="#U"/><use transform="matrix(0.05,0,0,0.05,46.900000000000006,0)" xlink:href="#Z"/><use transform="matrix(0.05,0,0,0.05,56.900000000000006,0)" xlink:href="#R"/><use transform="matrix(0.05,0,0,0.05,65.9,0)" xlink:href="#ae"/></g><g id="B"><use transform="matrix(0.05,0,0,0.05,0,0)" xlink:href="#E"/><use transform="matrix(0.05,0,0,0.05,12.950000000000001,0)" xlink:href="#K"/><use transform="matrix(0.05,0,0,0.05,22.950000000000003,0)" xlink:href="#af"/><use transform="matrix(0.05,0,0,0.05,37.900000000000006,0)" xlink:href="#W"/><use transform="matrix(0.05,0,0,0.05,47.900000000000006,0)" xlink:href="#X"/><use transform="matrix(0.05,0,0,0.05,57.900000000000006,0)" xlink:href="#J"/><use transform="matrix(0.05,0,0,0.05,62.900000000000006,0)" xlink:href="#Z"/><use transform="matrix(0.05,0,0,0.05,72.9,0)" xlink:href="#L"/></g><g id="C"><use transform="matrix(0.05,0,0,0.05,0,0)" xlink:href="#ac"/><use transform="matrix(0.05,0,0,0.05,9,0)" xlink:href="#K"/><use transform="matrix(0.05,0,0,0.05,19,0)" xlink:href="#af"/><use transform="matrix(0.05,0,0,0.05,33.95,0)" xlink:href="#af"/><use transform="matrix(0.05,0,0,0.05,48.900000000000006,0)" xlink:href="#X"/><use transform="matrix(0.05,0,0,0.05,58.900000000000006,0)" xlink:href="#ag"/><use transform="matrix(0.05,0,0,0.05,68.9,0)" xlink:href="#ab"/><use transform="matrix(0.05,0,0,0.05,72.85000000000001,0)" xlink:href="#ac"/><use transform="matrix(0.05,0,0,0.05,81.85000000000001,0)" xlink:href="#Q"/><use transform="matrix(0.05,0,0,0.05,91.85000000000001,0)" xlink:href="#J"/><use transform="matrix(0.05,0,0,0.05,96.85000000000001,0)" xlink:href="#ab"/><use transform="matrix(0.05,0,0,0.05,100.80000000000001,0)" xlink:href="#K"/><use transform="matrix(0.05,0,0,0.05,110.80000000000001,0)" xlink:href="#ag"/><use transform="matrix(0.05,0,0,0.05,120.80000000000001,0)" xlink:href="#R"/></g><g id="D"><use transform="matrix(0.05,0,0,0.05,0,0)" xlink:href="#R"/><use transform="matrix(0.05,0,0,0.05,9,0)" xlink:href="#Z"/><use transform="matrix(0.05,0,0,0.05,19,0)" xlink:href="#L"/><use transform="matrix(0.05,0,0,0.05,24.95,0)" xlink:href="#ai"/><use transform="matrix(0.05,0,0,0.05,33.95,0)" xlink:href="#Z"/><use transform="matrix(0.05,0,0,0.05,43.95,0)" xlink:href="#L"/></g></defs></g></svg>