<svg xmlns="http://www.w3.org/2000/svg" xmlns:xlink="http://www.w3.org/1999/xlink" xmlns:lucid="lucid" width="502.43" height="820"><g transform="translate(-217.575 -140)" lucid:page-tab-id="0_0"><path d="M284.75 504.75c0 8.15-6.6 14.75-14.75 14.75s-14.75-6.6-14.75-14.75S261.85 490 270 490s14.75 6.6 14.75 14.75z" stroke="#000" stroke-width="2" fill="#fff"/><path d="M240 490h60v118h-60z" fill="none"/><path d="M270 519.5v41.3l30 47.2m-30-47.2L240 608m0-73.75h60" stroke="#000" stroke-width="2" fill="none"/><use xlink:href="#a" transform="matrix(1,0,0,1,160,608) translate(79.57499999999999 14.6)"/><use xlink:href="#b" transform="matrix(1,0,0,1,160,608) translate(124.475 14.6)"/><path d="M380 160h320v780H380z" stroke="#000" stroke-width="2" fill="none"/><use xlink:href="#c" transform="matrix(1,0,0,1,388,168) translate(43.96296296296296 21.333333333333336)"/><use xlink:href="#d" transform="matrix(1,0,0,1,388,168) translate(113.51851851851852 21.333333333333336)"/><use xlink:href="#e" transform="matrix(1,0,0,1,388,168) translate(143.14814814814815 21.333333333333336)"/><use xlink:href="#f" transform="matrix(1,0,0,1,388,168) translate(99.48148148148148 53.333333333333336)"/><path d="M640 300c0 33.14-44.77 60-100 60s-100-26.86-100-60 44.77-60 100-60 100 26.86 100 60z" stroke="#000" stroke-width="2" fill="#fff"/><use xlink:href="#g" transform="matrix(1,0,0,1,440,240) translate(73.055 23.41)"/><use xlink:href="#h" transform="matrix(1,0,0,1,440,240) translate(31.579999999999995 45.01)"/><use xlink:href="#i" transform="matrix(1,0,0,1,440,240) translate(118.48 45.01)"/><use xlink:href="#j" transform="matrix(1,0,0,1,440,240) translate(14.104999999999999 66.61)"/><use xlink:href="#k" transform="matrix(1,0,0,1,440,240) translate(104.00500000000001 66.61)"/><use xlink:href="#l" transform="matrix(1,0,0,1,440,240) translate(42.555 88.21000000000001)"/><use xlink:href="#m" transform="matrix(1,0,0,1,440,240) translate(113.455 88.21000000000001)"/><path d="M640 440c0 33.14-44.77 60-100 60s-100-26.86-100-60 44.77-60 100-60 100 26.86 100 60z" stroke="#000" stroke-width="2" fill="#fff"/><use xlink:href="#n" transform="matrix(1,0,0,1,440,380) translate(45.755 33.15)"/><use xlink:href="#o" transform="matrix(1,0,0,1,440,380) translate(89.305 33.15)"/><use xlink:href="#p" transform="matrix(1,0,0,1,440,380) translate(104.305 33.15)"/><use xlink:href="#q" transform="matrix(1,0,0,1,440,380) translate(32.57999999999999 54.75)"/><use xlink:href="#r" transform="matrix(1,0,0,1,440,380) translate(114.48 54.75)"/><use xlink:href="#s" transform="matrix(1,0,0,1,440,380) translate(149.48000000000002 54.75)"/><use xlink:href="#t" transform="matrix(1,0,0,1,440,380) translate(28.130000000000006 76.35000000000001)"/><use xlink:href="#p" transform="matrix(1,0,0,1,440,380) translate(121.93 76.35000000000001)"/><use xlink:href="#u" transform="matrix(1,0,0,1,440,380) translate(52.07999999999999 97.95000000000002)"/><use xlink:href="#v" transform="matrix(1,0,0,1,440,380) translate(101.03 97.95000000000002)"/><use xlink:href="#w" transform="matrix(1,0,0,1,440,380) translate(138.98000000000002 97.95000000000002)"/><path d="M640 580c0 33.14-44.77 60-100 60s-100-26.86-100-60 44.77-60 100-60 100 26.86 100 60z" stroke="#000" stroke-width="2" fill="#fff"/><use xlink:href="#x" transform="matrix(1,0,0,1,440,520) translate(39.08 40.65)"/><use xlink:href="#y" transform="matrix(1,0,0,1,440,520) translate(75.03 40.65)"/><use xlink:href="#z" transform="matrix(1,0,0,1,440,520) translate(100.03 40.65)"/><use xlink:href="#A" transform="matrix(1,0,0,1,440,520) translate(16.57999999999999 62.25)"/><use xlink:href="#q" transform="matrix(1,0,0,1,440,520) translate(71.53 62.25)"/><use xlink:href="#B" transform="matrix(1,0,0,1,440,520) translate(153.43 62.25)"/><use xlink:href="#C" transform="matrix(1,0,0,1,440,520) translate(44.13000000000001 83.85000000000001)"/><use xlink:href="#D" transform="matrix(1,0,0,1,440,520) translate(67.08000000000001 83.85000000000001)"/><path d="M640 720c0 33.14-44.77 60-100 60s-100-26.86-100-60 44.77-60 100-60 100 26.86 100 60z" stroke="#000" stroke-width="2" fill="#fff"/><g><use xlink:href="#E" transform="matrix(1,0,0,1,440,660) translate(58.55499999999999 40.65)"/><use xlink:href="#F" transform="matrix(1,0,0,1,440,660) translate(120.505 40.65)"/><use xlink:href="#G" transform="matrix(1,0,0,1,440,660) translate(32.105 62.25)"/><use xlink:href="#p" transform="matrix(1,0,0,1,440,660) translate(117.95500000000001 62.25)"/><use xlink:href="#H" transform="matrix(1,0,0,1,440,660) translate(57.05499999999999 83.85000000000001)"/></g><path d="M640 860c0 33.14-44.77 60-100 60s-100-26.86-100-60 44.77-60 100-60 100 26.86 100 60z" stroke="#000" stroke-width="2" fill="#fff"/><g><use xlink:href="#I" transform="matrix(1,0,0,1,440,800) translate(41.105000000000004 40.65)"/><use xlink:href="#z" transform="matrix(1,0,0,1,440,800) translate(98.00500000000001 40.65)"/><use xlink:href="#J" transform="matrix(1,0,0,1,440,800) translate(36.605 62.25)"/><use xlink:href="#K" transform="matrix(1,0,0,1,440,800) translate(127.50500000000001 62.25)"/><use xlink:href="#L" transform="matrix(1,0,0,1,440,800) translate(71.53 83.85000000000001)"/></g><path d="M437.18 860H320V560h-48" fill="none"/><path d="M437.18 860h-9.7m-9.68 0h-19.38m-9.7 0h-19.38m-9.7 0h-19.37m-9.7 0H320v-8.8m0-9.7v-19.38m0-9.7v-19.37m0-9.7v-19.38m0-9.7V734.9m0-9.7v-19.37m0-9.7v-19.38m0-9.7V647.7m0-9.7V618.6m0-9.7v-19.37m0-9.7v-19.37m-9.23-.46h-19.4m-9.68 0H272M419.82 870.18L437.04 860l-17.22-10.18M272.03 560H268" stroke="#000" stroke-width="2" fill="none"/><path d="M437.18 720H340V560h-68" fill="none"/><path d="M437.18 720h-9.85m-9.86 0h-19.7m-9.86 0h-19.7m-9.85 0H340v-1.36m0-9.85v-19.72m0-9.85v-19.7m0-9.87v-19.7m0-9.86v-19.7m0-9.86v-19.7m0-9.86V560h-18.73m-9.85 0h-19.7m-9.87 0H272M419.82 730.18L437.04 720l-17.22-10.18M272.03 560H268" stroke="#000" stroke-width="2" fill="none"/><path d="M437.18 580H360v-19.33h-74.48" fill="none"/><path d="M437.18 580h-9.5m-9.5 0h-19m-9.5 0h-19m-9.5 0H360v-17.82m-7.98-1.5h-19m-9.5 0h-19m-9.5 0h-9.5M419.82 590.18L437.04 580l-17.22-10.18M285.54 560.67h-1.02" stroke="#000" stroke-width="2" fill="none"/><path d="M437.18 440H340v120h-68" fill="none"/><path d="M437.18 440h-9.5m-9.5 0h-19.02m-9.5 0h-19.02m-9.5 0H342.1m-2.12 7.38v19.02m0 9.5v19.02m0 9.5v19m0 9.52v19m-1.46 8.06h-19m-9.52 0h-19m-9.5 0H272M419.82 450.18L437.04 440l-17.22-10.18M272.03 560H268" stroke="#000" stroke-width="2" fill="none"/><path d="M437.18 300H320v260h-48" fill="none"/><path d="M437.18 300h-10.12m-10.12 0H396.7m-10.14 0h-20.24m-10.13 0h-20.25m-10.13 0H320v14.42m0 10.13v20.24m0 10.12v20.24m0 10.13v20.23m0 10.13v20.24m0 10.13v20.24m0 10.13v20.24m0 10.13V527m0 10.14v20.24m-7.5 2.62h-20.25m-10.13 0H272M419.82 310.18L437.04 300l-17.22-10.18M272.03 560H268" stroke="#000" stroke-width="2" fill="none"/><defs><path d="M212-179c-10-28-35-45-73-45-59 0-87 40-87 99 0 60 29 101 89 101 43 0 62-24 78-52l27 14C228-24 195 4 139 4 59 4 22-46 18-125c-6-104 99-153 187-111 19 9 31 26 39 46" id="M"/><path d="M185-189c-5-48-123-54-124 2 14 75 158 14 163 119 3 78-121 87-175 55-17-10-28-26-33-46l33-7c5 56 141 63 141-1 0-78-155-14-162-118-5-82 145-84 179-34 5 7 8 16 11 25" id="N"/><path d="M240 0l2-218c-23 76-54 145-80 218h-23L58-218 59 0H30v-248h44l77 211c21-75 51-140 76-211h43V0h-30" id="O"/><g id="a"><use transform="matrix(0.05,0,0,0.05,0,0)" xlink:href="#M"/><use transform="matrix(0.05,0,0,0.05,12.950000000000001,0)" xlink:href="#N"/><use transform="matrix(0.05,0,0,0.05,24.950000000000003,0)" xlink:href="#O"/></g><path d="M33 0v-248h34V0H33" id="P"/><path d="M127-220V0H93v-220H8v-28h204v28h-85" id="Q"/><g id="b"><use transform="matrix(0.05,0,0,0.05,0,0)" xlink:href="#P"/><use transform="matrix(0.05,0,0,0.05,5,0)" xlink:href="#Q"/></g><path d="M59-47c-2 24 18 29 38 22v24C64 9 27 4 27-40v-127H5v-23h24l9-43h21v43h35v23H59v120" id="R"/><path d="M100-194c62-1 85 37 85 99 1 63-27 99-86 99S16-35 15-95c0-66 28-99 85-99zM99-20c44 1 53-31 53-75 0-43-8-75-51-75s-53 32-53 75 10 74 51 75" id="S"/><path d="M114-163C36-179 61-72 57 0H25l-1-190h30c1 12-1 29 2 39 6-27 23-49 58-41v29" id="T"/><path d="M179-190L93 31C79 59 56 82 12 73V49c39 6 53-20 64-50L1-190h34L92-34l54-156h33" id="U"/><g id="c"><use transform="matrix(0.07407407407407408,0,0,0.07407407407407408,0,0)" xlink:href="#N"/><use transform="matrix(0.07407407407407408,0,0,0.07407407407407408,17.77777777777778,0)" xlink:href="#R"/><use transform="matrix(0.07407407407407408,0,0,0.07407407407407408,25.185185185185187,0)" xlink:href="#S"/><use transform="matrix(0.07407407407407408,0,0,0.07407407407407408,40,0)" xlink:href="#T"/><use transform="matrix(0.07407407407407408,0,0,0.07407407407407408,48.81481481481481,0)" xlink:href="#U"/></g><path d="M101-251c82-7 93 87 43 132L82-64C71-53 59-42 53-27h129V0H18c2-99 128-94 128-182 0-28-16-43-45-43s-46 15-49 41l-32-3c6-41 34-60 81-64" id="V"/><path d="M33-154v-36h34v36H33zM33 0v-36h34V0H33" id="W"/><g id="d"><use transform="matrix(0.07407407407407408,0,0,0.07407407407407408,0,0)" xlink:href="#V"/><use transform="matrix(0.07407407407407408,0,0,0.07407407407407408,14.814814814814817,0)" xlink:href="#W"/></g><path d="M30-248c87 1 191-15 191 75 0 78-77 80-158 76V0H30v-248zm33 125c57 0 124 11 124-50 0-59-68-47-124-48v98" id="X"/><path d="M141-36C126-15 110 5 73 4 37 3 15-17 15-53c-1-64 63-63 125-63 3-35-9-54-41-54-24 1-41 7-42 31l-33-3c5-37 33-52 76-52 45 0 72 20 72 64v82c-1 20 7 32 28 27v20c-31 9-61-2-59-35zM48-53c0 20 12 33 32 33 41-3 63-29 60-74-43 2-92-5-92 41" id="Y"/><path d="M135-143c-3-34-86-38-87 0 15 53 115 12 119 90S17 21 10-45l28-5c4 36 97 45 98 0-10-56-113-15-118-90-4-57 82-63 122-42 12 7 21 19 24 35" id="Z"/><path d="M206 0h-36l-40-164L89 0H53L-1-190h32L70-26l43-164h34l41 164 42-164h31" id="aa"/><path d="M85-194c31 0 48 13 60 33l-1-100h32l1 261h-30c-2-10 0-23-3-31C134-8 116 4 85 4 32 4 16-35 15-94c0-66 23-100 70-100zm9 24c-40 0-46 34-46 75 0 40 6 74 45 74 42 0 51-32 51-76 0-42-9-74-50-73" id="ab"/><g id="e"><use transform="matrix(0.07407407407407408,0,0,0.07407407407407408,0,0)" xlink:href="#X"/><use transform="matrix(0.07407407407407408,0,0,0.07407407407407408,17.77777777777778,0)" xlink:href="#Y"/><use transform="matrix(0.07407407407407408,0,0,0.07407407407407408,32.592592592592595,0)" xlink:href="#Z"/><use transform="matrix(0.07407407407407408,0,0,0.07407407407407408,45.92592592592593,0)" xlink:href="#Z"/><use transform="matrix(0.07407407407407408,0,0,0.07407407407407408,59.25925925925927,0)" xlink:href="#aa"/><use transform="matrix(0.07407407407407408,0,0,0.07407407407407408,78.44444444444446,0)" xlink:href="#S"/><use transform="matrix(0.07407407407407408,0,0,0.07407407407407408,93.25925925925927,0)" xlink:href="#T"/><use transform="matrix(0.07407407407407408,0,0,0.07407407407407408,102.07407407407408,0)" xlink:href="#ab"/></g><path d="M117-194c89-4 53 116 60 194h-32v-121c0-31-8-49-39-48C34-167 62-67 57 0H25l-1-190h30c1 10-1 24 2 32 11-22 29-35 61-36" id="ac"/><path d="M177-190C167-65 218 103 67 71c-23-6-38-20-44-43l32-5c15 47 100 32 89-28v-30C133-14 115 1 83 1 29 1 15-40 15-95c0-56 16-97 71-98 29-1 48 16 59 35 1-10 0-23 2-32h30zM94-22c36 0 50-32 50-73 0-42-14-75-50-75-39 0-46 34-46 75s6 73 46 73" id="ad"/><path d="M100-194c63 0 86 42 84 106H49c0 40 14 67 53 68 26 1 43-12 49-29l28 8c-11 28-37 45-77 45C44 4 14-33 15-96c1-61 26-98 85-98zm52 81c6-60-76-77-97-28-3 7-6 17-6 28h103" id="ae"/><g id="f"><use transform="matrix(0.07407407407407408,0,0,0.07407407407407408,0,0)" xlink:href="#O"/><use transform="matrix(0.07407407407407408,0,0,0.07407407407407408,22.148148148148152,0)" xlink:href="#Y"/><use transform="matrix(0.07407407407407408,0,0,0.07407407407407408,36.96296296296297,0)" xlink:href="#ac"/><use transform="matrix(0.07407407407407408,0,0,0.07407407407407408,51.777777777777786,0)" xlink:href="#Y"/><use transform="matrix(0.07407407407407408,0,0,0.07407407407407408,66.59259259259261,0)" xlink:href="#ad"/><use transform="matrix(0.07407407407407408,0,0,0.07407407407407408,81.40740740740742,0)" xlink:href="#ae"/><use transform="matrix(0.07407407407407408,0,0,0.07407407407407408,96.22222222222223,0)" xlink:href="#T"/></g><g id="g"><use transform="matrix(0.05,0,0,0.05,0,0)" xlink:href="#M"/><use transform="matrix(0.05,0,0,0.05,12.950000000000001,0)" xlink:href="#T"/><use transform="matrix(0.05,0,0,0.05,18.900000000000002,0)" xlink:href="#ae"/><use transform="matrix(0.05,0,0,0.05,28.900000000000002,0)" xlink:href="#Y"/><use transform="matrix(0.05,0,0,0.05,38.900000000000006,0)" xlink:href="#R"/><use transform="matrix(0.05,0,0,0.05,43.900000000000006,0)" xlink:href="#ae"/></g><path d="M115-194c55 1 70 41 70 98S169 2 115 4C84 4 66-9 55-30l1 105H24l-1-265h31l2 30c10-21 28-34 59-34zm-8 174c40 0 45-34 45-75s-6-73-45-74c-42 0-51 32-51 76 0 43 10 73 51 73" id="af"/><g id="h"><use transform="matrix(0.05,0,0,0.05,0,0)" xlink:href="#af"/><use transform="matrix(0.05,0,0,0.05,10,0)" xlink:href="#Y"/><use transform="matrix(0.05,0,0,0.05,20,0)" xlink:href="#Z"/><use transform="matrix(0.05,0,0,0.05,29,0)" xlink:href="#Z"/><use transform="matrix(0.05,0,0,0.05,38,0)" xlink:href="#aa"/><use transform="matrix(0.05,0,0,0.05,50.95,0)" xlink:href="#S"/><use transform="matrix(0.05,0,0,0.05,60.95,0)" xlink:href="#T"/><use transform="matrix(0.05,0,0,0.05,66.9,0)" xlink:href="#ab"/><use transform="matrix(0.05,0,0,0.05,76.9,0)" xlink:href="#W"/></g><path d="M210-169c-67 3-38 105-44 169h-31v-121c0-29-5-50-35-48C34-165 62-65 56 0H25l-1-190h30c1 10-1 24 2 32 10-44 99-50 107 0 11-21 27-35 58-36 85-2 47 119 55 194h-31v-121c0-29-5-49-35-48" id="ag"/><path d="M68-38c1 34 0 65-14 84H32c9-13 17-26 17-46H33v-38h35" id="ah"/><g id="i"><use transform="matrix(0.05,0,0,0.05,0,0)" xlink:href="#ac"/><use transform="matrix(0.05,0,0,0.05,10,0)" xlink:href="#Y"/><use transform="matrix(0.05,0,0,0.05,20,0)" xlink:href="#ag"/><use transform="matrix(0.05,0,0,0.05,34.95,0)" xlink:href="#ae"/><use transform="matrix(0.05,0,0,0.05,44.95,0)" xlink:href="#ah"/></g><path d="M84 4C-5 8 30-112 23-190h32v120c0 31 7 50 39 49 72-2 45-101 50-169h31l1 190h-30c-1-10 1-25-2-33-11 22-28 36-60 37" id="ai"/><g id="j"><use transform="matrix(0.05,0,0,0.05,0,0)" xlink:href="#ai"/><use transform="matrix(0.05,0,0,0.05,10,0)" xlink:href="#Z"/><use transform="matrix(0.05,0,0,0.05,19,0)" xlink:href="#ae"/><use transform="matrix(0.05,0,0,0.05,29,0)" xlink:href="#T"/><use transform="matrix(0.05,0,0,0.05,34.95,0)" xlink:href="#ac"/><use transform="matrix(0.05,0,0,0.05,44.95,0)" xlink:href="#Y"/><use transform="matrix(0.05,0,0,0.05,54.95,0)" xlink:href="#ag"/><use transform="matrix(0.05,0,0,0.05,69.9,0)" xlink:href="#ae"/><use transform="matrix(0.05,0,0,0.05,79.9,0)" xlink:href="#ah"/></g><g id="k"><use transform="matrix(0.05,0,0,0.05,0,0)" xlink:href="#af"/><use transform="matrix(0.05,0,0,0.05,10,0)" xlink:href="#Y"/><use transform="matrix(0.05,0,0,0.05,20,0)" xlink:href="#Z"/><use transform="matrix(0.05,0,0,0.05,29,0)" xlink:href="#Z"/><use transform="matrix(0.05,0,0,0.05,38,0)" xlink:href="#aa"/><use transform="matrix(0.05,0,0,0.05,50.95,0)" xlink:href="#S"/><use transform="matrix(0.05,0,0,0.05,60.95,0)" xlink:href="#T"/><use transform="matrix(0.05,0,0,0.05,66.9,0)" xlink:href="#ab"/><use transform="matrix(0.05,0,0,0.05,76.9,0)" xlink:href="#ah"/></g><path d="M115-194c53 0 69 39 70 98 0 66-23 100-70 100C84 3 66-7 56-30L54 0H23l1-261h32v101c10-23 28-34 59-34zm-8 174c40 0 45-34 45-75 0-40-5-75-45-74-42 0-51 32-51 76 0 43 10 73 51 73" id="aj"/><path d="M24-231v-30h32v30H24zM24 0v-190h32V0H24" id="ak"/><g id="l"><use transform="matrix(0.05,0,0,0.05,0,0)" xlink:href="#aa"/><use transform="matrix(0.05,0,0,0.05,12.950000000000001,0)" xlink:href="#ae"/><use transform="matrix(0.05,0,0,0.05,22.950000000000003,0)" xlink:href="#aj"/><use transform="matrix(0.05,0,0,0.05,32.95,0)" xlink:href="#Z"/><use transform="matrix(0.05,0,0,0.05,41.95,0)" xlink:href="#ak"/><use transform="matrix(0.05,0,0,0.05,45.900000000000006,0)" xlink:href="#R"/><use transform="matrix(0.05,0,0,0.05,50.900000000000006,0)" xlink:href="#ae"/><use transform="matrix(0.05,0,0,0.05,60.900000000000006,0)" xlink:href="#ah"/></g><g id="m"><use transform="matrix(0.05,0,0,0.05,0,0)" xlink:href="#ac"/><use transform="matrix(0.05,0,0,0.05,10,0)" xlink:href="#S"/><use transform="matrix(0.05,0,0,0.05,20,0)" xlink:href="#R"/><use transform="matrix(0.05,0,0,0.05,25,0)" xlink:href="#ae"/><use transform="matrix(0.05,0,0,0.05,35,0)" xlink:href="#Z"/></g><path d="M137 0h-34L2-248h35l83 218 83-218h36" id="al"/><g id="n"><use transform="matrix(0.05,0,0,0.05,0,0)" xlink:href="#al"/><use transform="matrix(0.05,0,0,0.05,11.65,0)" xlink:href="#ak"/><use transform="matrix(0.05,0,0,0.05,15.600000000000001,0)" xlink:href="#ae"/><use transform="matrix(0.05,0,0,0.05,25.6,0)" xlink:href="#aa"/></g><use transform="matrix(0.05,0,0,0.05,0,0)" xlink:href="#Y" id="o"/><g id="p"><use transform="matrix(0.05,0,0,0.05,0,0)" xlink:href="#Z"/><use transform="matrix(0.05,0,0,0.05,9,0)" xlink:href="#R"/><use transform="matrix(0.05,0,0,0.05,14,0)" xlink:href="#S"/><use transform="matrix(0.05,0,0,0.05,24,0)" xlink:href="#T"/><use transform="matrix(0.05,0,0,0.05,29.950000000000003,0)" xlink:href="#ae"/><use transform="matrix(0.05,0,0,0.05,39.95,0)" xlink:href="#ab"/></g><g id="q"><use transform="matrix(0.05,0,0,0.05,0,0)" xlink:href="#af"/><use transform="matrix(0.05,0,0,0.05,10,0)" xlink:href="#Y"/><use transform="matrix(0.05,0,0,0.05,20,0)" xlink:href="#Z"/><use transform="matrix(0.05,0,0,0.05,29,0)" xlink:href="#Z"/><use transform="matrix(0.05,0,0,0.05,38,0)" xlink:href="#aa"/><use transform="matrix(0.05,0,0,0.05,50.95,0)" xlink:href="#S"/><use transform="matrix(0.05,0,0,0.05,60.95,0)" xlink:href="#T"/><use transform="matrix(0.05,0,0,0.05,66.9,0)" xlink:href="#ab"/></g><g id="r"><use transform="matrix(0.05,0,0,0.05,0,0)" xlink:href="#Y"/><use transform="matrix(0.05,0,0,0.05,10,0)" xlink:href="#ac"/><use transform="matrix(0.05,0,0,0.05,20,0)" xlink:href="#ab"/></g><g id="s"><use transform="matrix(0.05,0,0,0.05,0,0)" xlink:href="#ak"/><use transform="matrix(0.05,0,0,0.05,3.95,0)" xlink:href="#R"/><use transform="matrix(0.05,0,0,0.05,8.95,0)" xlink:href="#Z"/></g><path d="M101-234c-31-9-42 10-38 44h38v23H63V0H32v-167H5v-23h27c-7-52 17-82 69-68v24" id="am"/><g id="t"><use transform="matrix(0.05,0,0,0.05,0,0)" xlink:href="#ak"/><use transform="matrix(0.05,0,0,0.05,3.95,0)" xlink:href="#ac"/><use transform="matrix(0.05,0,0,0.05,13.949999999999998,0)" xlink:href="#am"/><use transform="matrix(0.05,0,0,0.05,18.95,0)" xlink:href="#S"/><use transform="matrix(0.05,0,0,0.05,28.950000000000003,0)" xlink:href="#T"/><use transform="matrix(0.05,0,0,0.05,34.9,0)" xlink:href="#ag"/><use transform="matrix(0.05,0,0,0.05,49.85,0)" xlink:href="#Y"/><use transform="matrix(0.05,0,0,0.05,59.85,0)" xlink:href="#R"/><use transform="matrix(0.05,0,0,0.05,64.85,0)" xlink:href="#ak"/><use transform="matrix(0.05,0,0,0.05,68.8,0)" xlink:href="#S"/><use transform="matrix(0.05,0,0,0.05,78.8,0)" xlink:href="#ac"/></g><path d="M24 0v-261h32V0H24" id="an"/><g id="u"><use transform="matrix(0.05,0,0,0.05,0,0)" xlink:href="#Y"/><use transform="matrix(0.05,0,0,0.05,10,0)" xlink:href="#an"/><use transform="matrix(0.05,0,0,0.05,13.949999999999998,0)" xlink:href="#S"/><use transform="matrix(0.05,0,0,0.05,23.95,0)" xlink:href="#ac"/><use transform="matrix(0.05,0,0,0.05,33.95,0)" xlink:href="#ad"/></g><g id="v"><use transform="matrix(0.05,0,0,0.05,0,0)" xlink:href="#Z"/><use transform="matrix(0.05,0,0,0.05,9,0)" xlink:href="#ak"/><use transform="matrix(0.05,0,0,0.05,12.949999999999998,0)" xlink:href="#ab"/><use transform="matrix(0.05,0,0,0.05,22.95,0)" xlink:href="#ae"/></g><g id="w"><use transform="matrix(0.05,0,0,0.05,0,0)" xlink:href="#ak"/><use transform="matrix(0.05,0,0,0.05,3.95,0)" xlink:href="#R"/></g><path d="M30 0v-248h187v28H63v79h144v27H63v87h162V0H30" id="ao"/><g id="x"><use transform="matrix(0.05,0,0,0.05,0,0)" xlink:href="#ao"/><use transform="matrix(0.05,0,0,0.05,12,0)" xlink:href="#ab"/><use transform="matrix(0.05,0,0,0.05,22,0)" xlink:href="#ak"/><use transform="matrix(0.05,0,0,0.05,25.950000000000003,0)" xlink:href="#R"/></g><g id="y"><use transform="matrix(0.05,0,0,0.05,0,0)" xlink:href="#Y"/><use transform="matrix(0.05,0,0,0.05,10,0)" xlink:href="#ac"/></g><path d="M141 0L90-78 38 0H4l68-98-65-92h35l48 74 47-74h35l-64 92 68 98h-35" id="ap"/><g id="z"><use transform="matrix(0.05,0,0,0.05,0,0)" xlink:href="#ae"/><use transform="matrix(0.05,0,0,0.05,10,0)" xlink:href="#ap"/><use transform="matrix(0.05,0,0,0.05,19,0)" xlink:href="#ak"/><use transform="matrix(0.05,0,0,0.05,22.95,0)" xlink:href="#Z"/><use transform="matrix(0.05,0,0,0.05,31.950000000000003,0)" xlink:href="#R"/><use transform="matrix(0.05,0,0,0.05,36.95,0)" xlink:href="#ak"/><use transform="matrix(0.05,0,0,0.05,40.900000000000006,0)" xlink:href="#ac"/><use transform="matrix(0.05,0,0,0.05,50.900000000000006,0)" xlink:href="#ad"/></g><g id="A"><use transform="matrix(0.05,0,0,0.05,0,0)" xlink:href="#Z"/><use transform="matrix(0.05,0,0,0.05,9,0)" xlink:href="#R"/><use transform="matrix(0.05,0,0,0.05,14,0)" xlink:href="#S"/><use transform="matrix(0.05,0,0,0.05,24,0)" xlink:href="#T"/><use transform="matrix(0.05,0,0,0.05,29.950000000000003,0)" xlink:href="#ae"/><use transform="matrix(0.05,0,0,0.05,39.95,0)" xlink:href="#ab"/></g><g id="B"><use transform="matrix(0.05,0,0,0.05,0,0)" xlink:href="#Y"/><use transform="matrix(0.05,0,0,0.05,10,0)" xlink:href="#ac"/><use transform="matrix(0.05,0,0,0.05,20,0)" xlink:href="#ab"/></g><g id="C"><use transform="matrix(0.05,0,0,0.05,0,0)" xlink:href="#ak"/><use transform="matrix(0.05,0,0,0.05,3.95,0)" xlink:href="#R"/><use transform="matrix(0.05,0,0,0.05,8.95,0)" xlink:href="#Z"/></g><g id="D"><use transform="matrix(0.05,0,0,0.05,0,0)" xlink:href="#ak"/><use transform="matrix(0.05,0,0,0.05,3.95,0)" xlink:href="#ac"/><use transform="matrix(0.05,0,0,0.05,13.949999999999998,0)" xlink:href="#am"/><use transform="matrix(0.05,0,0,0.05,18.95,0)" xlink:href="#S"/><use transform="matrix(0.05,0,0,0.05,28.950000000000003,0)" xlink:href="#T"/><use transform="matrix(0.05,0,0,0.05,34.9,0)" xlink:href="#ag"/><use transform="matrix(0.05,0,0,0.05,49.85,0)" xlink:href="#Y"/><use transform="matrix(0.05,0,0,0.05,59.85,0)" xlink:href="#R"/><use transform="matrix(0.05,0,0,0.05,64.85,0)" xlink:href="#ak"/><use transform="matrix(0.05,0,0,0.05,68.8,0)" xlink:href="#S"/><use transform="matrix(0.05,0,0,0.05,78.8,0)" xlink:href="#ac"/></g><path d="M96-169c-40 0-48 33-48 73s9 75 48 75c24 0 41-14 43-38l32 2c-6 37-31 61-74 61-59 0-76-41-82-99-10-93 101-131 147-64 4 7 5 14 7 22l-32 3c-4-21-16-35-41-35" id="aq"/><path d="M106-169C34-169 62-67 57 0H25v-261h32l-1 103c12-21 28-36 61-36 89 0 53 116 60 194h-32v-121c2-32-8-49-39-48" id="ar"/><g id="E"><use transform="matrix(0.05,0,0,0.05,0,0)" xlink:href="#N"/><use transform="matrix(0.05,0,0,0.05,12,0)" xlink:href="#ae"/><use transform="matrix(0.05,0,0,0.05,22,0)" xlink:href="#Y"/><use transform="matrix(0.05,0,0,0.05,32,0)" xlink:href="#T"/><use transform="matrix(0.05,0,0,0.05,37.95,0)" xlink:href="#aq"/><use transform="matrix(0.05,0,0,0.05,46.95,0)" xlink:href="#ar"/></g><g id="F"><use transform="matrix(0.05,0,0,0.05,0,0)" xlink:href="#am"/><use transform="matrix(0.05,0,0,0.05,5,0)" xlink:href="#S"/><use transform="matrix(0.05,0,0,0.05,15,0)" xlink:href="#T"/></g><path d="M108 0H70L1-190h34L89-25l56-165h34" id="as"/><g id="G"><use transform="matrix(0.05,0,0,0.05,0,0)" xlink:href="#af"/><use transform="matrix(0.05,0,0,0.05,10,0)" xlink:href="#T"/><use transform="matrix(0.05,0,0,0.05,15.949999999999998,0)" xlink:href="#ae"/><use transform="matrix(0.05,0,0,0.05,25.950000000000003,0)" xlink:href="#as"/><use transform="matrix(0.05,0,0,0.05,34.95,0)" xlink:href="#ak"/><use transform="matrix(0.05,0,0,0.05,38.900000000000006,0)" xlink:href="#S"/><use transform="matrix(0.05,0,0,0.05,48.900000000000006,0)" xlink:href="#ai"/><use transform="matrix(0.05,0,0,0.05,58.900000000000006,0)" xlink:href="#Z"/><use transform="matrix(0.05,0,0,0.05,67.9,0)" xlink:href="#an"/><use transform="matrix(0.05,0,0,0.05,71.85000000000001,0)" xlink:href="#U"/></g><g id="H"><use transform="matrix(0.05,0,0,0.05,0,0)" xlink:href="#af"/><use transform="matrix(0.05,0,0,0.05,10,0)" xlink:href="#Y"/><use transform="matrix(0.05,0,0,0.05,20,0)" xlink:href="#Z"/><use transform="matrix(0.05,0,0,0.05,29,0)" xlink:href="#Z"/><use transform="matrix(0.05,0,0,0.05,38,0)" xlink:href="#aa"/><use transform="matrix(0.05,0,0,0.05,50.95,0)" xlink:href="#S"/><use transform="matrix(0.05,0,0,0.05,60.95,0)" xlink:href="#T"/><use transform="matrix(0.05,0,0,0.05,66.9,0)" xlink:href="#ab"/><use transform="matrix(0.05,0,0,0.05,76.9,0)" xlink:href="#Z"/></g><path d="M30-248c118-7 216 8 213 122C240-48 200 0 122 0H30v-248zM63-27c89 8 146-16 146-99s-60-101-146-95v194" id="at"/><g id="I"><use transform="matrix(0.05,0,0,0.05,0,0)" xlink:href="#at"/><use transform="matrix(0.05,0,0,0.05,12.950000000000001,0)" xlink:href="#ae"/><use transform="matrix(0.05,0,0,0.05,22.950000000000003,0)" xlink:href="#an"/><use transform="matrix(0.05,0,0,0.05,26.900000000000002,0)" xlink:href="#ae"/><use transform="matrix(0.05,0,0,0.05,36.900000000000006,0)" xlink:href="#R"/><use transform="matrix(0.05,0,0,0.05,41.900000000000006,0)" xlink:href="#ae"/></g><g id="J"><use transform="matrix(0.05,0,0,0.05,0,0)" xlink:href="#af"/><use transform="matrix(0.05,0,0,0.05,10,0)" xlink:href="#Y"/><use transform="matrix(0.05,0,0,0.05,20,0)" xlink:href="#Z"/><use transform="matrix(0.05,0,0,0.05,29,0)" xlink:href="#Z"/><use transform="matrix(0.05,0,0,0.05,38,0)" xlink:href="#aa"/><use transform="matrix(0.05,0,0,0.05,50.95,0)" xlink:href="#S"/><use transform="matrix(0.05,0,0,0.05,60.95,0)" xlink:href="#T"/><use transform="matrix(0.05,0,0,0.05,66.9,0)" xlink:href="#ab"/><use transform="matrix(0.05,0,0,0.05,76.9,0)" xlink:href="#Z"/></g><g id="K"><use transform="matrix(0.05,0,0,0.05,0,0)" xlink:href="#am"/><use transform="matrix(0.05,0,0,0.05,5,0)" xlink:href="#T"/><use transform="matrix(0.05,0,0,0.05,10.95,0)" xlink:href="#S"/><use transform="matrix(0.05,0,0,0.05,20.95,0)" xlink:href="#ag"/></g><g id="L"><use transform="matrix(0.05,0,0,0.05,0,0)" xlink:href="#Z"/><use transform="matrix(0.05,0,0,0.05,9,0)" xlink:href="#U"/><use transform="matrix(0.05,0,0,0.05,18,0)" xlink:href="#Z"/><use transform="matrix(0.05,0,0,0.05,27,0)" xlink:href="#R"/><use transform="matrix(0.05,0,0,0.05,32,0)" xlink:href="#ae"/><use transform="matrix(0.05,0,0,0.05,42,0)" xlink:href="#ag"/></g></defs></g></svg>