<svg xmlns="http://www.w3.org/2000/svg" xmlns:xlink="http://www.w3.org/1999/xlink" xmlns:lucid="lucid" width="685.95" height="1100"><g transform="translate(-197.575 -140)" lucid:page-tab-id="0_0"><path d="M264.75 504.75c0 8.15-6.6 14.75-14.75 14.75s-14.75-6.6-14.75-14.75S241.85 490 250 490s14.75 6.6 14.75 14.75z" stroke="#000" stroke-width="2" fill="#fff"/><path d="M220 490h60v118h-60z" fill="none"/><path d="M250 519.5v41.3l30 47.2m-30-47.2L220 608m0-73.75h60" stroke="#000" stroke-width="2" fill="none"/><use xlink:href="#a" transform="matrix(1,0,0,1,140,608) translate(79.57499999999999 14.6)"/><use xlink:href="#b" transform="matrix(1,0,0,1,140,608) translate(124.475 14.6)"/><path d="M380 160h360v1060H380z" stroke="#000" stroke-width="2" fill="none"/><use xlink:href="#c" transform="matrix(1,0,0,1,388,168) translate(4.932098765432073 17.77777777777778)"/><use xlink:href="#d" transform="matrix(1,0,0,1,388,168) translate(62.89506172839503 17.77777777777778)"/><use xlink:href="#e" transform="matrix(1,0,0,1,388,168) translate(87.58641975308639 17.77777777777778)"/><use xlink:href="#f" transform="matrix(1,0,0,1,388,168) translate(189.80864197530863 17.77777777777778)"/><use xlink:href="#g" transform="matrix(1,0,0,1,388,168) translate(251.53703703703704 17.77777777777778)"/><path d="M700 310c0 49.7-62.68 90-140 90s-140-40.3-140-90 62.68-90 140-90 140 40.3 140 90z" stroke="#000" stroke-width="2" fill="#fff"/><use xlink:href="#h" transform="matrix(1,0,0,1,420,220) translate(49.13 48.15)"/><use xlink:href="#i" transform="matrix(1,0,0,1,420,220) translate(108.03 48.15)"/><use xlink:href="#j" transform="matrix(1,0,0,1,420,220) translate(187.88 48.15)"/><use xlink:href="#k" transform="matrix(1,0,0,1,420,220) translate(27.154999999999983 69.75)"/><use xlink:href="#l" transform="matrix(1,0,0,1,420,220) translate(88.05499999999999 69.75)"/><use xlink:href="#m" transform="matrix(1,0,0,1,420,220) translate(143.005 69.75)"/><use xlink:href="#n" transform="matrix(1,0,0,1,420,220) translate(15.704999999999993 91.35000000000001)"/><use xlink:href="#o" transform="matrix(1,0,0,1,420,220) translate(74.605 91.35000000000001)"/><use xlink:href="#p" transform="matrix(1,0,0,1,420,220) translate(132.505 91.35000000000001)"/><use xlink:href="#q" transform="matrix(1,0,0,1,420,220) translate(180.35500000000002 91.35000000000001)"/><use xlink:href="#r" transform="matrix(1,0,0,1,420,220) translate(225.305 91.35000000000001)"/><use xlink:href="#s" transform="matrix(1,0,0,1,420,220) translate(22.079999999999995 112.95000000000002)"/><use xlink:href="#t" transform="matrix(1,0,0,1,420,220) translate(70.08 112.95000000000002)"/><use xlink:href="#u" transform="matrix(1,0,0,1,420,220) translate(105.08 112.95000000000002)"/><use xlink:href="#v" transform="matrix(1,0,0,1,420,220) translate(184.03 112.95000000000002)"/><use xlink:href="#w" transform="matrix(1,0,0,1,420,220) translate(227.93 112.95000000000002)"/><use xlink:href="#x" transform="matrix(1,0,0,1,420,220) translate(44.605 134.55)"/><use xlink:href="#y" transform="matrix(1,0,0,1,420,220) translate(89.60499999999999 134.55)"/><use xlink:href="#z" transform="matrix(1,0,0,1,420,220) translate(161.505 134.55)"/><use xlink:href="#A" transform="matrix(1,0,0,1,420,220) translate(211.455 134.55)"/><use xlink:href="#B" transform="matrix(1,0,0,1,420,220) translate(109.55499999999999 156.15)"/><path d="M700 490c0 38.66-62.68 70-140 70s-140-31.34-140-70 62.68-70 140-70 140 31.34 140 70z" stroke="#000" stroke-width="2" fill="#fff"/><use xlink:href="#C" transform="matrix(1,0,0,1,420,420) translate(45.83 53.775)"/><use xlink:href="#D" transform="matrix(1,0,0,1,420,420) translate(89.38 53.775)"/><use xlink:href="#E" transform="matrix(1,0,0,1,420,420) translate(104.38 53.775)"/><use xlink:href="#F" transform="matrix(1,0,0,1,420,420) translate(159.32999999999998 53.775)"/><use xlink:href="#s" transform="matrix(1,0,0,1,420,420) translate(15.15500000000001 75.375)"/><use xlink:href="#G" transform="matrix(1,0,0,1,420,420) translate(63.15500000000001 75.375)"/><use xlink:href="#H" transform="matrix(1,0,0,1,420,420) translate(98.155 75.375)"/><use xlink:href="#I" transform="matrix(1,0,0,1,420,420) translate(121.105 75.375)"/><use xlink:href="#J" transform="matrix(1,0,0,1,420,420) translate(214.905 75.375)"/><use xlink:href="#K" transform="matrix(1,0,0,1,420,420) translate(92.08 96.97500000000001)"/><use xlink:href="#L" transform="matrix(1,0,0,1,420,420) translate(141.03 96.97500000000001)"/><use xlink:href="#M" transform="matrix(1,0,0,1,420,420) translate(178.98000000000002 96.97500000000001)"/><path d="M700 650c0 38.66-62.68 70-140 70s-140-31.34-140-70 62.68-70 140-70 140 31.34 140 70z" stroke="#000" stroke-width="2" fill="#fff"/><use xlink:href="#N" transform="matrix(1,0,0,1,420,580) translate(25.629999999999978 53.775)"/><use xlink:href="#D" transform="matrix(1,0,0,1,420,580) translate(61.579999999999984 53.775)"/><use xlink:href="#E" transform="matrix(1,0,0,1,420,580) translate(76.57999999999998 53.775)"/><use xlink:href="#i" transform="matrix(1,0,0,1,420,580) translate(131.53 53.775)"/><use xlink:href="#j" transform="matrix(1,0,0,1,420,580) translate(211.38000000000002 53.775)"/><use xlink:href="#G" transform="matrix(1,0,0,1,420,580) translate(14.680000000000016 75.375)"/><use xlink:href="#H" transform="matrix(1,0,0,1,420,580) translate(49.680000000000014 75.375)"/><use xlink:href="#I" transform="matrix(1,0,0,1,420,580) translate(72.63000000000001 75.375)"/><use xlink:href="#E" transform="matrix(1,0,0,1,420,580) translate(166.43 75.375)"/><use xlink:href="#O" transform="matrix(1,0,0,1,420,580) translate(221.38 75.375)"/><use xlink:href="#L" transform="matrix(1,0,0,1,420,580) translate(116.55499999999999 96.97500000000001)"/><use xlink:href="#M" transform="matrix(1,0,0,1,420,580) translate(154.505 96.97500000000001)"/><path d="M700 810c0 38.66-62.68 70-140 70s-140-31.34-140-70 62.68-70 140-70 140 31.34 140 70z" stroke="#000" stroke-width="2" fill="#fff"/><g><use xlink:href="#P" transform="matrix(1,0,0,1,420,740) translate(28.154999999999983 62.525)"/><use xlink:href="#Q" transform="matrix(1,0,0,1,420,740) translate(90.10499999999999 62.525)"/><use xlink:href="#R" transform="matrix(1,0,0,1,420,740) translate(116.05499999999999 62.525)"/><use xlink:href="#J" transform="matrix(1,0,0,1,420,740) translate(201.905 62.525)"/><use xlink:href="#i" transform="matrix(1,0,0,1,420,740) translate(74.08 84.125)"/><use xlink:href="#S" transform="matrix(1,0,0,1,420,740) translate(153.93 84.125)"/></g><path d="M700 970c0 38.66-62.68 70-140 70s-140-31.34-140-70 62.68-70 140-70 140 31.34 140 70z" stroke="#000" stroke-width="2" fill="#fff"/><g><use xlink:href="#T" transform="matrix(1,0,0,1,420,900) translate(41.17999999999999 62.86875)"/><use xlink:href="#U" transform="matrix(1,0,0,1,420,900) translate(98.08 62.86875)"/><use xlink:href="#F" transform="matrix(1,0,0,1,420,900) translate(163.98 62.86875)"/><use xlink:href="#S" transform="matrix(1,0,0,1,420,900) translate(114.00500000000001 84.46875)"/></g><path d="M700 1130c0 38.66-62.68 70-140 70s-140-31.34-140-70 62.68-70 140-70 140 31.34 140 70z" stroke="#000" stroke-width="2" fill="#fff"/><g><use xlink:href="#V" transform="matrix(1,0,0,1,420,1060) translate(45.655 54.05625)"/><use xlink:href="#W" transform="matrix(1,0,0,1,420,1060) translate(120.50500000000001 54.05625)"/><use xlink:href="#X" transform="matrix(1,0,0,1,420,1060) translate(171.45499999999998 54.05625)"/><use xlink:href="#Y" transform="matrix(1,0,0,1,420,1060) translate(26.62999999999999 75.65625)"/><use xlink:href="#Z" transform="matrix(1,0,0,1,420,1060) translate(142.48000000000002 75.65625)"/><use xlink:href="#j" transform="matrix(1,0,0,1,420,1060) translate(210.38 75.65625)"/><use xlink:href="#aa" transform="matrix(1,0,0,1,420,1060) translate(71.53 97.25625000000001)"/><use xlink:href="#G" transform="matrix(1,0,0,1,420,1060) translate(124.53 97.25625000000001)"/><use xlink:href="#ab" transform="matrix(1,0,0,1,420,1060) translate(159.53 97.25625000000001)"/></g><path d="M844.75 504.75c0 8.15-6.6 14.75-14.75 14.75s-14.75-6.6-14.75-14.75S821.85 490 830 490s14.75 6.6 14.75 14.75z" stroke="#000" stroke-width="2" fill="#fff"/><path d="M800 490h60v118h-60z" fill="none"/><path d="M830 519.5v41.3l30 47.2m-30-47.2L800 608m0-73.75h60" stroke="#000" stroke-width="2" fill="none"/><g><use xlink:href="#ac" transform="matrix(1,0,0,1,720,608) translate(77.525 14.6)"/></g><path d="M702.82 1130H765V560h63" fill="none"/><path d="M702.82 1130h10.07m10.07 0h20.15m10.07 0H765v-8.34m0-10.08v-20.15m0-10.07v-20.15m0-10.07v-20.15m0-10.07v-20.15m0-10.07v-20.15m0-10.08V940.3m0-10.07v-20.15m0-10.08v-20.15m0-10.07v-20.15m0-10.08V819.4m0-10.07v-20.15m0-10.08v-20.15m0-10.07v-20.15m0-10.08V698.5m0-10.07v-20.15m0-10.08v-20.15m0-10.07v-20.15m0-10.08V577.6m0-10.07V560h12.62m10.08 0h20.15m10.07 0H828M720.18 1119.82L702.96 1130l17.22 10.18M827.97 560H832" stroke="#000" stroke-width="2" fill="none"/><path d="M417.18 310H322v250h-70" fill="none"/><path d="M417.18 310h-9.88m-9.9 0h-19.76m-9.88 0h-19.78m-9.88 0H322v3.67m0 9.9v19.76m0 9.88V373m0 9.9v19.76m0 9.88v19.77m0 9.88v19.77m0 9.9v19.76m0 9.9v19.76m0 9.9v19.76m-.8 9.08h-19.77m-9.9 0h-19.76m-9.88 0H252M399.82 320.18L417.04 310l-17.22-10.18M252.03 560H248" stroke="#000" stroke-width="2" fill="none"/><path d="M417.18 490H340v70h-88" fill="none"/><path d="M417.18 490h-9.8m-9.8 0h-19.6m-9.8 0h-19.6m-8.58 1.2v19.6m0 9.8v19.6m0 9.8v10h-9.6m-9.8 0H301m-9.8 0h-19.6m-9.8 0H252M399.82 500.18L417.04 490l-17.22-10.18M252.03 560H248" stroke="#000" stroke-width="2" fill="none"/><path d="M417.18 650H360v-90H252" fill="none"/><path d="M417.18 650h-9.45m-9.45 0h-18.9m-9.45 0H360v-8.98m0-9.45v-18.9m0-9.45v-18.9m0-9.45V560h-4.04m-9.45 0h-18.9m-9.44 0h-18.9m-9.46 0h-18.9m-9.45 0H252M399.82 660.18L417.04 650l-17.22-10.18M252.03 560H248" stroke="#000" stroke-width="2" fill="none"/><path d="M417.18 810H340V560h-88" fill="none"/><path d="M417.18 810h-9.88m-9.9 0h-19.76m-9.88 0h-19.78m-7.98-1.9v-19.77m0-9.9v-19.76m0-9.88V729m0-9.9v-19.76m0-9.88V669.7m0-9.88v-19.77m0-9.9V610.4m0-9.9v-19.76m0-9.9V560h-8.92m-9.88 0h-19.77m-9.9 0h-19.76m-9.88 0H252M399.82 820.18L417.04 810l-17.22-10.18M252.03 560H248" stroke="#000" stroke-width="2" fill="none"/><path d="M417.18 970H320V560h-68" fill="none"/><path d="M417.18 970h-10.1M397 970h-20.18m-10.1 0h-20.17m-10.1 0H320v-3.73m0-10.1V936m0-10.1v-20.17m0-10.1v-20.18m0-10.1V845.2m0-10.1v-20.17m0-10.08v-20.18m0-10.1v-20.18m0-10.1V724.1m0-10.1v-20.18m0-10.1v-20.17m0-10.1v-20.18m0-10.1V603m0-10.1v-20.17m0-10.1V560h-17.55m-10.1 0H272.2m-10.1 0H252M399.82 980.18L417.04 970l-17.22-10.18M252.03 560H248" stroke="#000" stroke-width="2" fill="none"/><path d="M417.18 1130H300V560h-48" fill="none"/><path d="M417.18 1130h-9.8m-9.8 0h-19.6m-9.8 0h-19.62m-9.8 0h-19.6m-9.8 0H300v-10.25m0-9.8v-19.6m0-9.8v-19.6m0-9.82v-19.6m0-9.8v-19.6m0-9.8V972.7m0-9.8v-19.6m0-9.8v-19.6m0-9.8v-19.6m0-9.8v-19.62m0-9.8v-19.6m0-9.8v-19.6m0-9.8v-19.62m0-9.8v-19.6m0-9.8v-19.6m0-9.8v-19.62m0-9.8v-19.6m0-9.8v-19.6m0-9.82v-19.6m0-9.8v-19.6m-8.8-1.02h-19.6m-9.8 0H252M399.82 1140.18l17.22-10.18-17.22-10.18M252.03 560H248" stroke="#000" stroke-width="2" fill="none"/><defs><path d="M212-179c-10-28-35-45-73-45-59 0-87 40-87 99 0 60 29 101 89 101 43 0 62-24 78-52l27 14C228-24 195 4 139 4 59 4 22-46 18-125c-6-104 99-153 187-111 19 9 31 26 39 46" id="ad"/><path d="M185-189c-5-48-123-54-124 2 14 75 158 14 163 119 3 78-121 87-175 55-17-10-28-26-33-46l33-7c5 56 141 63 141-1 0-78-155-14-162-118-5-82 145-84 179-34 5 7 8 16 11 25" id="ae"/><path d="M240 0l2-218c-23 76-54 145-80 218h-23L58-218 59 0H30v-248h44l77 211c21-75 51-140 76-211h43V0h-30" id="af"/><g id="a"><use transform="matrix(0.05,0,0,0.05,0,0)" xlink:href="#ad"/><use transform="matrix(0.05,0,0,0.05,12.950000000000001,0)" xlink:href="#ae"/><use transform="matrix(0.05,0,0,0.05,24.950000000000003,0)" xlink:href="#af"/></g><path d="M33 0v-248h34V0H33" id="ag"/><path d="M127-220V0H93v-220H8v-28h204v28h-85" id="ah"/><g id="b"><use transform="matrix(0.05,0,0,0.05,0,0)" xlink:href="#ag"/><use transform="matrix(0.05,0,0,0.05,5,0)" xlink:href="#ah"/></g><path d="M59-47c-2 24 18 29 38 22v24C64 9 27 4 27-40v-127H5v-23h24l9-43h21v43h35v23H59v120" id="ai"/><path d="M100-194c62-1 85 37 85 99 1 63-27 99-86 99S16-35 15-95c0-66 28-99 85-99zM99-20c44 1 53-31 53-75 0-43-8-75-51-75s-53 32-53 75 10 74 51 75" id="aj"/><path d="M114-163C36-179 61-72 57 0H25l-1-190h30c1 12-1 29 2 39 6-27 23-49 58-41v29" id="ak"/><path d="M179-190L93 31C79 59 56 82 12 73V49c39 6 53-20 64-50L1-190h34L92-34l54-156h33" id="al"/><g id="c"><use transform="matrix(0.06172839506172839,0,0,0.06172839506172839,0,0)" xlink:href="#ae"/><use transform="matrix(0.06172839506172839,0,0,0.06172839506172839,14.814814814814813,0)" xlink:href="#ai"/><use transform="matrix(0.06172839506172839,0,0,0.06172839506172839,20.98765432098765,0)" xlink:href="#aj"/><use transform="matrix(0.06172839506172839,0,0,0.06172839506172839,33.33333333333333,0)" xlink:href="#ak"/><use transform="matrix(0.06172839506172839,0,0,0.06172839506172839,40.679012345679006,0)" xlink:href="#al"/></g><path d="M155-56V0h-30v-56H8v-25l114-167h33v167h35v25h-35zm-30-156c-27 46-58 90-88 131h88v-131" id="am"/><path d="M33-154v-36h34v36H33zM33 0v-36h34V0H33" id="an"/><g id="d"><use transform="matrix(0.06172839506172839,0,0,0.06172839506172839,0,0)" xlink:href="#am"/><use transform="matrix(0.06172839506172839,0,0,0.06172839506172839,12.345679012345679,0)" xlink:href="#an"/></g><path d="M197 0v-115H63V0H30v-248h33v105h134v-105h34V0h-34" id="ao"/><path d="M141-36C126-15 110 5 73 4 37 3 15-17 15-53c-1-64 63-63 125-63 3-35-9-54-41-54-24 1-41 7-42 31l-33-3c5-37 33-52 76-52 45 0 72 20 72 64v82c-1 20 7 32 28 27v20c-31 9-61-2-59-35zM48-53c0 20 12 33 32 33 41-3 63-29 60-74-43 2-92-5-92 41" id="ap"/><path d="M85-194c31 0 48 13 60 33l-1-100h32l1 261h-30c-2-10 0-23-3-31C134-8 116 4 85 4 32 4 16-35 15-94c0-66 23-100 70-100zm9 24c-40 0-46 34-46 75 0 40 6 74 45 74 42 0 51-32 51-76 0-42-9-74-50-73" id="aq"/><path d="M206 0h-36l-40-164L89 0H53L-1-190h32L70-26l43-164h34l41 164 42-164h31" id="ar"/><path d="M100-194c63 0 86 42 84 106H49c0 40 14 67 53 68 26 1 43-12 49-29l28 8c-11 28-37 45-77 45C44 4 14-33 15-96c1-61 26-98 85-98zm52 81c6-60-76-77-97-28-3 7-6 17-6 28h103" id="as"/><g id="e"><use transform="matrix(0.06172839506172839,0,0,0.06172839506172839,0,0)" xlink:href="#ao"/><use transform="matrix(0.06172839506172839,0,0,0.06172839506172839,15.987654320987653,0)" xlink:href="#ap"/><use transform="matrix(0.06172839506172839,0,0,0.06172839506172839,28.333333333333332,0)" xlink:href="#ak"/><use transform="matrix(0.06172839506172839,0,0,0.06172839506172839,35.67901234567901,0)" xlink:href="#aq"/><use transform="matrix(0.06172839506172839,0,0,0.06172839506172839,48.02469135802469,0)" xlink:href="#ar"/><use transform="matrix(0.06172839506172839,0,0,0.06172839506172839,64.01234567901234,0)" xlink:href="#ap"/><use transform="matrix(0.06172839506172839,0,0,0.06172839506172839,76.35802469135803,0)" xlink:href="#ak"/><use transform="matrix(0.06172839506172839,0,0,0.06172839506172839,83.70370370370371,0)" xlink:href="#as"/></g><path d="M205 0l-28-72H64L36 0H1l101-248h38L239 0h-34zm-38-99l-47-123c-12 45-31 82-46 123h93" id="at"/><path d="M135-143c-3-34-86-38-87 0 15 53 115 12 119 90S17 21 10-45l28-5c4 36 97 45 98 0-10-56-113-15-118-90-4-57 82-63 122-42 12 7 21 19 24 35" id="au"/><g id="f"><use transform="matrix(0.06172839506172839,0,0,0.06172839506172839,0,0)" xlink:href="#at"/><use transform="matrix(0.06172839506172839,0,0,0.06172839506172839,14.814814814814813,0)" xlink:href="#au"/><use transform="matrix(0.06172839506172839,0,0,0.06172839506172839,25.925925925925924,0)" xlink:href="#au"/><use transform="matrix(0.06172839506172839,0,0,0.06172839506172839,37.03703703703704,0)" xlink:href="#as"/><use transform="matrix(0.06172839506172839,0,0,0.06172839506172839,49.382716049382715,0)" xlink:href="#ai"/></g><path d="M117-194c89-4 53 116 60 194h-32v-121c0-31-8-49-39-48C34-167 62-67 57 0H25l-1-190h30c1 10-1 24 2 32 11-22 29-35 61-36" id="av"/><path d="M177-190C167-65 218 103 67 71c-23-6-38-20-44-43l32-5c15 47 100 32 89-28v-30C133-14 115 1 83 1 29 1 15-40 15-95c0-56 16-97 71-98 29-1 48 16 59 35 1-10 0-23 2-32h30zM94-22c36 0 50-32 50-73 0-42-14-75-50-75-39 0-46 34-46 75s6 73 46 73" id="aw"/><g id="g"><use transform="matrix(0.06172839506172839,0,0,0.06172839506172839,0,0)" xlink:href="#af"/><use transform="matrix(0.06172839506172839,0,0,0.06172839506172839,18.456790123456788,0)" xlink:href="#ap"/><use transform="matrix(0.06172839506172839,0,0,0.06172839506172839,30.80246913580247,0)" xlink:href="#av"/><use transform="matrix(0.06172839506172839,0,0,0.06172839506172839,43.148148148148145,0)" xlink:href="#ap"/><use transform="matrix(0.06172839506172839,0,0,0.06172839506172839,55.49382716049382,0)" xlink:href="#aw"/><use transform="matrix(0.06172839506172839,0,0,0.06172839506172839,67.8395061728395,0)" xlink:href="#as"/><use transform="matrix(0.06172839506172839,0,0,0.06172839506172839,80.18518518518519,0)" xlink:href="#ak"/></g><g id="h"><use transform="matrix(0.05,0,0,0.05,0,0)" xlink:href="#ad"/><use transform="matrix(0.05,0,0,0.05,12.950000000000001,0)" xlink:href="#ak"/><use transform="matrix(0.05,0,0,0.05,18.900000000000002,0)" xlink:href="#as"/><use transform="matrix(0.05,0,0,0.05,28.900000000000002,0)" xlink:href="#ap"/><use transform="matrix(0.05,0,0,0.05,38.900000000000006,0)" xlink:href="#ai"/><use transform="matrix(0.05,0,0,0.05,43.900000000000006,0)" xlink:href="#as"/></g><path d="M106-169C34-169 62-67 57 0H25v-261h32l-1 103c12-21 28-36 61-36 89 0 53 116 60 194h-32v-121c2-32-8-49-39-48" id="ax"/><g id="i"><use transform="matrix(0.05,0,0,0.05,0,0)" xlink:href="#ax"/><use transform="matrix(0.05,0,0,0.05,10,0)" xlink:href="#ap"/><use transform="matrix(0.05,0,0,0.05,20,0)" xlink:href="#ak"/><use transform="matrix(0.05,0,0,0.05,25.950000000000003,0)" xlink:href="#aq"/><use transform="matrix(0.05,0,0,0.05,35.95,0)" xlink:href="#ar"/><use transform="matrix(0.05,0,0,0.05,48.900000000000006,0)" xlink:href="#ap"/><use transform="matrix(0.05,0,0,0.05,58.900000000000006,0)" xlink:href="#ak"/><use transform="matrix(0.05,0,0,0.05,64.85000000000001,0)" xlink:href="#as"/></g><g id="j"><use transform="matrix(0.05,0,0,0.05,0,0)" xlink:href="#ap"/><use transform="matrix(0.05,0,0,0.05,10,0)" xlink:href="#au"/><use transform="matrix(0.05,0,0,0.05,19,0)" xlink:href="#au"/><use transform="matrix(0.05,0,0,0.05,28,0)" xlink:href="#as"/><use transform="matrix(0.05,0,0,0.05,38,0)" xlink:href="#ai"/></g><path d="M96-169c-40 0-48 33-48 73s9 75 48 75c24 0 41-14 43-38l32 2c-6 37-31 61-74 61-59 0-76-41-82-99-10-93 101-131 147-64 4 7 5 14 7 22l-32 3c-4-21-16-35-41-35" id="ay"/><g id="k"><use transform="matrix(0.05,0,0,0.05,0,0)" xlink:href="#ak"/><use transform="matrix(0.05,0,0,0.05,5.95,0)" xlink:href="#as"/><use transform="matrix(0.05,0,0,0.05,15.949999999999998,0)" xlink:href="#ay"/><use transform="matrix(0.05,0,0,0.05,24.95,0)" xlink:href="#aj"/><use transform="matrix(0.05,0,0,0.05,34.95,0)" xlink:href="#ak"/><use transform="matrix(0.05,0,0,0.05,40.900000000000006,0)" xlink:href="#aq"/><use transform="matrix(0.05,0,0,0.05,50.900000000000006,0)" xlink:href="#an"/></g><path d="M210-169c-67 3-38 105-44 169h-31v-121c0-29-5-50-35-48C34-165 62-65 56 0H25l-1-190h30c1 10-1 24 2 32 10-44 99-50 107 0 11-21 27-35 58-36 85-2 47 119 55 194h-31v-121c0-29-5-49-35-48" id="az"/><path d="M68-38c1 34 0 65-14 84H32c9-13 17-26 17-46H33v-38h35" id="aA"/><g id="l"><use transform="matrix(0.05,0,0,0.05,0,0)" xlink:href="#av"/><use transform="matrix(0.05,0,0,0.05,10,0)" xlink:href="#ap"/><use transform="matrix(0.05,0,0,0.05,20,0)" xlink:href="#az"/><use transform="matrix(0.05,0,0,0.05,34.95,0)" xlink:href="#as"/><use transform="matrix(0.05,0,0,0.05,44.95,0)" xlink:href="#aA"/></g><path d="M84 4C-5 8 30-112 23-190h32v120c0 31 7 50 39 49 72-2 45-101 50-169h31l1 190h-30c-1-10 1-25-2-33-11 22-28 36-60 37" id="aB"/><path d="M101-234c-31-9-42 10-38 44h38v23H63V0H32v-167H5v-23h27c-7-52 17-82 69-68v24" id="aC"/><g id="m"><use transform="matrix(0.05,0,0,0.05,0,0)" xlink:href="#az"/><use transform="matrix(0.05,0,0,0.05,14.950000000000001,0)" xlink:href="#ap"/><use transform="matrix(0.05,0,0,0.05,24.950000000000003,0)" xlink:href="#av"/><use transform="matrix(0.05,0,0,0.05,34.95,0)" xlink:href="#aB"/><use transform="matrix(0.05,0,0,0.05,44.95,0)" xlink:href="#aC"/><use transform="matrix(0.05,0,0,0.05,49.95,0)" xlink:href="#ap"/><use transform="matrix(0.05,0,0,0.05,59.95,0)" xlink:href="#ay"/><use transform="matrix(0.05,0,0,0.05,68.95,0)" xlink:href="#ai"/><use transform="matrix(0.05,0,0,0.05,73.95,0)" xlink:href="#aB"/><use transform="matrix(0.05,0,0,0.05,83.95,0)" xlink:href="#ak"/><use transform="matrix(0.05,0,0,0.05,89.9,0)" xlink:href="#as"/><use transform="matrix(0.05,0,0,0.05,99.9,0)" xlink:href="#ak"/><use transform="matrix(0.05,0,0,0.05,104.85000000000001,0)" xlink:href="#aA"/></g><path d="M24 0v-261h32V0H24" id="aD"/><g id="n"><use transform="matrix(0.05,0,0,0.05,0,0)" xlink:href="#az"/><use transform="matrix(0.05,0,0,0.05,14.950000000000001,0)" xlink:href="#aj"/><use transform="matrix(0.05,0,0,0.05,24.950000000000003,0)" xlink:href="#aq"/><use transform="matrix(0.05,0,0,0.05,34.95,0)" xlink:href="#as"/><use transform="matrix(0.05,0,0,0.05,44.95,0)" xlink:href="#aD"/><use transform="matrix(0.05,0,0,0.05,48.900000000000006,0)" xlink:href="#aA"/></g><g id="o"><use transform="matrix(0.05,0,0,0.05,0,0)" xlink:href="#aj"/><use transform="matrix(0.05,0,0,0.05,10,0)" xlink:href="#ar"/><use transform="matrix(0.05,0,0,0.05,22.950000000000003,0)" xlink:href="#av"/><use transform="matrix(0.05,0,0,0.05,32.95,0)" xlink:href="#as"/><use transform="matrix(0.05,0,0,0.05,42.95,0)" xlink:href="#ak"/><use transform="matrix(0.05,0,0,0.05,47.900000000000006,0)" xlink:href="#aA"/></g><path d="M24-231v-30h32v30H24zM24 0v-190h32V0H24" id="aE"/><g id="p"><use transform="matrix(0.05,0,0,0.05,0,0)" xlink:href="#au"/><use transform="matrix(0.05,0,0,0.05,9,0)" xlink:href="#as"/><use transform="matrix(0.05,0,0,0.05,19,0)" xlink:href="#ak"/><use transform="matrix(0.05,0,0,0.05,24.95,0)" xlink:href="#aE"/><use transform="matrix(0.05,0,0,0.05,28.899999999999995,0)" xlink:href="#ap"/><use transform="matrix(0.05,0,0,0.05,38.9,0)" xlink:href="#aD"/></g><g id="q"><use transform="matrix(0.05,0,0,0.05,0,0)" xlink:href="#av"/><use transform="matrix(0.05,0,0,0.05,10,0)" xlink:href="#aB"/><use transform="matrix(0.05,0,0,0.05,20,0)" xlink:href="#az"/><use transform="matrix(0.05,0,0,0.05,34.95,0)" xlink:href="#aA"/></g><path d="M115-194c55 1 70 41 70 98S169 2 115 4C84 4 66-9 55-30l1 105H24l-1-265h31l2 30c10-21 28-34 59-34zm-8 174c40 0 45-34 45-75s-6-73-45-74c-42 0-51 32-51 76 0 43 10 73 51 73" id="aF"/><g id="r"><use transform="matrix(0.05,0,0,0.05,0,0)" xlink:href="#ai"/><use transform="matrix(0.05,0,0,0.05,5,0)" xlink:href="#al"/><use transform="matrix(0.05,0,0,0.05,14,0)" xlink:href="#aF"/><use transform="matrix(0.05,0,0,0.05,24,0)" xlink:href="#as"/><use transform="matrix(0.05,0,0,0.05,34,0)" xlink:href="#aA"/></g><g id="s"><use transform="matrix(0.05,0,0,0.05,0,0)" xlink:href="#ap"/><use transform="matrix(0.05,0,0,0.05,10,0)" xlink:href="#au"/><use transform="matrix(0.05,0,0,0.05,19,0)" xlink:href="#au"/><use transform="matrix(0.05,0,0,0.05,28,0)" xlink:href="#as"/><use transform="matrix(0.05,0,0,0.05,38,0)" xlink:href="#ai"/></g><g id="t"><use transform="matrix(0.05,0,0,0.05,0,0)" xlink:href="#ai"/><use transform="matrix(0.05,0,0,0.05,5,0)" xlink:href="#ap"/><use transform="matrix(0.05,0,0,0.05,15,0)" xlink:href="#aw"/><use transform="matrix(0.05,0,0,0.05,25,0)" xlink:href="#aA"/></g><g id="u"><use transform="matrix(0.05,0,0,0.05,0,0)" xlink:href="#aF"/><use transform="matrix(0.05,0,0,0.05,10,0)" xlink:href="#aB"/><use transform="matrix(0.05,0,0,0.05,20,0)" xlink:href="#ak"/><use transform="matrix(0.05,0,0,0.05,25.950000000000003,0)" xlink:href="#ay"/><use transform="matrix(0.05,0,0,0.05,34.95,0)" xlink:href="#ax"/><use transform="matrix(0.05,0,0,0.05,44.95,0)" xlink:href="#ap"/><use transform="matrix(0.05,0,0,0.05,54.95,0)" xlink:href="#au"/><use transform="matrix(0.05,0,0,0.05,63.95,0)" xlink:href="#as"/></g><g id="v"><use transform="matrix(0.05,0,0,0.05,0,0)" xlink:href="#aF"/><use transform="matrix(0.05,0,0,0.05,10,0)" xlink:href="#ak"/><use transform="matrix(0.05,0,0,0.05,15.949999999999998,0)" xlink:href="#aE"/><use transform="matrix(0.05,0,0,0.05,19.9,0)" xlink:href="#ay"/><use transform="matrix(0.05,0,0,0.05,28.899999999999995,0)" xlink:href="#as"/></g><g id="w"><use transform="matrix(0.05,0,0,0.05,0,0)" xlink:href="#ap"/><use transform="matrix(0.05,0,0,0.05,10,0)" xlink:href="#av"/><use transform="matrix(0.05,0,0,0.05,20,0)" xlink:href="#aq"/></g><g id="x"><use transform="matrix(0.05,0,0,0.05,0,0)" xlink:href="#aq"/><use transform="matrix(0.05,0,0,0.05,10,0)" xlink:href="#ap"/><use transform="matrix(0.05,0,0,0.05,20,0)" xlink:href="#ai"/><use transform="matrix(0.05,0,0,0.05,25,0)" xlink:href="#as"/><use transform="matrix(0.05,0,0,0.05,35,0)" xlink:href="#aA"/></g><g id="y"><use transform="matrix(0.05,0,0,0.05,0,0)" xlink:href="#aD"/><use transform="matrix(0.05,0,0,0.05,3.95,0)" xlink:href="#aj"/><use transform="matrix(0.05,0,0,0.05,13.949999999999998,0)" xlink:href="#ay"/><use transform="matrix(0.05,0,0,0.05,22.95,0)" xlink:href="#ap"/><use transform="matrix(0.05,0,0,0.05,32.95,0)" xlink:href="#ai"/><use transform="matrix(0.05,0,0,0.05,37.95,0)" xlink:href="#aE"/><use transform="matrix(0.05,0,0,0.05,41.900000000000006,0)" xlink:href="#aj"/><use transform="matrix(0.05,0,0,0.05,51.900000000000006,0)" xlink:href="#av"/><use transform="matrix(0.05,0,0,0.05,61.900000000000006,0)" xlink:href="#aA"/></g><g id="z"><use transform="matrix(0.05,0,0,0.05,0,0)" xlink:href="#ai"/><use transform="matrix(0.05,0,0,0.05,5,0)" xlink:href="#as"/><use transform="matrix(0.05,0,0,0.05,15,0)" xlink:href="#ap"/><use transform="matrix(0.05,0,0,0.05,25,0)" xlink:href="#az"/><use transform="matrix(0.05,0,0,0.05,39.95,0)" xlink:href="#aA"/></g><path d="M24-231v-30h32v30H24zM-9 49c24 4 33-6 33-30v-209h32V24c2 40-23 58-65 49V49" id="aG"/><path d="M115-194c53 0 69 39 70 98 0 66-23 100-70 100C84 3 66-7 56-30L54 0H23l1-261h32v101c10-23 28-34 59-34zm-8 174c40 0 45-34 45-75 0-40-5-75-45-74-42 0-51 32-51 76 0 43 10 73 51 73" id="aH"/><g id="A"><use transform="matrix(0.05,0,0,0.05,0,0)" xlink:href="#aG"/><use transform="matrix(0.05,0,0,0.05,3.95,0)" xlink:href="#aj"/><use transform="matrix(0.05,0,0,0.05,13.949999999999998,0)" xlink:href="#aH"/></g><g id="B"><use transform="matrix(0.05,0,0,0.05,0,0)" xlink:href="#av"/><use transform="matrix(0.05,0,0,0.05,10,0)" xlink:href="#aB"/><use transform="matrix(0.05,0,0,0.05,20,0)" xlink:href="#az"/><use transform="matrix(0.05,0,0,0.05,34.95,0)" xlink:href="#aH"/><use transform="matrix(0.05,0,0,0.05,44.95,0)" xlink:href="#as"/><use transform="matrix(0.05,0,0,0.05,54.95,0)" xlink:href="#ak"/></g><path d="M137 0h-34L2-248h35l83 218 83-218h36" id="aI"/><g id="C"><use transform="matrix(0.05,0,0,0.05,0,0)" xlink:href="#aI"/><use transform="matrix(0.05,0,0,0.05,11.65,0)" xlink:href="#aE"/><use transform="matrix(0.05,0,0,0.05,15.600000000000001,0)" xlink:href="#as"/><use transform="matrix(0.05,0,0,0.05,25.6,0)" xlink:href="#ar"/></g><use transform="matrix(0.05,0,0,0.05,0,0)" xlink:href="#ap" id="D"/><g id="E"><use transform="matrix(0.05,0,0,0.05,0,0)" xlink:href="#au"/><use transform="matrix(0.05,0,0,0.05,9,0)" xlink:href="#ai"/><use transform="matrix(0.05,0,0,0.05,14,0)" xlink:href="#aj"/><use transform="matrix(0.05,0,0,0.05,24,0)" xlink:href="#ak"/><use transform="matrix(0.05,0,0,0.05,29.950000000000003,0)" xlink:href="#as"/><use transform="matrix(0.05,0,0,0.05,39.95,0)" xlink:href="#aq"/></g><g id="F"><use transform="matrix(0.05,0,0,0.05,0,0)" xlink:href="#ax"/><use transform="matrix(0.05,0,0,0.05,10,0)" xlink:href="#ap"/><use transform="matrix(0.05,0,0,0.05,20,0)" xlink:href="#ak"/><use transform="matrix(0.05,0,0,0.05,25.950000000000003,0)" xlink:href="#aq"/><use transform="matrix(0.05,0,0,0.05,35.95,0)" xlink:href="#ar"/><use transform="matrix(0.05,0,0,0.05,48.900000000000006,0)" xlink:href="#ap"/><use transform="matrix(0.05,0,0,0.05,58.900000000000006,0)" xlink:href="#ak"/><use transform="matrix(0.05,0,0,0.05,64.85000000000001,0)" xlink:href="#as"/></g><g id="G"><use transform="matrix(0.05,0,0,0.05,0,0)" xlink:href="#ap"/><use transform="matrix(0.05,0,0,0.05,10,0)" xlink:href="#av"/><use transform="matrix(0.05,0,0,0.05,20,0)" xlink:href="#aq"/></g><g id="H"><use transform="matrix(0.05,0,0,0.05,0,0)" xlink:href="#aE"/><use transform="matrix(0.05,0,0,0.05,3.95,0)" xlink:href="#ai"/><use transform="matrix(0.05,0,0,0.05,8.95,0)" xlink:href="#au"/></g><g id="I"><use transform="matrix(0.05,0,0,0.05,0,0)" xlink:href="#aE"/><use transform="matrix(0.05,0,0,0.05,3.95,0)" xlink:href="#av"/><use transform="matrix(0.05,0,0,0.05,13.949999999999998,0)" xlink:href="#aC"/><use transform="matrix(0.05,0,0,0.05,18.95,0)" xlink:href="#aj"/><use transform="matrix(0.05,0,0,0.05,28.950000000000003,0)" xlink:href="#ak"/><use transform="matrix(0.05,0,0,0.05,34.9,0)" xlink:href="#az"/><use transform="matrix(0.05,0,0,0.05,49.85,0)" xlink:href="#ap"/><use transform="matrix(0.05,0,0,0.05,59.85,0)" xlink:href="#ai"/><use transform="matrix(0.05,0,0,0.05,64.85,0)" xlink:href="#aE"/><use transform="matrix(0.05,0,0,0.05,68.8,0)" xlink:href="#aj"/><use transform="matrix(0.05,0,0,0.05,78.8,0)" xlink:href="#av"/></g><g id="J"><use transform="matrix(0.05,0,0,0.05,0,0)" xlink:href="#au"/><use transform="matrix(0.05,0,0,0.05,9,0)" xlink:href="#ai"/><use transform="matrix(0.05,0,0,0.05,14,0)" xlink:href="#aj"/><use transform="matrix(0.05,0,0,0.05,24,0)" xlink:href="#ak"/><use transform="matrix(0.05,0,0,0.05,29.950000000000003,0)" xlink:href="#as"/><use transform="matrix(0.05,0,0,0.05,39.95,0)" xlink:href="#aq"/></g><g id="K"><use transform="matrix(0.05,0,0,0.05,0,0)" xlink:href="#ap"/><use transform="matrix(0.05,0,0,0.05,10,0)" xlink:href="#aD"/><use transform="matrix(0.05,0,0,0.05,13.949999999999998,0)" xlink:href="#aj"/><use transform="matrix(0.05,0,0,0.05,23.95,0)" xlink:href="#av"/><use transform="matrix(0.05,0,0,0.05,33.95,0)" xlink:href="#aw"/></g><g id="L"><use transform="matrix(0.05,0,0,0.05,0,0)" xlink:href="#au"/><use transform="matrix(0.05,0,0,0.05,9,0)" xlink:href="#aE"/><use transform="matrix(0.05,0,0,0.05,12.949999999999998,0)" xlink:href="#aq"/><use transform="matrix(0.05,0,0,0.05,22.95,0)" xlink:href="#as"/></g><g id="M"><use transform="matrix(0.05,0,0,0.05,0,0)" xlink:href="#aE"/><use transform="matrix(0.05,0,0,0.05,3.95,0)" xlink:href="#ai"/></g><path d="M30 0v-248h187v28H63v79h144v27H63v87h162V0H30" id="aJ"/><g id="N"><use transform="matrix(0.05,0,0,0.05,0,0)" xlink:href="#aJ"/><use transform="matrix(0.05,0,0,0.05,12,0)" xlink:href="#aq"/><use transform="matrix(0.05,0,0,0.05,22,0)" xlink:href="#aE"/><use transform="matrix(0.05,0,0,0.05,25.950000000000003,0)" xlink:href="#ai"/></g><g id="O"><use transform="matrix(0.05,0,0,0.05,0,0)" xlink:href="#ap"/><use transform="matrix(0.05,0,0,0.05,10,0)" xlink:href="#aD"/><use transform="matrix(0.05,0,0,0.05,13.949999999999998,0)" xlink:href="#aj"/><use transform="matrix(0.05,0,0,0.05,23.95,0)" xlink:href="#av"/><use transform="matrix(0.05,0,0,0.05,33.95,0)" xlink:href="#aw"/></g><g id="P"><use transform="matrix(0.05,0,0,0.05,0,0)" xlink:href="#ae"/><use transform="matrix(0.05,0,0,0.05,12,0)" xlink:href="#as"/><use transform="matrix(0.05,0,0,0.05,22,0)" xlink:href="#ap"/><use transform="matrix(0.05,0,0,0.05,32,0)" xlink:href="#ak"/><use transform="matrix(0.05,0,0,0.05,37.95,0)" xlink:href="#ay"/><use transform="matrix(0.05,0,0,0.05,46.95,0)" xlink:href="#ax"/></g><g id="Q"><use transform="matrix(0.05,0,0,0.05,0,0)" xlink:href="#aC"/><use transform="matrix(0.05,0,0,0.05,5,0)" xlink:href="#aj"/><use transform="matrix(0.05,0,0,0.05,15,0)" xlink:href="#ak"/></g><path d="M108 0H70L1-190h34L89-25l56-165h34" id="aK"/><g id="R"><use transform="matrix(0.05,0,0,0.05,0,0)" xlink:href="#aF"/><use transform="matrix(0.05,0,0,0.05,10,0)" xlink:href="#ak"/><use transform="matrix(0.05,0,0,0.05,15.949999999999998,0)" xlink:href="#as"/><use transform="matrix(0.05,0,0,0.05,25.950000000000003,0)" xlink:href="#aK"/><use transform="matrix(0.05,0,0,0.05,34.95,0)" xlink:href="#aE"/><use transform="matrix(0.05,0,0,0.05,38.900000000000006,0)" xlink:href="#aj"/><use transform="matrix(0.05,0,0,0.05,48.900000000000006,0)" xlink:href="#aB"/><use transform="matrix(0.05,0,0,0.05,58.900000000000006,0)" xlink:href="#au"/><use transform="matrix(0.05,0,0,0.05,67.9,0)" xlink:href="#aD"/><use transform="matrix(0.05,0,0,0.05,71.85000000000001,0)" xlink:href="#al"/></g><g id="S"><use transform="matrix(0.05,0,0,0.05,0,0)" xlink:href="#ap"/><use transform="matrix(0.05,0,0,0.05,10,0)" xlink:href="#au"/><use transform="matrix(0.05,0,0,0.05,19,0)" xlink:href="#au"/><use transform="matrix(0.05,0,0,0.05,28,0)" xlink:href="#as"/><use transform="matrix(0.05,0,0,0.05,38,0)" xlink:href="#ai"/><use transform="matrix(0.05,0,0,0.05,43,0)" xlink:href="#au"/></g><path d="M30-248c118-7 216 8 213 122C240-48 200 0 122 0H30v-248zM63-27c89 8 146-16 146-99s-60-101-146-95v194" id="aL"/><g id="T"><use transform="matrix(0.05,0,0,0.05,0,0)" xlink:href="#aL"/><use transform="matrix(0.05,0,0,0.05,12.950000000000001,0)" xlink:href="#as"/><use transform="matrix(0.05,0,0,0.05,22.950000000000003,0)" xlink:href="#aD"/><use transform="matrix(0.05,0,0,0.05,26.900000000000002,0)" xlink:href="#as"/><use transform="matrix(0.05,0,0,0.05,36.900000000000006,0)" xlink:href="#ai"/><use transform="matrix(0.05,0,0,0.05,41.900000000000006,0)" xlink:href="#as"/></g><path d="M141 0L90-78 38 0H4l68-98-65-92h35l48 74 47-74h35l-64 92 68 98h-35" id="aM"/><g id="U"><use transform="matrix(0.05,0,0,0.05,0,0)" xlink:href="#as"/><use transform="matrix(0.05,0,0,0.05,10,0)" xlink:href="#aM"/><use transform="matrix(0.05,0,0,0.05,19,0)" xlink:href="#aE"/><use transform="matrix(0.05,0,0,0.05,22.95,0)" xlink:href="#au"/><use transform="matrix(0.05,0,0,0.05,31.950000000000003,0)" xlink:href="#ai"/><use transform="matrix(0.05,0,0,0.05,36.95,0)" xlink:href="#aE"/><use transform="matrix(0.05,0,0,0.05,40.900000000000006,0)" xlink:href="#av"/><use transform="matrix(0.05,0,0,0.05,50.900000000000006,0)" xlink:href="#aw"/></g><path d="M30 0v-248h33v221h125V0H30" id="aN"/><g id="V"><use transform="matrix(0.05,0,0,0.05,0,0)" xlink:href="#aN"/><use transform="matrix(0.05,0,0,0.05,10,0)" xlink:href="#aj"/><use transform="matrix(0.05,0,0,0.05,20,0)" xlink:href="#aw"/><use transform="matrix(0.05,0,0,0.05,30,0)" xlink:href="#aE"/><use transform="matrix(0.05,0,0,0.05,33.95,0)" xlink:href="#ay"/><use transform="matrix(0.05,0,0,0.05,42.95,0)" xlink:href="#ap"/><use transform="matrix(0.05,0,0,0.05,52.95,0)" xlink:href="#aD"/><use transform="matrix(0.05,0,0,0.05,56.900000000000006,0)" xlink:href="#aD"/><use transform="matrix(0.05,0,0,0.05,60.85,0)" xlink:href="#al"/></g><g id="W"><use transform="matrix(0.05,0,0,0.05,0,0)" xlink:href="#aw"/><use transform="matrix(0.05,0,0,0.05,10,0)" xlink:href="#ak"/><use transform="matrix(0.05,0,0,0.05,15.949999999999998,0)" xlink:href="#aj"/><use transform="matrix(0.05,0,0,0.05,25.950000000000003,0)" xlink:href="#aB"/><use transform="matrix(0.05,0,0,0.05,35.95,0)" xlink:href="#aF"/></g><g id="X"><use transform="matrix(0.05,0,0,0.05,0,0)" xlink:href="#aj"/><use transform="matrix(0.05,0,0,0.05,10,0)" xlink:href="#ar"/><use transform="matrix(0.05,0,0,0.05,22.950000000000003,0)" xlink:href="#av"/><use transform="matrix(0.05,0,0,0.05,32.95,0)" xlink:href="#as"/><use transform="matrix(0.05,0,0,0.05,42.95,0)" xlink:href="#ak"/><use transform="matrix(0.05,0,0,0.05,48.900000000000006,0)" xlink:href="#au"/><use transform="matrix(0.05,0,0,0.05,57.900000000000006,0)" xlink:href="#aA"/></g><g id="Y"><use transform="matrix(0.05,0,0,0.05,0,0)" xlink:href="#az"/><use transform="matrix(0.05,0,0,0.05,14.950000000000001,0)" xlink:href="#ap"/><use transform="matrix(0.05,0,0,0.05,24.950000000000003,0)" xlink:href="#av"/><use transform="matrix(0.05,0,0,0.05,34.95,0)" xlink:href="#aB"/><use transform="matrix(0.05,0,0,0.05,44.95,0)" xlink:href="#aC"/><use transform="matrix(0.05,0,0,0.05,49.95,0)" xlink:href="#ap"/><use transform="matrix(0.05,0,0,0.05,59.95,0)" xlink:href="#ai"/><use transform="matrix(0.05,0,0,0.05,64.95,0)" xlink:href="#aB"/><use transform="matrix(0.05,0,0,0.05,74.95,0)" xlink:href="#ak"/><use transform="matrix(0.05,0,0,0.05,80.9,0)" xlink:href="#as"/><use transform="matrix(0.05,0,0,0.05,90.9,0)" xlink:href="#ak"/><use transform="matrix(0.05,0,0,0.05,96.85000000000001,0)" xlink:href="#au"/><use transform="matrix(0.05,0,0,0.05,105.85000000000001,0)" xlink:href="#aA"/></g><g id="Z"><use transform="matrix(0.05,0,0,0.05,0,0)" xlink:href="#az"/><use transform="matrix(0.05,0,0,0.05,14.950000000000001,0)" xlink:href="#aj"/><use transform="matrix(0.05,0,0,0.05,24.950000000000003,0)" xlink:href="#aq"/><use transform="matrix(0.05,0,0,0.05,34.95,0)" xlink:href="#as"/><use transform="matrix(0.05,0,0,0.05,44.95,0)" xlink:href="#aD"/><use transform="matrix(0.05,0,0,0.05,48.900000000000006,0)" xlink:href="#au"/><use transform="matrix(0.05,0,0,0.05,57.900000000000006,0)" xlink:href="#aA"/></g><g id="aa"><use transform="matrix(0.05,0,0,0.05,0,0)" xlink:href="#ai"/><use transform="matrix(0.05,0,0,0.05,5,0)" xlink:href="#al"/><use transform="matrix(0.05,0,0,0.05,14,0)" xlink:href="#aF"/><use transform="matrix(0.05,0,0,0.05,24,0)" xlink:href="#as"/><use transform="matrix(0.05,0,0,0.05,34,0)" xlink:href="#au"/><use transform="matrix(0.05,0,0,0.05,43,0)" xlink:href="#aA"/></g><g id="ab"><use transform="matrix(0.05,0,0,0.05,0,0)" xlink:href="#ai"/><use transform="matrix(0.05,0,0,0.05,5,0)" xlink:href="#as"/><use transform="matrix(0.05,0,0,0.05,15,0)" xlink:href="#ap"/><use transform="matrix(0.05,0,0,0.05,25,0)" xlink:href="#az"/><use transform="matrix(0.05,0,0,0.05,39.95,0)" xlink:href="#au"/></g><g id="ac"><use transform="matrix(0.05,0,0,0.05,0,0)" xlink:href="#ae"/><use transform="matrix(0.05,0,0,0.05,12,0)" xlink:href="#as"/><use transform="matrix(0.05,0,0,0.05,22,0)" xlink:href="#ai"/><use transform="matrix(0.05,0,0,0.05,27,0)" xlink:href="#ai"/><use transform="matrix(0.05,0,0,0.05,32,0)" xlink:href="#aE"/><use transform="matrix(0.05,0,0,0.05,35.95,0)" xlink:href="#av"/><use transform="matrix(0.05,0,0,0.05,45.95,0)" xlink:href="#aw"/><use transform="matrix(0.05,0,0,0.05,55.95,0)" xlink:href="#au"/></g></defs></g></svg>