<svg xmlns="http://www.w3.org/2000/svg" xmlns:xlink="http://www.w3.org/1999/xlink" xmlns:lucid="lucid" width="580.7" height="900"><g transform="translate(-179.3 -140)" lucid:page-tab-id="0_0"><path d="M264.75 504.75c0 8.15-6.6 14.75-14.75 14.75s-14.75-6.6-14.75-14.75S241.85 490 250 490s14.75 6.6 14.75 14.75z" stroke="#000" stroke-width="2" fill="#fff"/><path d="M220 490h60v118h-60z" fill="none"/><path d="M250 519.5v41.3l30 47.2m-30-47.2L220 608m0-73.75h60" stroke="#000" stroke-width="2" fill="none"/><use xlink:href="#a" transform="matrix(1,0,0,1,140,608) translate(60.3 14.4)"/><use xlink:href="#b" transform="matrix(1,0,0,1,140,608) translate(119.80000000000001 14.4)"/><use xlink:href="#c" transform="matrix(1,0,0,1,140,608) translate(65.55 36)"/><path d="M380 160h360v860H380z" stroke="#000" stroke-width="2" fill="none"/><use xlink:href="#d" transform="matrix(1,0,0,1,388,168) translate(24.62345679012347 17.77777777777778)"/><use xlink:href="#e" transform="matrix(1,0,0,1,388,168) translate(82.58641975308643 17.77777777777778)"/><use xlink:href="#f" transform="matrix(1,0,0,1,388,168) translate(107.27777777777779 17.77777777777778)"/><use xlink:href="#g" transform="matrix(1,0,0,1,388,168) translate(152.95679012345678 17.77777777777778)"/><use xlink:href="#h" transform="matrix(1,0,0,1,388,168) translate(205.91975308641975 17.77777777777778)"/><use xlink:href="#i" transform="matrix(1,0,0,1,388,168) translate(304.56172839506166 17.77777777777778)"/><use xlink:href="#j" transform="matrix(1,0,0,1,388,168) translate(93.04938271604938 44.44444444444444)"/><path d="M700 290c0 38.66-62.68 70-140 70s-140-31.34-140-70 62.68-70 140-70 140 31.34 140 70z" stroke="#000" stroke-width="2" fill="#fff"/><use xlink:href="#k" transform="matrix(1,0,0,1,420,220) translate(39.105000000000004 53.775)"/><use xlink:href="#l" transform="matrix(1,0,0,1,420,220) translate(98.00500000000001 53.775)"/><use xlink:href="#m" transform="matrix(1,0,0,1,420,220) translate(174.955 53.775)"/><use xlink:href="#n" transform="matrix(1,0,0,1,420,220) translate(221.905 53.775)"/><use xlink:href="#o" transform="matrix(1,0,0,1,420,220) translate(106.605 75.375)"/><use xlink:href="#p" transform="matrix(1,0,0,1,420,220) translate(35.98000000000002 96.97500000000001)"/><path d="M700 450c0 38.66-62.68 70-140 70s-140-31.34-140-70 62.68-70 140-70 140 31.34 140 70z" stroke="#000" stroke-width="2" fill="#fff"/><use xlink:href="#k" transform="matrix(1,0,0,1,420,380) translate(30.654999999999998 62.525)"/><use xlink:href="#l" transform="matrix(1,0,0,1,420,380) translate(89.555 62.525)"/><use xlink:href="#m" transform="matrix(1,0,0,1,420,380) translate(166.505 62.525)"/><use xlink:href="#q" transform="matrix(1,0,0,1,420,380) translate(213.45499999999998 62.525)"/><use xlink:href="#r" transform="matrix(1,0,0,1,420,380) translate(40.205 84.125)"/><use xlink:href="#s" transform="matrix(1,0,0,1,420,380) translate(161.85500000000002 84.125)"/><use xlink:href="#t" transform="matrix(1,0,0,1,420,380) translate(199.805 84.125)"/><path d="M700 610c0 38.66-62.68 70-140 70s-140-31.34-140-70 62.68-70 140-70 140 31.34 140 70z" stroke="#000" stroke-width="2" fill="#fff"/><use xlink:href="#k" transform="matrix(1,0,0,1,420,540) translate(33.629999999999995 62.525)"/><use xlink:href="#m" transform="matrix(1,0,0,1,420,540) translate(92.53 62.525)"/><use xlink:href="#u" transform="matrix(1,0,0,1,420,540) translate(139.48000000000002 62.525)"/><use xlink:href="#n" transform="matrix(1,0,0,1,420,540) translate(227.38 62.525)"/><use xlink:href="#v" transform="matrix(1,0,0,1,420,540) translate(48.65499999999999 84.125)"/><use xlink:href="#w" transform="matrix(1,0,0,1,420,540) translate(116.50499999999998 84.125)"/><use xlink:href="#x" transform="matrix(1,0,0,1,420,540) translate(159.505 84.125)"/><use xlink:href="#y" transform="matrix(1,0,0,1,420,540) translate(179.505 84.125)"/><path d="M700 770c0 38.66-62.68 70-140 70s-140-31.34-140-70 62.68-70 140-70 140 31.34 140 70z" stroke="#000" stroke-width="2" fill="#fff"/><g><use xlink:href="#z" transform="matrix(1,0,0,1,420,700) translate(20.329999999999995 62.525)"/><use xlink:href="#A" transform="matrix(1,0,0,1,420,700) translate(63.879999999999995 62.525)"/><use xlink:href="#B" transform="matrix(1,0,0,1,420,700) translate(134.78 62.525)"/><use xlink:href="#C" transform="matrix(1,0,0,1,420,700) translate(21.17999999999999 84.125)"/><use xlink:href="#D" transform="matrix(1,0,0,1,420,700) translate(83.02999999999999 84.125)"/><use xlink:href="#x" transform="matrix(1,0,0,1,420,700) translate(166.88 84.125)"/><use xlink:href="#E" transform="matrix(1,0,0,1,420,700) translate(186.88 84.125)"/><use xlink:href="#F" transform="matrix(1,0,0,1,420,700) translate(216.88 84.125)"/></g><path d="M700 930c0 38.66-62.68 70-140 70s-140-31.34-140-70 62.68-70 140-70 140 31.34 140 70z" stroke="#000" stroke-width="2" fill="#fff"/><g><use xlink:href="#G" transform="matrix(1,0,0,1,420,860) translate(20.204999999999995 62.86875)"/><use xlink:href="#H" transform="matrix(1,0,0,1,420,860) translate(86.105 62.86875)"/><use xlink:href="#I" transform="matrix(1,0,0,1,420,860) translate(136.005 62.86875)"/><use xlink:href="#J" transform="matrix(1,0,0,1,420,860) translate(161.95499999999998 62.86875)"/><use xlink:href="#K" transform="matrix(1,0,0,1,420,860) translate(223.855 62.86875)"/><use xlink:href="#m" transform="matrix(1,0,0,1,420,860) translate(19.880000000000006 84.46875)"/><use xlink:href="#L" transform="matrix(1,0,0,1,420,860) translate(66.83000000000001 84.46875)"/><use xlink:href="#M" transform="matrix(1,0,0,1,420,860) translate(84.78000000000002 84.46875)"/><use xlink:href="#I" transform="matrix(1,0,0,1,420,860) translate(141.73000000000002 84.46875)"/><use xlink:href="#N" transform="matrix(1,0,0,1,420,860) translate(167.68 84.46875)"/><use xlink:href="#x" transform="matrix(1,0,0,1,420,860) translate(188.28 84.46875)"/><use xlink:href="#O" transform="matrix(1,0,0,1,420,860) translate(208.28 84.46875)"/></g><path d="M417.18 290H322v270h-70" fill="none"/><path d="M417.18 290h-9.67m-9.66 0H378.5m-9.67 0H349.5m-9.68 0H322v1.53m0 9.67v19.34m0 9.67v19.35m0 9.67v19.34m0 9.67v19.34m0 9.67v19.35m0 9.66v19.34m0 9.67v19.34m0 9.68v19.34m0 9.67v19.33m-2.3 7.37h-19.35m-9.67 0h-19.34m-9.67 0H252M399.82 300.18L417.04 290l-17.22-10.18M252.03 560H248" stroke="#000" stroke-width="2" fill="none"/><path d="M417.18 450H340v110h-88" fill="none"/><path d="M417.18 450h-10.2m-10.18 0h-20.4m-10.18 0h-20.38m-5.84 4.35v20.4m0 10.18v20.38m0 10.2v20.4m0 10.18V560h-6.46m-10.2 0h-20.38m-10.2 0H272.4m-10.2 0H252M399.82 460.18L417.04 450l-17.22-10.18M252.03 560H248" stroke="#000" stroke-width="2" fill="none"/><path d="M417.18 610H360v-50H252" fill="none"/><path d="M417.18 610h-10.24m-10.25 0h-20.5m-10.25 0H360v-14.55m0-10.24v-20.5m-5.53-4.7h-20.5m-10.24 0h-20.5M293 560h-20.5m-10.25 0H252M399.82 620.18L417.04 610l-17.22-10.18M252.03 560H248" stroke="#000" stroke-width="2" fill="none"/><path d="M417.18 770H340V560h-88" fill="none"/><path d="M417.18 770h-9.62m-9.62 0H378.7m-9.62 0h-19.24m-9.62 0H340v-19.02m0-9.62v-19.24m0-9.62v-19.24m0-9.62V664.4m0-9.62v-19.24m0-9.62v-19.24m0-9.62v-19.24m0-9.62V560h-11.04m-9.62 0H300.1m-9.62 0h-19.24m-9.62 0H252M399.82 780.18L417.04 770l-17.22-10.18M252.03 560H248" stroke="#000" stroke-width="2" fill="none"/><path d="M417.18 930H320V560h-68" fill="none"/><path d="M417.18 930h-9.9m-9.92 0h-19.82m-9.9 0H347.8m-9.9 0H320v-1.93m0-9.9v-19.83m0-9.9V868.6m0-9.9v-19.82m0-9.9v-19.84m0-9.9V779.4m0-9.9v-19.82m0-9.9v-19.83m0-9.9V690.2m0-9.92v-19.82m0-9.9v-19.83m0-9.9V601m0-9.9v-19.83m0-9.92V560h-18.45m-9.9 0H271.8m-9.9 0H252M399.82 940.18L417.04 930l-17.22-10.18M252.03 560H248" stroke="#000" stroke-width="2" fill="none"/><defs><path d="M190 0L58-211 59 0H30v-248h39L202-35l-2-213h31V0h-41" id="P"/><path d="M100-194c62-1 85 37 85 99 1 63-27 99-86 99S16-35 15-95c0-66 28-99 85-99zM99-20c44 1 53-31 53-75 0-43-8-75-51-75s-53 32-53 75 10 74 51 75" id="Q"/><path d="M117-194c89-4 53 116 60 194h-32v-121c0-31-8-49-39-48C34-167 62-67 57 0H25l-1-190h30c1 10-1 24 2 32 11-22 29-35 61-36" id="R"/><path d="M16-82v-28h88v28H16" id="S"/><path d="M33 0v-248h34V0H33" id="T"/><path d="M127-220V0H93v-220H8v-28h204v28h-85" id="U"/><g id="a"><use transform="matrix(0.05,0,0,0.05,0,0)" xlink:href="#P"/><use transform="matrix(0.05,0,0,0.05,12.950000000000001,0)" xlink:href="#Q"/><use transform="matrix(0.05,0,0,0.05,22.950000000000003,0)" xlink:href="#R"/><use transform="matrix(0.05,0,0,0.05,32.95,0)" xlink:href="#S"/><use transform="matrix(0.05,0,0,0.05,38.900000000000006,0)" xlink:href="#T"/><use transform="matrix(0.05,0,0,0.05,43.900000000000006,0)" xlink:href="#U"/></g><path d="M212-179c-10-28-35-45-73-45-59 0-87 40-87 99 0 60 29 101 89 101 43 0 62-24 78-52l27 14C228-24 195 4 139 4 59 4 22-46 18-125c-6-104 99-153 187-111 19 9 31 26 39 46" id="V"/><path d="M185-189c-5-48-123-54-124 2 14 75 158 14 163 119 3 78-121 87-175 55-17-10-28-26-33-46l33-7c5 56 141 63 141-1 0-78-155-14-162-118-5-82 145-84 179-34 5 7 8 16 11 25" id="W"/><path d="M240 0l2-218c-23 76-54 145-80 218h-23L58-218 59 0H30v-248h44l77 211c21-75 51-140 76-211h43V0h-30" id="X"/><g id="b"><use transform="matrix(0.05,0,0,0.05,0,0)" xlink:href="#V"/><use transform="matrix(0.05,0,0,0.05,12.950000000000001,0)" xlink:href="#W"/><use transform="matrix(0.05,0,0,0.05,24.950000000000003,0)" xlink:href="#X"/></g><path d="M30 0v-248h187v28H63v79h144v27H63v87h162V0H30" id="Y"/><path d="M210-169c-67 3-38 105-44 169h-31v-121c0-29-5-50-35-48C34-165 62-65 56 0H25l-1-190h30c1 10-1 24 2 32 10-44 99-50 107 0 11-21 27-35 58-36 85-2 47 119 55 194h-31v-121c0-29-5-49-35-48" id="Z"/><path d="M115-194c55 1 70 41 70 98S169 2 115 4C84 4 66-9 55-30l1 105H24l-1-265h31l2 30c10-21 28-34 59-34zm-8 174c40 0 45-34 45-75s-6-73-45-74c-42 0-51 32-51 76 0 43 10 73 51 73" id="aa"/><path d="M24 0v-261h32V0H24" id="ab"/><path d="M179-190L93 31C79 59 56 82 12 73V49c39 6 53-20 64-50L1-190h34L92-34l54-156h33" id="ac"/><path d="M100-194c63 0 86 42 84 106H49c0 40 14 67 53 68 26 1 43-12 49-29l28 8c-11 28-37 45-77 45C44 4 14-33 15-96c1-61 26-98 85-98zm52 81c6-60-76-77-97-28-3 7-6 17-6 28h103" id="ad"/><path d="M135-143c-3-34-86-38-87 0 15 53 115 12 119 90S17 21 10-45l28-5c4 36 97 45 98 0-10-56-113-15-118-90-4-57 82-63 122-42 12 7 21 19 24 35" id="ae"/><g id="c"><use transform="matrix(0.05,0,0,0.05,0,0)" xlink:href="#Y"/><use transform="matrix(0.05,0,0,0.05,12,0)" xlink:href="#Z"/><use transform="matrix(0.05,0,0,0.05,26.950000000000003,0)" xlink:href="#aa"/><use transform="matrix(0.05,0,0,0.05,36.95,0)" xlink:href="#ab"/><use transform="matrix(0.05,0,0,0.05,40.900000000000006,0)" xlink:href="#Q"/><use transform="matrix(0.05,0,0,0.05,50.900000000000006,0)" xlink:href="#ac"/><use transform="matrix(0.05,0,0,0.05,59.900000000000006,0)" xlink:href="#ad"/><use transform="matrix(0.05,0,0,0.05,69.9,0)" xlink:href="#ad"/><use transform="matrix(0.05,0,0,0.05,79.9,0)" xlink:href="#ae"/></g><path d="M59-47c-2 24 18 29 38 22v24C64 9 27 4 27-40v-127H5v-23h24l9-43h21v43h35v23H59v120" id="af"/><path d="M114-163C36-179 61-72 57 0H25l-1-190h30c1 12-1 29 2 39 6-27 23-49 58-41v29" id="ag"/><g id="d"><use transform="matrix(0.06172839506172839,0,0,0.06172839506172839,0,0)" xlink:href="#W"/><use transform="matrix(0.06172839506172839,0,0,0.06172839506172839,14.814814814814813,0)" xlink:href="#af"/><use transform="matrix(0.06172839506172839,0,0,0.06172839506172839,20.98765432098765,0)" xlink:href="#Q"/><use transform="matrix(0.06172839506172839,0,0,0.06172839506172839,33.33333333333333,0)" xlink:href="#ag"/><use transform="matrix(0.06172839506172839,0,0,0.06172839506172839,40.679012345679006,0)" xlink:href="#ac"/></g><path d="M110-160c48 1 74 30 74 79 0 53-28 85-80 85-65 0-83-55-86-122-5-90 50-162 133-122 14 7 22 21 27 39l-31 6c-5-40-67-38-82-6-9 19-15 44-15 74 11-20 30-34 60-33zm-7 138c34 0 49-23 49-58s-16-56-50-56c-29 0-50 16-49 49 1 36 15 65 50 65" id="ah"/><path d="M33-154v-36h34v36H33zM33 0v-36h34V0H33" id="ai"/><g id="e"><use transform="matrix(0.06172839506172839,0,0,0.06172839506172839,0,0)" xlink:href="#ah"/><use transform="matrix(0.06172839506172839,0,0,0.06172839506172839,12.345679012345679,0)" xlink:href="#ai"/></g><path d="M85-194c31 0 48 13 60 33l-1-100h32l1 261h-30c-2-10 0-23-3-31C134-8 116 4 85 4 32 4 16-35 15-94c0-66 23-100 70-100zm9 24c-40 0-46 34-46 75 0 40 6 74 45 74 42 0 51-32 51-76 0-42-9-74-50-73" id="aj"/><g id="f"><use transform="matrix(0.06172839506172839,0,0,0.06172839506172839,0,0)" xlink:href="#Y"/><use transform="matrix(0.06172839506172839,0,0,0.06172839506172839,14.814814814814813,0)" xlink:href="#R"/><use transform="matrix(0.06172839506172839,0,0,0.06172839506172839,27.160493827160494,0)" xlink:href="#aj"/></g><path d="M232-93c-1 65-40 97-104 97C67 4 28-28 28-90v-158h33c8 89-33 224 67 224 102 0 64-133 71-224h33v155" id="ak"/><g id="g"><use transform="matrix(0.06172839506172839,0,0,0.06172839506172839,0,0)" xlink:href="#ak"/><use transform="matrix(0.06172839506172839,0,0,0.06172839506172839,15.987654320987653,0)" xlink:href="#ae"/><use transform="matrix(0.06172839506172839,0,0,0.06172839506172839,27.098765432098766,0)" xlink:href="#ad"/><use transform="matrix(0.06172839506172839,0,0,0.06172839506172839,39.44444444444444,0)" xlink:href="#ag"/></g><path d="M197 0v-115H63V0H30v-248h33v105h134v-105h34V0h-34" id="al"/><path d="M143 0L79-87 56-68V0H24v-261h32v163l83-92h37l-77 82L181 0h-38" id="am"/><g id="h"><use transform="matrix(0.06172839506172839,0,0,0.06172839506172839,0,0)" xlink:href="#al"/><use transform="matrix(0.06172839506172839,0,0,0.06172839506172839,15.987654320987653,0)" xlink:href="#ad"/><use transform="matrix(0.06172839506172839,0,0,0.06172839506172839,28.333333333333332,0)" xlink:href="#ab"/><use transform="matrix(0.06172839506172839,0,0,0.06172839506172839,33.20987654320987,0)" xlink:href="#aa"/><use transform="matrix(0.06172839506172839,0,0,0.06172839506172839,45.55555555555555,0)" xlink:href="#aj"/><use transform="matrix(0.06172839506172839,0,0,0.06172839506172839,57.90123456790123,0)" xlink:href="#ad"/><use transform="matrix(0.06172839506172839,0,0,0.06172839506172839,70.24691358024691,0)" xlink:href="#ae"/><use transform="matrix(0.06172839506172839,0,0,0.06172839506172839,81.35802469135803,0)" xlink:href="#am"/></g><path d="M234-2c-28 10-62 0-77-18C117 19 8 12 13-65c3-43 29-61 60-76-25-40-17-114 47-108 35 3 59 15 59 50 0 44-40 53-71 69 14 26 32 50 51 72 14-21 24-43 30-72l26 8c-9 33-21 57-38 82 13 13 33 22 57 15v23zM97-151c25-10 52-18 56-48-1-18-13-29-33-29-42 0-39 50-23 77zM42-66c-3 51 71 58 98 28-20-24-41-51-56-80-23 10-40 24-42 52" id="an"/><use transform="matrix(0.06172839506172839,0,0,0.06172839506172839,0,0)" xlink:href="#an" id="i"/><path d="M194 0L95-120 63-95V0H30v-248h33v124l119-124h40L117-140 236 0h-42" id="ao"/><path d="M206 0h-36l-40-164L89 0H53L-1-190h32L70-26l43-164h34l41 164 42-164h31" id="ap"/><path d="M177-190C167-65 218 103 67 71c-23-6-38-20-44-43l32-5c15 47 100 32 89-28v-30C133-14 115 1 83 1 29 1 15-40 15-95c0-56 16-97 71-98 29-1 48 16 59 35 1-10 0-23 2-32h30zM94-22c36 0 50-32 50-73 0-42-14-75-50-75-39 0-46 34-46 75s6 73 46 73" id="aq"/><path d="M115-194c53 0 69 39 70 98 0 66-23 100-70 100C84 3 66-7 56-30L54 0H23l1-261h32v101c10-23 28-34 59-34zm-8 174c40 0 45-34 45-75 0-40-5-75-45-74-42 0-51 32-51 76 0 43 10 73 51 73" id="ar"/><path d="M141-36C126-15 110 5 73 4 37 3 15-17 15-53c-1-64 63-63 125-63 3-35-9-54-41-54-24 1-41 7-42 31l-33-3c5-37 33-52 76-52 45 0 72 20 72 64v82c-1 20 7 32 28 27v20c-31 9-61-2-59-35zM48-53c0 20 12 33 32 33 41-3 63-29 60-74-43 2-92-5-92 41" id="as"/><g id="j"><use transform="matrix(0.06172839506172839,0,0,0.06172839506172839,0,0)" xlink:href="#ao"/><use transform="matrix(0.06172839506172839,0,0,0.06172839506172839,14.814814814814813,0)" xlink:href="#R"/><use transform="matrix(0.06172839506172839,0,0,0.06172839506172839,27.160493827160494,0)" xlink:href="#Q"/><use transform="matrix(0.06172839506172839,0,0,0.06172839506172839,39.50617283950617,0)" xlink:href="#ap"/><use transform="matrix(0.06172839506172839,0,0,0.06172839506172839,55.49382716049382,0)" xlink:href="#ab"/><use transform="matrix(0.06172839506172839,0,0,0.06172839506172839,60.37037037037037,0)" xlink:href="#ad"/><use transform="matrix(0.06172839506172839,0,0,0.06172839506172839,72.71604938271605,0)" xlink:href="#aj"/><use transform="matrix(0.06172839506172839,0,0,0.06172839506172839,85.06172839506173,0)" xlink:href="#aq"/><use transform="matrix(0.06172839506172839,0,0,0.06172839506172839,97.40740740740742,0)" xlink:href="#ad"/><use transform="matrix(0.06172839506172839,0,0,0.06172839506172839,109.7530864197531,0)" xlink:href="#ar"/><use transform="matrix(0.06172839506172839,0,0,0.06172839506172839,122.09876543209879,0)" xlink:href="#as"/><use transform="matrix(0.06172839506172839,0,0,0.06172839506172839,134.44444444444446,0)" xlink:href="#ae"/><use transform="matrix(0.06172839506172839,0,0,0.06172839506172839,145.55555555555557,0)" xlink:href="#ad"/></g><g id="k"><use transform="matrix(0.05,0,0,0.05,0,0)" xlink:href="#V"/><use transform="matrix(0.05,0,0,0.05,12.950000000000001,0)" xlink:href="#ag"/><use transform="matrix(0.05,0,0,0.05,18.900000000000002,0)" xlink:href="#ad"/><use transform="matrix(0.05,0,0,0.05,28.900000000000002,0)" xlink:href="#as"/><use transform="matrix(0.05,0,0,0.05,38.900000000000006,0)" xlink:href="#af"/><use transform="matrix(0.05,0,0,0.05,43.900000000000006,0)" xlink:href="#ad"/></g><path d="M106-169C34-169 62-67 57 0H25v-261h32l-1 103c12-21 28-36 61-36 89 0 53 116 60 194h-32v-121c2-32-8-49-39-48" id="at"/><g id="l"><use transform="matrix(0.05,0,0,0.05,0,0)" xlink:href="#at"/><use transform="matrix(0.05,0,0,0.05,10,0)" xlink:href="#ad"/><use transform="matrix(0.05,0,0,0.05,20,0)" xlink:href="#ab"/><use transform="matrix(0.05,0,0,0.05,23.95,0)" xlink:href="#aa"/><use transform="matrix(0.05,0,0,0.05,33.95,0)" xlink:href="#aj"/><use transform="matrix(0.05,0,0,0.05,43.95,0)" xlink:href="#ad"/><use transform="matrix(0.05,0,0,0.05,53.95,0)" xlink:href="#ae"/><use transform="matrix(0.05,0,0,0.05,62.95,0)" xlink:href="#am"/></g><path d="M24-231v-30h32v30H24zM24 0v-190h32V0H24" id="au"/><path d="M96-169c-40 0-48 33-48 73s9 75 48 75c24 0 41-14 43-38l32 2c-6 37-31 61-74 61-59 0-76-41-82-99-10-93 101-131 147-64 4 7 5 14 7 22l-32 3c-4-21-16-35-41-35" id="av"/><g id="m"><use transform="matrix(0.05,0,0,0.05,0,0)" xlink:href="#af"/><use transform="matrix(0.05,0,0,0.05,5,0)" xlink:href="#au"/><use transform="matrix(0.05,0,0,0.05,8.95,0)" xlink:href="#av"/><use transform="matrix(0.05,0,0,0.05,17.95,0)" xlink:href="#am"/><use transform="matrix(0.05,0,0,0.05,26.950000000000003,0)" xlink:href="#ad"/><use transform="matrix(0.05,0,0,0.05,36.95,0)" xlink:href="#af"/></g><g id="n"><use transform="matrix(0.05,0,0,0.05,0,0)" xlink:href="#ar"/><use transform="matrix(0.05,0,0,0.05,10,0)" xlink:href="#ac"/></g><g id="o"><use transform="matrix(0.05,0,0,0.05,0,0)" xlink:href="#ad"/><use transform="matrix(0.05,0,0,0.05,10,0)" xlink:href="#Z"/><use transform="matrix(0.05,0,0,0.05,24.950000000000003,0)" xlink:href="#as"/><use transform="matrix(0.05,0,0,0.05,34.95,0)" xlink:href="#au"/><use transform="matrix(0.05,0,0,0.05,38.900000000000006,0)" xlink:href="#ab"/><use transform="matrix(0.05,0,0,0.05,42.85000000000001,0)" xlink:href="#au"/><use transform="matrix(0.05,0,0,0.05,46.80000000000001,0)" xlink:href="#R"/><use transform="matrix(0.05,0,0,0.05,56.80000000000001,0)" xlink:href="#aq"/></g><path d="M198-261c85 0 136 45 136 128 0 61-22 111-78 115-29 2-39-18-37-44-12 23-32 44-66 44-41 0-58-28-58-68 0-60 30-105 88-108 29-1 43 15 54 32l7-28h28c-9 45-23 84-27 134-1 11 6 17 14 16 39-4 51-48 51-92 0-69-42-107-112-107-93 0-145 59-145 153C53-15 94 26 168 27c43 0 78-13 106-28l9 19c-30 18-67 32-115 32C79 50 28-1 28-86c0-107 62-175 170-175zM158-41c46 0 70-43 70-90 0-26-17-40-43-40-44 0-59 41-61 85-1 26 9 45 34 45" id="aw"/><path d="M84 4C-5 8 30-112 23-190h32v120c0 31 7 50 39 49 72-2 45-101 50-169h31l1 190h-30c-1-10 1-25-2-33-11 22-28 36-60 37" id="ax"/><path d="M33 0v-38h34V0H33" id="ay"/><g id="p"><use transform="matrix(0.05,0,0,0.05,0,0)" xlink:href="#at"/><use transform="matrix(0.05,0,0,0.05,10,0)" xlink:href="#ad"/><use transform="matrix(0.05,0,0,0.05,20,0)" xlink:href="#ab"/><use transform="matrix(0.05,0,0,0.05,23.95,0)" xlink:href="#aa"/><use transform="matrix(0.05,0,0,0.05,33.95,0)" xlink:href="#aj"/><use transform="matrix(0.05,0,0,0.05,43.95,0)" xlink:href="#ad"/><use transform="matrix(0.05,0,0,0.05,53.95,0)" xlink:href="#ae"/><use transform="matrix(0.05,0,0,0.05,62.95,0)" xlink:href="#am"/><use transform="matrix(0.05,0,0,0.05,71.95,0)" xlink:href="#aw"/><use transform="matrix(0.05,0,0,0.05,90.2,0)" xlink:href="#av"/><use transform="matrix(0.05,0,0,0.05,99.2,0)" xlink:href="#ae"/><use transform="matrix(0.05,0,0,0.05,108.2,0)" xlink:href="#Z"/><use transform="matrix(0.05,0,0,0.05,123.15,0)" xlink:href="#aq"/><use transform="matrix(0.05,0,0,0.05,133.15,0)" xlink:href="#ag"/><use transform="matrix(0.05,0,0,0.05,139.1,0)" xlink:href="#Q"/><use transform="matrix(0.05,0,0,0.05,149.1,0)" xlink:href="#ax"/><use transform="matrix(0.05,0,0,0.05,159.1,0)" xlink:href="#aa"/><use transform="matrix(0.05,0,0,0.05,169.1,0)" xlink:href="#ay"/><use transform="matrix(0.05,0,0,0.05,174.1,0)" xlink:href="#av"/><use transform="matrix(0.05,0,0,0.05,183.1,0)" xlink:href="#Q"/><use transform="matrix(0.05,0,0,0.05,193.1,0)" xlink:href="#Z"/></g><path d="M101-234c-31-9-42 10-38 44h38v23H63V0H32v-167H5v-23h27c-7-52 17-82 69-68v24" id="az"/><g id="q"><use transform="matrix(0.05,0,0,0.05,0,0)" xlink:href="#az"/><use transform="matrix(0.05,0,0,0.05,5,0)" xlink:href="#ag"/><use transform="matrix(0.05,0,0,0.05,10.95,0)" xlink:href="#Q"/><use transform="matrix(0.05,0,0,0.05,20.95,0)" xlink:href="#Z"/></g><g id="r"><use transform="matrix(0.05,0,0,0.05,0,0)" xlink:href="#Z"/><use transform="matrix(0.05,0,0,0.05,14.950000000000001,0)" xlink:href="#Q"/><use transform="matrix(0.05,0,0,0.05,24.950000000000003,0)" xlink:href="#ar"/><use transform="matrix(0.05,0,0,0.05,34.95,0)" xlink:href="#au"/><use transform="matrix(0.05,0,0,0.05,38.900000000000006,0)" xlink:href="#ab"/><use transform="matrix(0.05,0,0,0.05,42.85000000000001,0)" xlink:href="#ad"/><use transform="matrix(0.05,0,0,0.05,52.85,0)" xlink:href="#S"/><use transform="matrix(0.05,0,0,0.05,58.80000000000001,0)" xlink:href="#az"/><use transform="matrix(0.05,0,0,0.05,63.80000000000001,0)" xlink:href="#ag"/><use transform="matrix(0.05,0,0,0.05,69.75000000000001,0)" xlink:href="#au"/><use transform="matrix(0.05,0,0,0.05,73.70000000000002,0)" xlink:href="#ad"/><use transform="matrix(0.05,0,0,0.05,83.70000000000002,0)" xlink:href="#R"/><use transform="matrix(0.05,0,0,0.05,93.70000000000002,0)" xlink:href="#aj"/><use transform="matrix(0.05,0,0,0.05,103.7,0)" xlink:href="#ab"/><use transform="matrix(0.05,0,0,0.05,107.65000000000003,0)" xlink:href="#ac"/></g><g id="s"><use transform="matrix(0.05,0,0,0.05,0,0)" xlink:href="#ap"/><use transform="matrix(0.05,0,0,0.05,12.950000000000001,0)" xlink:href="#ad"/><use transform="matrix(0.05,0,0,0.05,22.950000000000003,0)" xlink:href="#ar"/></g><g id="t"><use transform="matrix(0.05,0,0,0.05,0,0)" xlink:href="#aa"/><use transform="matrix(0.05,0,0,0.05,10,0)" xlink:href="#as"/><use transform="matrix(0.05,0,0,0.05,20,0)" xlink:href="#aq"/><use transform="matrix(0.05,0,0,0.05,30,0)" xlink:href="#ad"/></g><g id="u"><use transform="matrix(0.05,0,0,0.05,0,0)" xlink:href="#av"/><use transform="matrix(0.05,0,0,0.05,9,0)" xlink:href="#Q"/><use transform="matrix(0.05,0,0,0.05,19,0)" xlink:href="#Z"/><use transform="matrix(0.05,0,0,0.05,33.95,0)" xlink:href="#Z"/><use transform="matrix(0.05,0,0,0.05,48.900000000000006,0)" xlink:href="#ad"/><use transform="matrix(0.05,0,0,0.05,58.900000000000006,0)" xlink:href="#R"/><use transform="matrix(0.05,0,0,0.05,68.9,0)" xlink:href="#af"/><use transform="matrix(0.05,0,0,0.05,73.9,0)" xlink:href="#ae"/></g><g id="v"><use transform="matrix(0.05,0,0,0.05,0,0)" xlink:href="#ag"/><use transform="matrix(0.05,0,0,0.05,5.95,0)" xlink:href="#ad"/><use transform="matrix(0.05,0,0,0.05,15.949999999999998,0)" xlink:href="#aa"/><use transform="matrix(0.05,0,0,0.05,25.950000000000003,0)" xlink:href="#ab"/><use transform="matrix(0.05,0,0,0.05,29.899999999999995,0)" xlink:href="#ac"/><use transform="matrix(0.05,0,0,0.05,38.9,0)" xlink:href="#au"/><use transform="matrix(0.05,0,0,0.05,42.85,0)" xlink:href="#R"/><use transform="matrix(0.05,0,0,0.05,52.85,0)" xlink:href="#aq"/></g><g id="w"><use transform="matrix(0.05,0,0,0.05,0,0)" xlink:href="#ar"/><use transform="matrix(0.05,0,0,0.05,10,0)" xlink:href="#as"/><use transform="matrix(0.05,0,0,0.05,20,0)" xlink:href="#av"/><use transform="matrix(0.05,0,0,0.05,29,0)" xlink:href="#am"/></g><g id="x"><use transform="matrix(0.05,0,0,0.05,0,0)" xlink:href="#af"/><use transform="matrix(0.05,0,0,0.05,5,0)" xlink:href="#Q"/></g><g id="y"><use transform="matrix(0.05,0,0,0.05,0,0)" xlink:href="#ad"/><use transform="matrix(0.05,0,0,0.05,10,0)" xlink:href="#Z"/><use transform="matrix(0.05,0,0,0.05,24.950000000000003,0)" xlink:href="#as"/><use transform="matrix(0.05,0,0,0.05,34.95,0)" xlink:href="#au"/><use transform="matrix(0.05,0,0,0.05,38.900000000000006,0)" xlink:href="#ab"/><use transform="matrix(0.05,0,0,0.05,42.85000000000001,0)" xlink:href="#ae"/></g><path d="M137 0h-34L2-248h35l83 218 83-218h36" id="aA"/><g id="z"><use transform="matrix(0.05,0,0,0.05,0,0)" xlink:href="#aA"/><use transform="matrix(0.05,0,0,0.05,11.65,0)" xlink:href="#au"/><use transform="matrix(0.05,0,0,0.05,15.600000000000001,0)" xlink:href="#ad"/><use transform="matrix(0.05,0,0,0.05,25.6,0)" xlink:href="#ap"/></g><g id="A"><use transform="matrix(0.05,0,0,0.05,0,0)" xlink:href="#aa"/><use transform="matrix(0.05,0,0,0.05,10,0)" xlink:href="#Q"/><use transform="matrix(0.05,0,0,0.05,20,0)" xlink:href="#ae"/><use transform="matrix(0.05,0,0,0.05,29,0)" xlink:href="#ae"/><use transform="matrix(0.05,0,0,0.05,38,0)" xlink:href="#au"/><use transform="matrix(0.05,0,0,0.05,41.95,0)" xlink:href="#ar"/><use transform="matrix(0.05,0,0,0.05,51.95,0)" xlink:href="#ab"/><use transform="matrix(0.05,0,0,0.05,55.900000000000006,0)" xlink:href="#ad"/></g><g id="B"><use transform="matrix(0.05,0,0,0.05,0,0)" xlink:href="#am"/><use transform="matrix(0.05,0,0,0.05,9,0)" xlink:href="#R"/><use transform="matrix(0.05,0,0,0.05,19,0)" xlink:href="#Q"/><use transform="matrix(0.05,0,0,0.05,29,0)" xlink:href="#ap"/><use transform="matrix(0.05,0,0,0.05,41.95,0)" xlink:href="#ab"/><use transform="matrix(0.05,0,0,0.05,45.900000000000006,0)" xlink:href="#ad"/><use transform="matrix(0.05,0,0,0.05,55.900000000000006,0)" xlink:href="#aj"/><use transform="matrix(0.05,0,0,0.05,65.9,0)" xlink:href="#aq"/><use transform="matrix(0.05,0,0,0.05,75.9,0)" xlink:href="#ad"/><use transform="matrix(0.05,0,0,0.05,85.9,0)" xlink:href="#ar"/><use transform="matrix(0.05,0,0,0.05,95.9,0)" xlink:href="#as"/><use transform="matrix(0.05,0,0,0.05,105.9,0)" xlink:href="#ae"/><use transform="matrix(0.05,0,0,0.05,114.9,0)" xlink:href="#ad"/></g><g id="C"><use transform="matrix(0.05,0,0,0.05,0,0)" xlink:href="#as"/><use transform="matrix(0.05,0,0,0.05,10,0)" xlink:href="#ag"/><use transform="matrix(0.05,0,0,0.05,15.949999999999998,0)" xlink:href="#af"/><use transform="matrix(0.05,0,0,0.05,20.95,0)" xlink:href="#au"/><use transform="matrix(0.05,0,0,0.05,24.9,0)" xlink:href="#av"/><use transform="matrix(0.05,0,0,0.05,33.9,0)" xlink:href="#ab"/><use transform="matrix(0.05,0,0,0.05,37.85,0)" xlink:href="#ad"/><use transform="matrix(0.05,0,0,0.05,47.85,0)" xlink:href="#ae"/></g><g id="D"><use transform="matrix(0.05,0,0,0.05,0,0)" xlink:href="#aa"/><use transform="matrix(0.05,0,0,0.05,10,0)" xlink:href="#ad"/><use transform="matrix(0.05,0,0,0.05,20,0)" xlink:href="#ag"/><use transform="matrix(0.05,0,0,0.05,25.950000000000003,0)" xlink:href="#af"/><use transform="matrix(0.05,0,0,0.05,30.950000000000003,0)" xlink:href="#as"/><use transform="matrix(0.05,0,0,0.05,40.95,0)" xlink:href="#au"/><use transform="matrix(0.05,0,0,0.05,44.900000000000006,0)" xlink:href="#R"/><use transform="matrix(0.05,0,0,0.05,54.900000000000006,0)" xlink:href="#au"/><use transform="matrix(0.05,0,0,0.05,58.85,0)" xlink:href="#R"/><use transform="matrix(0.05,0,0,0.05,68.85000000000001,0)" xlink:href="#aq"/></g><g id="E"><use transform="matrix(0.05,0,0,0.05,0,0)" xlink:href="#af"/><use transform="matrix(0.05,0,0,0.05,5,0)" xlink:href="#at"/><use transform="matrix(0.05,0,0,0.05,15,0)" xlink:href="#ad"/></g><g id="F"><use transform="matrix(0.05,0,0,0.05,0,0)" xlink:href="#au"/><use transform="matrix(0.05,0,0,0.05,3.95,0)" xlink:href="#ae"/><use transform="matrix(0.05,0,0,0.05,12.949999999999998,0)" xlink:href="#ae"/><use transform="matrix(0.05,0,0,0.05,21.95,0)" xlink:href="#ax"/><use transform="matrix(0.05,0,0,0.05,31.950000000000003,0)" xlink:href="#ad"/></g><path d="M30-248c87 1 191-15 191 75 0 78-77 80-158 76V0H30v-248zm33 125c57 0 124 11 124-50 0-59-68-47-124-48v98" id="aB"/><path d="M108 0H70L1-190h34L89-25l56-165h34" id="aC"/><g id="G"><use transform="matrix(0.05,0,0,0.05,0,0)" xlink:href="#aB"/><use transform="matrix(0.05,0,0,0.05,12,0)" xlink:href="#ag"/><use transform="matrix(0.05,0,0,0.05,17.95,0)" xlink:href="#Q"/><use transform="matrix(0.05,0,0,0.05,27.950000000000003,0)" xlink:href="#aC"/><use transform="matrix(0.05,0,0,0.05,36.95,0)" xlink:href="#au"/><use transform="matrix(0.05,0,0,0.05,40.900000000000006,0)" xlink:href="#aj"/><use transform="matrix(0.05,0,0,0.05,50.900000000000006,0)" xlink:href="#ad"/></g><g id="H"><use transform="matrix(0.05,0,0,0.05,0,0)" xlink:href="#ag"/><use transform="matrix(0.05,0,0,0.05,5.95,0)" xlink:href="#as"/><use transform="matrix(0.05,0,0,0.05,15.949999999999998,0)" xlink:href="#af"/><use transform="matrix(0.05,0,0,0.05,20.95,0)" xlink:href="#au"/><use transform="matrix(0.05,0,0,0.05,24.9,0)" xlink:href="#R"/><use transform="matrix(0.05,0,0,0.05,34.9,0)" xlink:href="#aq"/></g><g id="I"><use transform="matrix(0.05,0,0,0.05,0,0)" xlink:href="#az"/><use transform="matrix(0.05,0,0,0.05,5,0)" xlink:href="#Q"/><use transform="matrix(0.05,0,0,0.05,15,0)" xlink:href="#ag"/></g><g id="J"><use transform="matrix(0.05,0,0,0.05,0,0)" xlink:href="#ae"/><use transform="matrix(0.05,0,0,0.05,9,0)" xlink:href="#ad"/><use transform="matrix(0.05,0,0,0.05,19,0)" xlink:href="#ag"/><use transform="matrix(0.05,0,0,0.05,24.95,0)" xlink:href="#aC"/><use transform="matrix(0.05,0,0,0.05,33.95,0)" xlink:href="#au"/><use transform="matrix(0.05,0,0,0.05,37.900000000000006,0)" xlink:href="#av"/><use transform="matrix(0.05,0,0,0.05,46.900000000000006,0)" xlink:href="#ad"/></g><g id="K"><use transform="matrix(0.05,0,0,0.05,0,0)" xlink:href="#as"/><use transform="matrix(0.05,0,0,0.05,10,0)" xlink:href="#az"/><use transform="matrix(0.05,0,0,0.05,15,0)" xlink:href="#af"/><use transform="matrix(0.05,0,0,0.05,20,0)" xlink:href="#ad"/><use transform="matrix(0.05,0,0,0.05,30,0)" xlink:href="#ag"/></g><g id="L"><use transform="matrix(0.05,0,0,0.05,0,0)" xlink:href="#au"/><use transform="matrix(0.05,0,0,0.05,3.95,0)" xlink:href="#ae"/></g><g id="M"><use transform="matrix(0.05,0,0,0.05,0,0)" xlink:href="#av"/><use transform="matrix(0.05,0,0,0.05,9,0)" xlink:href="#ab"/><use transform="matrix(0.05,0,0,0.05,12.949999999999998,0)" xlink:href="#Q"/><use transform="matrix(0.05,0,0,0.05,22.95,0)" xlink:href="#ae"/><use transform="matrix(0.05,0,0,0.05,31.950000000000003,0)" xlink:href="#ad"/><use transform="matrix(0.05,0,0,0.05,41.95,0)" xlink:href="#aj"/></g><g id="N"><use transform="matrix(0.05,0,0,0.05,0,0)" xlink:href="#T"/><use transform="matrix(0.05,0,0,0.05,5,0)" xlink:href="#U"/></g><g id="O"><use transform="matrix(0.05,0,0,0.05,0,0)" xlink:href="#ag"/><use transform="matrix(0.05,0,0,0.05,5.95,0)" xlink:href="#ad"/><use transform="matrix(0.05,0,0,0.05,15.949999999999998,0)" xlink:href="#aC"/><use transform="matrix(0.05,0,0,0.05,24.95,0)" xlink:href="#au"/><use transform="matrix(0.05,0,0,0.05,28.899999999999995,0)" xlink:href="#ad"/><use transform="matrix(0.05,0,0,0.05,38.9,0)" xlink:href="#ap"/></g></defs></g></svg>