<svg xmlns="http://www.w3.org/2000/svg" xmlns:xlink="http://www.w3.org/1999/xlink" xmlns:lucid="lucid" width="759.88" height="900"><g transform="translate(-197.575 -140)" lucid:page-tab-id="0_0"><path d="M264.75 504.75c0 8.15-6.6 14.75-14.75 14.75s-14.75-6.6-14.75-14.75S241.85 490 250 490s14.75 6.6 14.75 14.75z" stroke="#000" stroke-width="2" fill="#fff"/><path d="M220 490h60v118h-60z" fill="none"/><path d="M250 519.5v41.3l30 47.2m-30-47.2L220 608m0-73.75h60" stroke="#000" stroke-width="2" fill="none"/><use xlink:href="#a" transform="matrix(1,0,0,1,140,608) translate(79.57499999999999 14.6)"/><use xlink:href="#b" transform="matrix(1,0,0,1,140,608) translate(124.475 14.6)"/><path d="M380 160h360v860H380z" stroke="#000" stroke-width="2" fill="none"/><use xlink:href="#c" transform="matrix(1,0,0,1,388,168) translate(91.84567901234568 17.77777777777778)"/><use xlink:href="#d" transform="matrix(1,0,0,1,388,168) translate(149.80864197530863 17.77777777777778)"/><use xlink:href="#e" transform="matrix(1,0,0,1,388,168) translate(174.5 17.77777777777778)"/><path d="M700 290c0 38.66-62.68 70-140 70s-140-31.34-140-70 62.68-70 140-70 140 31.34 140 70z" stroke="#000" stroke-width="2" fill="#fff"/><use xlink:href="#f" transform="matrix(1,0,0,1,420,220) translate(32.67999999999999 53.775)"/><use xlink:href="#g" transform="matrix(1,0,0,1,420,220) translate(91.58 53.775)"/><use xlink:href="#h" transform="matrix(1,0,0,1,420,220) translate(154.53 53.775)"/><use xlink:href="#i" transform="matrix(1,0,0,1,420,220) translate(215.43 53.775)"/><use xlink:href="#j" transform="matrix(1,0,0,1,420,220) translate(10.754999999999976 75.375)"/><use xlink:href="#k" transform="matrix(1,0,0,1,420,220) translate(75.65499999999999 75.375)"/><use xlink:href="#l" transform="matrix(1,0,0,1,420,220) translate(123.505 75.375)"/><use xlink:href="#m" transform="matrix(1,0,0,1,420,220) translate(164.405 75.375)"/><use xlink:href="#n" transform="matrix(1,0,0,1,420,220) translate(194.405 75.375)"/><use xlink:href="#o" transform="matrix(1,0,0,1,420,220) translate(80.55499999999999 96.97500000000001)"/><use xlink:href="#p" transform="matrix(1,0,0,1,420,220) translate(128.555 96.97500000000001)"/><path d="M700 450c0 38.66-62.68 70-140 70s-140-31.34-140-70 62.68-70 140-70 140 31.34 140 70z" stroke="#000" stroke-width="2" fill="#fff"/><use xlink:href="#f" transform="matrix(1,0,0,1,420,380) translate(32.67999999999999 53.775)"/><use xlink:href="#g" transform="matrix(1,0,0,1,420,380) translate(91.58 53.775)"/><use xlink:href="#h" transform="matrix(1,0,0,1,420,380) translate(154.53 53.775)"/><use xlink:href="#i" transform="matrix(1,0,0,1,420,380) translate(215.43 53.775)"/><use xlink:href="#j" transform="matrix(1,0,0,1,420,380) translate(14.22999999999997 75.375)"/><use xlink:href="#k" transform="matrix(1,0,0,1,420,380) translate(79.12999999999998 75.375)"/><use xlink:href="#l" transform="matrix(1,0,0,1,420,380) translate(126.97999999999999 75.375)"/><use xlink:href="#m" transform="matrix(1,0,0,1,420,380) translate(167.88 75.375)"/><use xlink:href="#q" transform="matrix(1,0,0,1,420,380) translate(197.88 75.375)"/><use xlink:href="#o" transform="matrix(1,0,0,1,420,380) translate(80.55499999999999 96.97500000000001)"/><use xlink:href="#p" transform="matrix(1,0,0,1,420,380) translate(128.555 96.97500000000001)"/><path d="M700 610c0 38.66-62.68 70-140 70s-140-31.34-140-70 62.68-70 140-70 140 31.34 140 70z" stroke="#000" stroke-width="2" fill="#fff"/><use xlink:href="#f" transform="matrix(1,0,0,1,420,540) translate(32.67999999999999 58.15)"/><use xlink:href="#g" transform="matrix(1,0,0,1,420,540) translate(91.58 58.15)"/><use xlink:href="#h" transform="matrix(1,0,0,1,420,540) translate(154.53 58.15)"/><use xlink:href="#i" transform="matrix(1,0,0,1,420,540) translate(215.43 58.15)"/><use xlink:href="#j" transform="matrix(1,0,0,1,420,540) translate(12.204999999999993 79.75)"/><use xlink:href="#k" transform="matrix(1,0,0,1,420,540) translate(77.105 79.75)"/><use xlink:href="#l" transform="matrix(1,0,0,1,420,540) translate(124.95500000000001 79.75)"/><use xlink:href="#m" transform="matrix(1,0,0,1,420,540) translate(165.85500000000002 79.75)"/><use xlink:href="#r" transform="matrix(1,0,0,1,420,540) translate(195.85500000000002 79.75)"/><path d="M700 770c0 38.66-62.68 70-140 70s-140-31.34-140-70 62.68-70 140-70 140 31.34 140 70z" stroke="#000" stroke-width="2" fill="#fff"/><use xlink:href="#f" transform="matrix(1,0,0,1,420,700) translate(22.204999999999995 62.525)"/><use xlink:href="#s" transform="matrix(1,0,0,1,420,700) translate(81.105 62.525)"/><use xlink:href="#t" transform="matrix(1,0,0,1,420,700) translate(96.105 62.525)"/><use xlink:href="#u" transform="matrix(1,0,0,1,420,700) translate(192.005 62.525)"/><use xlink:href="#v" transform="matrix(1,0,0,1,420,700) translate(116.55499999999999 84.125)"/><path d="M700 930c0 38.66-62.68 70-140 70s-140-31.34-140-70 62.68-70 140-70 140 31.34 140 70z" stroke="#000" stroke-width="2" fill="#fff"/><use xlink:href="#w" transform="matrix(1,0,0,1,420,860) translate(47.58 49.65)"/><use xlink:href="#x" transform="matrix(1,0,0,1,420,860) translate(98.58 49.65)"/><use xlink:href="#y" transform="matrix(1,0,0,1,420,860) translate(137.53 49.65)"/><use xlink:href="#z" transform="matrix(1,0,0,1,420,860) translate(172.53 49.65)"/><use xlink:href="#A" transform="matrix(1,0,0,1,420,860) translate(12.65500000000001 71.25)"/><use xlink:href="#B" transform="matrix(1,0,0,1,420,860) translate(64.555 71.25)"/><use xlink:href="#C" transform="matrix(1,0,0,1,420,860) translate(147.455 71.25)"/><use xlink:href="#D" transform="matrix(1,0,0,1,420,860) translate(167.455 71.25)"/><use xlink:href="#E" transform="matrix(1,0,0,1,420,860) translate(192.455 71.25)"/><use xlink:href="#F" transform="matrix(1,0,0,1,420,860) translate(223.405 71.25)"/><use xlink:href="#G" transform="matrix(1,0,0,1,420,860) translate(242.355 71.25)"/><use xlink:href="#H" transform="matrix(1,0,0,1,420,860) translate(117.03 92.85000000000001)"/><path d="M417.18 290H322v270h-70" fill="none"/><path d="M417.18 290h-9.67m-9.66 0H378.5m-9.67 0H349.5m-9.68 0H322v1.53m0 9.67v19.34m0 9.67v19.35m0 9.67v19.34m0 9.67v19.34m0 9.67v19.35m0 9.66v19.34m0 9.67v19.34m0 9.68v19.34m0 9.67v19.33m-2.3 7.37h-19.35m-9.67 0h-19.34m-9.67 0H252M399.82 300.18L417.04 290l-17.22-10.18M252.03 560H248" stroke="#000" stroke-width="2" fill="none"/><path d="M417.18 450H340v110h-88" fill="none"/><path d="M417.18 450h-10.2m-10.18 0h-20.4m-10.18 0h-20.38m-5.84 4.35v20.4m0 10.18v20.38m0 10.2v20.4m0 10.18V560h-6.46m-10.2 0h-20.38m-10.2 0H272.4m-10.2 0H252M399.82 460.18L417.04 450l-17.22-10.18M252.03 560H248" stroke="#000" stroke-width="2" fill="none"/><path d="M417.18 610H360v-50H252" fill="none"/><path d="M417.18 610h-10.24m-10.25 0h-20.5m-10.25 0H360v-14.55m0-10.24v-20.5m-5.53-4.7h-20.5m-10.24 0h-20.5M293 560h-20.5m-10.25 0H252M399.82 620.18L417.04 610l-17.22-10.18M252.03 560H248" stroke="#000" stroke-width="2" fill="none"/><path d="M417.18 770H340V560h-88" fill="none"/><path d="M417.18 770h-9.62m-9.62 0H378.7m-9.62 0h-19.24m-9.62 0H340v-19.02m0-9.62v-19.24m0-9.62v-19.24m0-9.62V664.4m0-9.62v-19.24m0-9.62v-19.24m0-9.62v-19.24m0-9.62V560h-11.04m-9.62 0H300.1m-9.62 0h-19.24m-9.62 0H252M399.82 780.18L417.04 770l-17.22-10.18M252.03 560H248" stroke="#000" stroke-width="2" fill="none"/><path d="M417.18 930H320V560h-68" fill="none"/><path d="M417.18 930h-9.9m-9.92 0h-19.82m-9.9 0H347.8m-9.9 0H320v-1.93m0-9.9v-19.83m0-9.9V868.6m0-9.9v-19.82m0-9.9v-19.84m0-9.9V779.4m0-9.9v-19.82m0-9.9v-19.83m0-9.9V690.2m0-9.92v-19.82m0-9.9v-19.83m0-9.9V601m0-9.9v-19.83m0-9.92V560h-18.45m-9.9 0H271.8m-9.9 0H252M399.82 940.18L417.04 930l-17.22-10.18M252.03 560H248" stroke="#000" stroke-width="2" fill="none"/><path d="M864.75 324.75c0 8.15-6.6 14.75-14.75 14.75s-14.75-6.6-14.75-14.75S841.85 310 850 310s14.75 6.6 14.75 14.75z" stroke="#000" stroke-width="2" fill="#fff"/><path d="M820 310h60v118h-60z" fill="none"/><path d="M850 339.5v41.3l30 47.2m-30-47.2L820 428m0-73.75h60" stroke="#000" stroke-width="2" fill="none"/><g><use xlink:href="#I" transform="matrix(1,0,0,1,740,428) translate(46.099999999999994 14.4)"/><use xlink:href="#J" transform="matrix(1,0,0,1,740,428) translate(128.9 14.4)"/><use xlink:href="#K" transform="matrix(1,0,0,1,740,428) translate(74.55 36)"/></g><path d="M864.75 504.75c0 8.15-6.6 14.75-14.75 14.75s-14.75-6.6-14.75-14.75S841.85 490 850 490s14.75 6.6 14.75 14.75z" stroke="#000" stroke-width="2" fill="#fff"/><path d="M820 490h60v118h-60z" fill="none"/><path d="M850 519.5v41.3l30 47.2m-30-47.2L820 608m0-73.75h60" stroke="#000" stroke-width="2" fill="none"/><g><use xlink:href="#L" transform="matrix(1,0,0,1,740,608) translate(49.55 14.4)"/><use xlink:href="#M" transform="matrix(1,0,0,1,740,608) translate(125.45 14.4)"/><use xlink:href="#K" transform="matrix(1,0,0,1,740,608) translate(74.55 36)"/></g><path d="M864.75 684.75c0 8.15-6.6 14.75-14.75 14.75s-14.75-6.6-14.75-14.75S841.85 670 850 670s14.75 6.6 14.75 14.75z" stroke="#000" stroke-width="2" fill="#fff"/><path d="M820 670h60v118h-60z" fill="none"/><path d="M850 699.5v41.3l30 47.2m-30-47.2L820 788m0-73.75h60" stroke="#000" stroke-width="2" fill="none"/><g><use xlink:href="#N" transform="matrix(1,0,0,1,740,788) translate(72.55 14.6)"/></g><path d="M702.82 290h57.68v90H819" fill="none"/><path d="M702.82 290h9.82m9.8 0h19.65m9.8 0h8.6v11.05m0 9.8v19.65m0 9.82v19.63m0 9.82V380h9.4m9.83 0h19.63m9.82 0H819M720.18 279.82L702.96 290l17.22 10.18" stroke="#494949" stroke-width="2" fill="none"/><path d="M823 381h-4.03v-2H823z" fill="#494949"/><path d="M702.82 450h57.68v110H819" fill="none"/><path d="M702.82 450h9.42m9.43 0h18.85m9.42 0h10.56v8.3m0 9.4v18.86m0 9.42v18.85m0 9.43v18.85m0 9.43V560h11.38m9.42 0h18.85m9.43 0H819M720.18 439.82L702.96 450l17.22 10.18" stroke="#494949" stroke-width="2" fill="none"/><path d="M823 561h-4.03v-2H823z" fill="#494949"/><path d="M702.82 610h57.68v130H819" fill="none"/><path d="M702.82 610h10.26m10.25 0h20.52m10.26 0h6.4v14.12m0 10.26v20.5m0 10.27v20.52m0 10.25v20.52m0 10.26V740h7.2m10.27 0h20.5m10.27 0H819M720.18 599.82L702.96 610l17.22 10.18" stroke="#494949" stroke-width="2" fill="none"/><path d="M823 741h-4.03v-2H823z" fill="#494949"/><defs><path d="M212-179c-10-28-35-45-73-45-59 0-87 40-87 99 0 60 29 101 89 101 43 0 62-24 78-52l27 14C228-24 195 4 139 4 59 4 22-46 18-125c-6-104 99-153 187-111 19 9 31 26 39 46" id="O"/><path d="M185-189c-5-48-123-54-124 2 14 75 158 14 163 119 3 78-121 87-175 55-17-10-28-26-33-46l33-7c5 56 141 63 141-1 0-78-155-14-162-118-5-82 145-84 179-34 5 7 8 16 11 25" id="P"/><path d="M240 0l2-218c-23 76-54 145-80 218h-23L58-218 59 0H30v-248h44l77 211c21-75 51-140 76-211h43V0h-30" id="Q"/><g id="a"><use transform="matrix(0.05,0,0,0.05,0,0)" xlink:href="#O"/><use transform="matrix(0.05,0,0,0.05,12.950000000000001,0)" xlink:href="#P"/><use transform="matrix(0.05,0,0,0.05,24.950000000000003,0)" xlink:href="#Q"/></g><path d="M33 0v-248h34V0H33" id="R"/><path d="M127-220V0H93v-220H8v-28h204v28h-85" id="S"/><g id="b"><use transform="matrix(0.05,0,0,0.05,0,0)" xlink:href="#R"/><use transform="matrix(0.05,0,0,0.05,5,0)" xlink:href="#S"/></g><path d="M59-47c-2 24 18 29 38 22v24C64 9 27 4 27-40v-127H5v-23h24l9-43h21v43h35v23H59v120" id="T"/><path d="M100-194c62-1 85 37 85 99 1 63-27 99-86 99S16-35 15-95c0-66 28-99 85-99zM99-20c44 1 53-31 53-75 0-43-8-75-51-75s-53 32-53 75 10 74 51 75" id="U"/><path d="M114-163C36-179 61-72 57 0H25l-1-190h30c1 12-1 29 2 39 6-27 23-49 58-41v29" id="V"/><path d="M179-190L93 31C79 59 56 82 12 73V49c39 6 53-20 64-50L1-190h34L92-34l54-156h33" id="W"/><g id="c"><use transform="matrix(0.06172839506172839,0,0,0.06172839506172839,0,0)" xlink:href="#P"/><use transform="matrix(0.06172839506172839,0,0,0.06172839506172839,14.814814814814813,0)" xlink:href="#T"/><use transform="matrix(0.06172839506172839,0,0,0.06172839506172839,20.98765432098765,0)" xlink:href="#U"/><use transform="matrix(0.06172839506172839,0,0,0.06172839506172839,33.33333333333333,0)" xlink:href="#V"/><use transform="matrix(0.06172839506172839,0,0,0.06172839506172839,40.679012345679006,0)" xlink:href="#W"/></g><path d="M64 0c3-98 48-159 88-221H18v-27h164v26C143-157 98-101 97 0H64" id="X"/><path d="M33-154v-36h34v36H33zM33 0v-36h34V0H33" id="Y"/><g id="d"><use transform="matrix(0.06172839506172839,0,0,0.06172839506172839,0,0)" xlink:href="#X"/><use transform="matrix(0.06172839506172839,0,0,0.06172839506172839,12.345679012345679,0)" xlink:href="#Y"/></g><path d="M233-177c-1 41-23 64-60 70L243 0h-38l-65-103H63V0H30v-248c88 3 205-21 203 71zM63-129c60-2 137 13 137-47 0-61-80-42-137-45v92" id="Z"/><path d="M100-194c63 0 86 42 84 106H49c0 40 14 67 53 68 26 1 43-12 49-29l28 8c-11 28-37 45-77 45C44 4 14-33 15-96c1-61 26-98 85-98zm52 81c6-60-76-77-97-28-3 7-6 17-6 28h103" id="aa"/><path d="M115-194c55 1 70 41 70 98S169 2 115 4C84 4 66-9 55-30l1 105H24l-1-265h31l2 30c10-21 28-34 59-34zm-8 174c40 0 45-34 45-75s-6-73-45-74c-42 0-51 32-51 76 0 43 10 73 51 73" id="ab"/><path d="M135-143c-3-34-86-38-87 0 15 53 115 12 119 90S17 21 10-45l28-5c4 36 97 45 98 0-10-56-113-15-118-90-4-57 82-63 122-42 12 7 21 19 24 35" id="ac"/><g id="e"><use transform="matrix(0.06172839506172839,0,0,0.06172839506172839,0,0)" xlink:href="#Z"/><use transform="matrix(0.06172839506172839,0,0,0.06172839506172839,15.987654320987653,0)" xlink:href="#aa"/><use transform="matrix(0.06172839506172839,0,0,0.06172839506172839,28.333333333333332,0)" xlink:href="#ab"/><use transform="matrix(0.06172839506172839,0,0,0.06172839506172839,40.67901234567901,0)" xlink:href="#U"/><use transform="matrix(0.06172839506172839,0,0,0.06172839506172839,53.02469135802469,0)" xlink:href="#V"/><use transform="matrix(0.06172839506172839,0,0,0.06172839506172839,60.37037037037037,0)" xlink:href="#T"/><use transform="matrix(0.06172839506172839,0,0,0.06172839506172839,66.5432098765432,0)" xlink:href="#ac"/></g><path d="M141-36C126-15 110 5 73 4 37 3 15-17 15-53c-1-64 63-63 125-63 3-35-9-54-41-54-24 1-41 7-42 31l-33-3c5-37 33-52 76-52 45 0 72 20 72 64v82c-1 20 7 32 28 27v20c-31 9-61-2-59-35zM48-53c0 20 12 33 32 33 41-3 63-29 60-74-43 2-92-5-92 41" id="ad"/><g id="f"><use transform="matrix(0.05,0,0,0.05,0,0)" xlink:href="#O"/><use transform="matrix(0.05,0,0,0.05,12.950000000000001,0)" xlink:href="#V"/><use transform="matrix(0.05,0,0,0.05,18.900000000000002,0)" xlink:href="#aa"/><use transform="matrix(0.05,0,0,0.05,28.900000000000002,0)" xlink:href="#ad"/><use transform="matrix(0.05,0,0,0.05,38.900000000000006,0)" xlink:href="#T"/><use transform="matrix(0.05,0,0,0.05,43.900000000000006,0)" xlink:href="#aa"/></g><path d="M96-169c-40 0-48 33-48 73s9 75 48 75c24 0 41-14 43-38l32 2c-6 37-31 61-74 61-59 0-76-41-82-99-10-93 101-131 147-64 4 7 5 14 7 22l-32 3c-4-21-16-35-41-35" id="ae"/><path d="M84 4C-5 8 30-112 23-190h32v120c0 31 7 50 39 49 72-2 45-101 50-169h31l1 190h-30c-1-10 1-25-2-33-11 22-28 36-60 37" id="af"/><path d="M210-169c-67 3-38 105-44 169h-31v-121c0-29-5-50-35-48C34-165 62-65 56 0H25l-1-190h30c1 10-1 24 2 32 10-44 99-50 107 0 11-21 27-35 58-36 85-2 47 119 55 194h-31v-121c0-29-5-49-35-48" id="ag"/><g id="g"><use transform="matrix(0.05,0,0,0.05,0,0)" xlink:href="#ae"/><use transform="matrix(0.05,0,0,0.05,9,0)" xlink:href="#af"/><use transform="matrix(0.05,0,0,0.05,19,0)" xlink:href="#ac"/><use transform="matrix(0.05,0,0,0.05,28,0)" xlink:href="#T"/><use transform="matrix(0.05,0,0,0.05,33,0)" xlink:href="#U"/><use transform="matrix(0.05,0,0,0.05,43,0)" xlink:href="#ag"/></g><g id="h"><use transform="matrix(0.05,0,0,0.05,0,0)" xlink:href="#V"/><use transform="matrix(0.05,0,0,0.05,5.95,0)" xlink:href="#aa"/><use transform="matrix(0.05,0,0,0.05,15.949999999999998,0)" xlink:href="#ab"/><use transform="matrix(0.05,0,0,0.05,25.950000000000003,0)" xlink:href="#U"/><use transform="matrix(0.05,0,0,0.05,35.95,0)" xlink:href="#V"/><use transform="matrix(0.05,0,0,0.05,41.900000000000006,0)" xlink:href="#T"/><use transform="matrix(0.05,0,0,0.05,46.900000000000006,0)" xlink:href="#ac"/></g><path d="M206 0h-36l-40-164L89 0H53L-1-190h32L70-26l43-164h34l41 164 42-164h31" id="ah"/><path d="M24-231v-30h32v30H24zM24 0v-190h32V0H24" id="ai"/><path d="M106-169C34-169 62-67 57 0H25v-261h32l-1 103c12-21 28-36 61-36 89 0 53 116 60 194h-32v-121c2-32-8-49-39-48" id="aj"/><g id="i"><use transform="matrix(0.05,0,0,0.05,0,0)" xlink:href="#ah"/><use transform="matrix(0.05,0,0,0.05,12.950000000000001,0)" xlink:href="#ai"/><use transform="matrix(0.05,0,0,0.05,16.900000000000002,0)" xlink:href="#T"/><use transform="matrix(0.05,0,0,0.05,21.900000000000002,0)" xlink:href="#aj"/></g><path d="M101-234c-31-9-42 10-38 44h38v23H63V0H32v-167H5v-23h27c-7-52 17-82 69-68v24" id="ak"/><g id="j"><use transform="matrix(0.05,0,0,0.05,0,0)" xlink:href="#ac"/><use transform="matrix(0.05,0,0,0.05,9,0)" xlink:href="#ab"/><use transform="matrix(0.05,0,0,0.05,19,0)" xlink:href="#aa"/><use transform="matrix(0.05,0,0,0.05,29,0)" xlink:href="#ae"/><use transform="matrix(0.05,0,0,0.05,38,0)" xlink:href="#ai"/><use transform="matrix(0.05,0,0,0.05,41.95,0)" xlink:href="#ak"/><use transform="matrix(0.05,0,0,0.05,46.95,0)" xlink:href="#ai"/><use transform="matrix(0.05,0,0,0.05,50.900000000000006,0)" xlink:href="#ae"/></g><path d="M24 0v-261h32V0H24" id="al"/><g id="k"><use transform="matrix(0.05,0,0,0.05,0,0)" xlink:href="#ak"/><use transform="matrix(0.05,0,0,0.05,5,0)" xlink:href="#ai"/><use transform="matrix(0.05,0,0,0.05,8.95,0)" xlink:href="#al"/><use transform="matrix(0.05,0,0,0.05,12.899999999999999,0)" xlink:href="#T"/><use transform="matrix(0.05,0,0,0.05,17.9,0)" xlink:href="#aa"/><use transform="matrix(0.05,0,0,0.05,27.899999999999995,0)" xlink:href="#V"/><use transform="matrix(0.05,0,0,0.05,33.85,0)" xlink:href="#ac"/></g><g id="l"><use transform="matrix(0.05,0,0,0.05,0,0)" xlink:href="#ak"/><use transform="matrix(0.05,0,0,0.05,5,0)" xlink:href="#V"/><use transform="matrix(0.05,0,0,0.05,10.95,0)" xlink:href="#U"/><use transform="matrix(0.05,0,0,0.05,20.95,0)" xlink:href="#ag"/></g><g id="m"><use transform="matrix(0.05,0,0,0.05,0,0)" xlink:href="#T"/><use transform="matrix(0.05,0,0,0.05,5,0)" xlink:href="#aj"/><use transform="matrix(0.05,0,0,0.05,15,0)" xlink:href="#aa"/></g><path d="M85-194c31 0 48 13 60 33l-1-100h32l1 261h-30c-2-10 0-23-3-31C134-8 116 4 85 4 32 4 16-35 15-94c0-66 23-100 70-100zm9 24c-40 0-46 34-46 75 0 40 6 74 45 74 42 0 51-32 51-76 0-42-9-74-50-73" id="am"/><g id="n"><use transform="matrix(0.05,0,0,0.05,0,0)" xlink:href="#aj"/><use transform="matrix(0.05,0,0,0.05,10,0)" xlink:href="#ad"/><use transform="matrix(0.05,0,0,0.05,20,0)" xlink:href="#V"/><use transform="matrix(0.05,0,0,0.05,25.950000000000003,0)" xlink:href="#am"/><use transform="matrix(0.05,0,0,0.05,35.95,0)" xlink:href="#ah"/><use transform="matrix(0.05,0,0,0.05,48.900000000000006,0)" xlink:href="#ad"/><use transform="matrix(0.05,0,0,0.05,58.900000000000006,0)" xlink:href="#V"/><use transform="matrix(0.05,0,0,0.05,64.85000000000001,0)" xlink:href="#aa"/></g><g id="o"><use transform="matrix(0.05,0,0,0.05,0,0)" xlink:href="#ad"/><use transform="matrix(0.05,0,0,0.05,10,0)" xlink:href="#ac"/><use transform="matrix(0.05,0,0,0.05,19,0)" xlink:href="#ac"/><use transform="matrix(0.05,0,0,0.05,28,0)" xlink:href="#aa"/><use transform="matrix(0.05,0,0,0.05,38,0)" xlink:href="#T"/></g><path d="M117-194c89-4 53 116 60 194h-32v-121c0-31-8-49-39-48C34-167 62-67 57 0H25l-1-190h30c1 10-1 24 2 32 11-22 29-35 61-36" id="an"/><path d="M177-190C167-65 218 103 67 71c-23-6-38-20-44-43l32-5c15 47 100 32 89-28v-30C133-14 115 1 83 1 29 1 15-40 15-95c0-56 16-97 71-98 29-1 48 16 59 35 1-10 0-23 2-32h30zM94-22c36 0 50-32 50-73 0-42-14-75-50-75-39 0-46 34-46 75s6 73 46 73" id="ao"/><g id="p"><use transform="matrix(0.05,0,0,0.05,0,0)" xlink:href="#ag"/><use transform="matrix(0.05,0,0,0.05,14.950000000000001,0)" xlink:href="#ad"/><use transform="matrix(0.05,0,0,0.05,24.950000000000003,0)" xlink:href="#an"/><use transform="matrix(0.05,0,0,0.05,34.95,0)" xlink:href="#ad"/><use transform="matrix(0.05,0,0,0.05,44.95,0)" xlink:href="#ao"/><use transform="matrix(0.05,0,0,0.05,54.95,0)" xlink:href="#aa"/><use transform="matrix(0.05,0,0,0.05,64.95,0)" xlink:href="#V"/></g><g id="q"><use transform="matrix(0.05,0,0,0.05,0,0)" xlink:href="#ac"/><use transform="matrix(0.05,0,0,0.05,9,0)" xlink:href="#U"/><use transform="matrix(0.05,0,0,0.05,19,0)" xlink:href="#ak"/><use transform="matrix(0.05,0,0,0.05,24,0)" xlink:href="#T"/><use transform="matrix(0.05,0,0,0.05,29,0)" xlink:href="#ah"/><use transform="matrix(0.05,0,0,0.05,41.95,0)" xlink:href="#ad"/><use transform="matrix(0.05,0,0,0.05,51.95,0)" xlink:href="#V"/><use transform="matrix(0.05,0,0,0.05,57.900000000000006,0)" xlink:href="#aa"/></g><path d="M143 0L79-87 56-68V0H24v-261h32v163l83-92h37l-77 82L181 0h-38" id="ap"/><g id="r"><use transform="matrix(0.05,0,0,0.05,0,0)" xlink:href="#aj"/><use transform="matrix(0.05,0,0,0.05,10,0)" xlink:href="#aa"/><use transform="matrix(0.05,0,0,0.05,20,0)" xlink:href="#al"/><use transform="matrix(0.05,0,0,0.05,23.95,0)" xlink:href="#ab"/><use transform="matrix(0.05,0,0,0.05,33.95,0)" xlink:href="#am"/><use transform="matrix(0.05,0,0,0.05,43.95,0)" xlink:href="#aa"/><use transform="matrix(0.05,0,0,0.05,53.95,0)" xlink:href="#ac"/><use transform="matrix(0.05,0,0,0.05,62.95,0)" xlink:href="#ap"/></g><use transform="matrix(0.05,0,0,0.05,0,0)" xlink:href="#ad" id="s"/><path d="M9 0v-24l116-142H16v-24h144v24L44-24h123V0H9" id="aq"/><g id="t"><use transform="matrix(0.05,0,0,0.05,0,0)" xlink:href="#ae"/><use transform="matrix(0.05,0,0,0.05,9,0)" xlink:href="#af"/><use transform="matrix(0.05,0,0,0.05,19,0)" xlink:href="#ac"/><use transform="matrix(0.05,0,0,0.05,28,0)" xlink:href="#T"/><use transform="matrix(0.05,0,0,0.05,33,0)" xlink:href="#U"/><use transform="matrix(0.05,0,0,0.05,43,0)" xlink:href="#ag"/><use transform="matrix(0.05,0,0,0.05,57.95,0)" xlink:href="#ai"/><use transform="matrix(0.05,0,0,0.05,61.900000000000006,0)" xlink:href="#aq"/><use transform="matrix(0.05,0,0,0.05,70.9,0)" xlink:href="#aa"/><use transform="matrix(0.05,0,0,0.05,80.9,0)" xlink:href="#am"/></g><path d="M115-194c53 0 69 39 70 98 0 66-23 100-70 100C84 3 66-7 56-30L54 0H23l1-261h32v101c10-23 28-34 59-34zm-8 174c40 0 45-34 45-75 0-40-5-75-45-74-42 0-51 32-51 76 0 43 10 73 51 73" id="ar"/><path d="M16-82v-28h88v28H16" id="as"/><g id="u"><use transform="matrix(0.05,0,0,0.05,0,0)" xlink:href="#ar"/><use transform="matrix(0.05,0,0,0.05,10,0)" xlink:href="#ai"/><use transform="matrix(0.05,0,0,0.05,13.949999999999998,0)" xlink:href="#al"/><use transform="matrix(0.05,0,0,0.05,17.9,0)" xlink:href="#al"/><use transform="matrix(0.05,0,0,0.05,21.849999999999998,0)" xlink:href="#as"/><use transform="matrix(0.05,0,0,0.05,27.799999999999997,0)" xlink:href="#ar"/><use transform="matrix(0.05,0,0,0.05,37.8,0)" xlink:href="#ad"/><use transform="matrix(0.05,0,0,0.05,47.8,0)" xlink:href="#ae"/><use transform="matrix(0.05,0,0,0.05,56.79999999999999,0)" xlink:href="#ap"/></g><g id="v"><use transform="matrix(0.05,0,0,0.05,0,0)" xlink:href="#V"/><use transform="matrix(0.05,0,0,0.05,5.95,0)" xlink:href="#aa"/><use transform="matrix(0.05,0,0,0.05,15.949999999999998,0)" xlink:href="#ab"/><use transform="matrix(0.05,0,0,0.05,25.950000000000003,0)" xlink:href="#U"/><use transform="matrix(0.05,0,0,0.05,35.95,0)" xlink:href="#V"/><use transform="matrix(0.05,0,0,0.05,41.900000000000006,0)" xlink:href="#T"/></g><path d="M108 0H70L1-190h34L89-25l56-165h34" id="at"/><path d="M68-38c1 34 0 65-14 84H32c9-13 17-26 17-46H33v-38h35" id="au"/><g id="w"><use transform="matrix(0.05,0,0,0.05,0,0)" xlink:href="#P"/><use transform="matrix(0.05,0,0,0.05,12,0)" xlink:href="#ad"/><use transform="matrix(0.05,0,0,0.05,22,0)" xlink:href="#at"/><use transform="matrix(0.05,0,0,0.05,31,0)" xlink:href="#aa"/><use transform="matrix(0.05,0,0,0.05,41,0)" xlink:href="#au"/></g><g id="x"><use transform="matrix(0.05,0,0,0.05,0,0)" xlink:href="#aa"/><use transform="matrix(0.05,0,0,0.05,10,0)" xlink:href="#am"/><use transform="matrix(0.05,0,0,0.05,20,0)" xlink:href="#ai"/><use transform="matrix(0.05,0,0,0.05,23.95,0)" xlink:href="#T"/><use transform="matrix(0.05,0,0,0.05,28.950000000000003,0)" xlink:href="#au"/></g><g id="y"><use transform="matrix(0.05,0,0,0.05,0,0)" xlink:href="#ad"/><use transform="matrix(0.05,0,0,0.05,10,0)" xlink:href="#an"/><use transform="matrix(0.05,0,0,0.05,20,0)" xlink:href="#am"/></g><g id="z"><use transform="matrix(0.05,0,0,0.05,0,0)" xlink:href="#V"/><use transform="matrix(0.05,0,0,0.05,5.95,0)" xlink:href="#aa"/><use transform="matrix(0.05,0,0,0.05,15.949999999999998,0)" xlink:href="#ag"/><use transform="matrix(0.05,0,0,0.05,30.899999999999995,0)" xlink:href="#U"/><use transform="matrix(0.05,0,0,0.05,40.9,0)" xlink:href="#at"/><use transform="matrix(0.05,0,0,0.05,49.9,0)" xlink:href="#aa"/></g><g id="A"><use transform="matrix(0.05,0,0,0.05,0,0)" xlink:href="#V"/><use transform="matrix(0.05,0,0,0.05,5.95,0)" xlink:href="#aa"/><use transform="matrix(0.05,0,0,0.05,15.949999999999998,0)" xlink:href="#ab"/><use transform="matrix(0.05,0,0,0.05,25.950000000000003,0)" xlink:href="#U"/><use transform="matrix(0.05,0,0,0.05,35.95,0)" xlink:href="#V"/><use transform="matrix(0.05,0,0,0.05,41.900000000000006,0)" xlink:href="#T"/></g><g id="B"><use transform="matrix(0.05,0,0,0.05,0,0)" xlink:href="#T"/><use transform="matrix(0.05,0,0,0.05,5,0)" xlink:href="#aa"/><use transform="matrix(0.05,0,0,0.05,15,0)" xlink:href="#ag"/><use transform="matrix(0.05,0,0,0.05,29.950000000000003,0)" xlink:href="#ab"/><use transform="matrix(0.05,0,0,0.05,39.95,0)" xlink:href="#al"/><use transform="matrix(0.05,0,0,0.05,43.900000000000006,0)" xlink:href="#ad"/><use transform="matrix(0.05,0,0,0.05,53.900000000000006,0)" xlink:href="#T"/><use transform="matrix(0.05,0,0,0.05,58.900000000000006,0)" xlink:href="#aa"/><use transform="matrix(0.05,0,0,0.05,68.9,0)" xlink:href="#ac"/></g><g id="C"><use transform="matrix(0.05,0,0,0.05,0,0)" xlink:href="#T"/><use transform="matrix(0.05,0,0,0.05,5,0)" xlink:href="#U"/></g><g id="D"><use transform="matrix(0.05,0,0,0.05,0,0)" xlink:href="#ar"/><use transform="matrix(0.05,0,0,0.05,10,0)" xlink:href="#aa"/></g><g id="E"><use transform="matrix(0.05,0,0,0.05,0,0)" xlink:href="#V"/><use transform="matrix(0.05,0,0,0.05,5.95,0)" xlink:href="#af"/><use transform="matrix(0.05,0,0,0.05,15.949999999999998,0)" xlink:href="#an"/></g><g id="F"><use transform="matrix(0.05,0,0,0.05,0,0)" xlink:href="#ai"/><use transform="matrix(0.05,0,0,0.05,3.95,0)" xlink:href="#an"/></g><g id="G"><use transform="matrix(0.05,0,0,0.05,0,0)" xlink:href="#T"/><use transform="matrix(0.05,0,0,0.05,5,0)" xlink:href="#aj"/><use transform="matrix(0.05,0,0,0.05,15,0)" xlink:href="#aa"/></g><g id="H"><use transform="matrix(0.05,0,0,0.05,0,0)" xlink:href="#ak"/><use transform="matrix(0.05,0,0,0.05,5,0)" xlink:href="#af"/><use transform="matrix(0.05,0,0,0.05,15,0)" xlink:href="#T"/><use transform="matrix(0.05,0,0,0.05,20,0)" xlink:href="#af"/><use transform="matrix(0.05,0,0,0.05,30,0)" xlink:href="#V"/><use transform="matrix(0.05,0,0,0.05,35.95,0)" xlink:href="#aa"/></g><path d="M197 0v-115H63V0H30v-248h33v105h134v-105h34V0h-34" id="av"/><g id="I"><use transform="matrix(0.05,0,0,0.05,0,0)" xlink:href="#av"/><use transform="matrix(0.05,0,0,0.05,12.950000000000001,0)" xlink:href="#ad"/><use transform="matrix(0.05,0,0,0.05,22.950000000000003,0)" xlink:href="#V"/><use transform="matrix(0.05,0,0,0.05,28.900000000000002,0)" xlink:href="#am"/><use transform="matrix(0.05,0,0,0.05,38.900000000000006,0)" xlink:href="#ah"/><use transform="matrix(0.05,0,0,0.05,51.85,0)" xlink:href="#ad"/><use transform="matrix(0.05,0,0,0.05,61.85,0)" xlink:href="#V"/><use transform="matrix(0.05,0,0,0.05,67.80000000000001,0)" xlink:href="#aa"/></g><path d="M205 0l-28-72H64L36 0H1l101-248h38L239 0h-34zm-38-99l-47-123c-12 45-31 82-46 123h93" id="aw"/><g id="J"><use transform="matrix(0.05,0,0,0.05,0,0)" xlink:href="#aw"/><use transform="matrix(0.05,0,0,0.05,12,0)" xlink:href="#ac"/><use transform="matrix(0.05,0,0,0.05,21,0)" xlink:href="#ac"/><use transform="matrix(0.05,0,0,0.05,30,0)" xlink:href="#aa"/><use transform="matrix(0.05,0,0,0.05,40,0)" xlink:href="#T"/></g><g id="K"><use transform="matrix(0.05,0,0,0.05,0,0)" xlink:href="#Q"/><use transform="matrix(0.05,0,0,0.05,14.950000000000001,0)" xlink:href="#ad"/><use transform="matrix(0.05,0,0,0.05,24.950000000000003,0)" xlink:href="#an"/><use transform="matrix(0.05,0,0,0.05,34.95,0)" xlink:href="#ad"/><use transform="matrix(0.05,0,0,0.05,44.95,0)" xlink:href="#ao"/><use transform="matrix(0.05,0,0,0.05,54.95,0)" xlink:href="#aa"/><use transform="matrix(0.05,0,0,0.05,64.95,0)" xlink:href="#V"/></g><g id="L"><use transform="matrix(0.05,0,0,0.05,0,0)" xlink:href="#P"/><use transform="matrix(0.05,0,0,0.05,12,0)" xlink:href="#U"/><use transform="matrix(0.05,0,0,0.05,22,0)" xlink:href="#ak"/><use transform="matrix(0.05,0,0,0.05,27,0)" xlink:href="#T"/><use transform="matrix(0.05,0,0,0.05,32,0)" xlink:href="#ah"/><use transform="matrix(0.05,0,0,0.05,44.95,0)" xlink:href="#ad"/><use transform="matrix(0.05,0,0,0.05,54.95,0)" xlink:href="#V"/><use transform="matrix(0.05,0,0,0.05,60.900000000000006,0)" xlink:href="#aa"/></g><g id="M"><use transform="matrix(0.05,0,0,0.05,0,0)" xlink:href="#aw"/><use transform="matrix(0.05,0,0,0.05,12,0)" xlink:href="#ac"/><use transform="matrix(0.05,0,0,0.05,21,0)" xlink:href="#ac"/><use transform="matrix(0.05,0,0,0.05,30,0)" xlink:href="#aa"/><use transform="matrix(0.05,0,0,0.05,40,0)" xlink:href="#T"/></g><g id="N"><use transform="matrix(0.05,0,0,0.05,0,0)" xlink:href="#av"/><use transform="matrix(0.05,0,0,0.05,12.950000000000001,0)" xlink:href="#aa"/><use transform="matrix(0.05,0,0,0.05,22.950000000000003,0)" xlink:href="#al"/><use transform="matrix(0.05,0,0,0.05,26.900000000000002,0)" xlink:href="#ab"/><use transform="matrix(0.05,0,0,0.05,36.900000000000006,0)" xlink:href="#am"/><use transform="matrix(0.05,0,0,0.05,46.900000000000006,0)" xlink:href="#aa"/><use transform="matrix(0.05,0,0,0.05,56.900000000000006,0)" xlink:href="#ac"/><use transform="matrix(0.05,0,0,0.05,65.9,0)" xlink:href="#ap"/></g></defs></g></svg>